<svg width="72" height="60" viewBox="0 0 72 60" fill="none" xmlns="http://www.w3.org/2000/svg">
<g filter="url(#filter0_d_2160_11140)">
<rect x="24" y="8" width="24" height="24" rx="6" fill="#F8F8F8" shape-rendering="crispEdges"/>
<path d="M40 27C39.4444 27 38.9722 26.7958 38.5833 26.3875C38.1944 25.9792 38 25.4833 38 24.9C38 24.83 38.0167 24.6667 38.05 24.41L33.3667 21.54C33.1889 21.715 32.9833 21.8522 32.75 21.9516C32.5167 22.051 32.2667 22.1005 32 22.1C31.4444 22.1 30.9722 21.8958 30.5833 21.4875C30.1944 21.0792 30 20.5833 30 20C30 19.4167 30.1944 18.9208 30.5833 18.5125C30.9722 18.1042 31.4444 17.9 32 17.9C32.2667 17.9 32.5167 17.9497 32.75 18.0491C32.9833 18.1485 33.1889 18.2855 33.3667 18.46L38.05 15.59C38.0278 15.5083 38.014 15.4297 38.0087 15.3541C38.0033 15.2785 38.0004 15.1938 38 15.1C38 14.5167 38.1944 14.0208 38.5833 13.6125C38.9722 13.2042 39.4444 13 40 13C40.5556 13 41.0278 13.2042 41.4167 13.6125C41.8056 14.0208 42 14.5167 42 15.1C42 15.6833 41.8056 16.1792 41.4167 16.5875C41.0278 16.9958 40.5556 17.2 40 17.2C39.7333 17.2 39.4833 17.1503 39.25 17.0509C39.0167 16.9515 38.8111 16.8145 38.6333 16.64L33.95 19.51C33.9722 19.5917 33.9862 19.6705 33.992 19.7466C33.9978 19.8227 34.0004 19.9071 34 20C33.9996 20.0929 33.9969 20.1776 33.992 20.2541C33.9871 20.3306 33.9731 20.4093 33.95 20.49L38.6333 23.36C38.8111 23.185 39.0167 23.048 39.25 22.9491C39.4833 22.8502 39.7333 22.8005 40 22.8C40.5556 22.8 41.0278 23.0042 41.4167 23.4125C41.8056 23.8208 42 24.3167 42 24.9C42 25.4833 41.8056 25.9792 41.4167 26.3875C41.0278 26.7958 40.5556 27 40 27Z" fill="#1A1A1A"/>
</g>
<defs>
<filter id="filter0_d_2160_11140" x="0" y="-12" width="72" height="72" filterUnits="userSpaceOnUse" color-interpolation-filters="sRGB">
<feFlood flood-opacity="0" result="BackgroundImageFix"/>
<feColorMatrix in="SourceAlpha" type="matrix" values="0 0 0 0 0 0 0 0 0 0 0 0 0 0 0 0 0 0 127 0" result="hardAlpha"/>
<feOffset dy="4"/>
<feGaussianBlur stdDeviation="12"/>
<feComposite in2="hardAlpha" operator="out"/>
<feColorMatrix type="matrix" values="0 0 0 0 0.65098 0 0 0 0 0.65098 0 0 0 0 0.65098 0 0 0 0.25 0"/>
<feBlend mode="normal" in2="BackgroundImageFix" result="effect1_dropShadow_2160_11140"/>
<feBlend mode="normal" in="SourceGraphic" in2="effect1_dropShadow_2160_11140" result="shape"/>
</filter>
</defs>
</svg>
