<svg width="14" height="14" viewBox="0 0 14 14" fill="none" xmlns="http://www.w3.org/2000/svg">
<path d="M7.0035 1.3125C7.0035 1.3125 6.7375 1.68612 6.7375 1.96875C6.7375 2.25138 7.0035 2.625 7.0035 2.625C7.0035 2.625 7.25988 2.99425 7.2625 3.2725C7.26513 3.55687 7.0035 3.9375 7.0035 3.9375M9.26625 2.1875C9.26625 2.1875 9.00025 2.56112 9.00025 2.84375C9.00025 3.12638 9.26625 3.5 9.26625 3.5C9.26625 3.5 9.52262 3.86925 9.52525 4.1475C9.52787 4.43187 9.26625 4.8125 9.26625 4.8125M4.73375 2.1875C4.73375 2.1875 4.99975 2.56112 4.99975 2.84375C4.99975 3.12638 4.73375 3.5 4.73375 3.5C4.73375 3.5 4.47737 3.86925 4.47475 4.1475C4.47212 4.43187 4.73375 4.8125 4.73375 4.8125M1.3125 5.6875C1.3125 7.7875 2.97938 10.0327 4.75825 10.8771V11.8125H9.27063V10.8771C11.0486 10.0327 12.6875 7.7875 12.6875 5.6875H1.3125Z" stroke="#A6A6A6" stroke-width="1.25" stroke-linecap="round" stroke-linejoin="round"/>
</svg>
