<svg width="20" height="20" viewBox="0 0 20 20" fill="none" xmlns="http://www.w3.org/2000/svg">
<g clip-path="url(#clip0_1621_5674)">
<path d="M10.3846 0.515513C10.4827 0.603207 10.5768 0.692771 10.6696 0.786051C10.7577 0.87466 10.8468 0.962224 10.9359 1.04988C11.2327 1.34336 11.5257 1.63611 11.7973 1.9532C11.8372 1.99838 11.8771 2.0435 11.9172 2.08854C12.2336 2.44712 12.5284 2.81887 12.8129 3.2032C12.8305 3.22691 12.848 3.25062 12.8661 3.27505C14.5727 5.59158 15.5566 8.1987 15.5473 11.0841C15.4737 12.9339 15.4737 12.9339 16.2364 14.5325C16.3217 14.6175 16.4081 14.7014 16.4945 14.7852C16.539 14.8289 16.5835 14.8727 16.6279 14.9165C16.736 15.0229 16.8446 15.1288 16.9535 15.2344C16.9823 15.2156 17.011 15.1968 17.0406 15.1774C17.0978 15.1404 17.0978 15.1404 17.1562 15.1026C17.1938 15.0781 17.2314 15.0537 17.2701 15.0285C17.486 14.8997 17.6425 14.8553 17.891 14.8829C18.0093 14.9834 18.0419 15.0451 18.0668 15.1978C18.0424 15.3413 17.9998 15.3746 17.891 15.4688C17.8238 15.5068 17.7554 15.5425 17.6859 15.5762C17.5281 15.6584 17.4139 15.7413 17.2929 15.8717C17.1985 15.9722 17.1562 16.0129 17.0243 16.0621C16.7793 16.0457 16.6236 15.8525 16.4608 15.6869C16.4248 15.6507 16.4248 15.6507 16.3881 15.6138C16.3119 15.5372 16.236 15.4603 16.1601 15.3834C16.1083 15.3312 16.0565 15.279 16.0046 15.2269C15.878 15.0994 15.7516 14.9717 15.6254 14.8438C15.4143 15.022 15.4143 15.022 15.2142 15.2122C15.1811 15.2454 15.1811 15.2454 15.1474 15.2793C15.1255 15.3016 15.1035 15.3238 15.081 15.3468C15.058 15.3699 15.035 15.3931 15.0113 15.4169C14.9555 15.4732 14.8998 15.5296 14.8441 15.586C14.9877 15.7628 15.1418 15.9244 15.3051 16.083C15.3256 16.103 15.3461 16.123 15.3672 16.1436C15.453 16.2273 15.5388 16.3109 15.6254 16.3937C15.6892 16.4549 15.7523 16.5167 15.8154 16.5786C15.8349 16.597 15.8545 16.6155 15.8747 16.6345C16.0011 16.76 16.0494 16.8527 16.0551 17.0313C15.9911 17.1565 15.9191 17.2442 15.8228 17.3463C15.5366 17.6505 15.4433 17.901 15.4556 18.3207C15.4906 18.6225 15.6221 18.9076 15.8598 19.1016C16.2141 19.3222 16.5177 19.426 16.9306 19.3301C17.2491 19.2257 17.4937 19.0441 17.6566 18.7501C17.755 18.536 17.7871 18.3347 17.7894 18.1C17.8253 17.9592 17.8953 17.9013 18.0082 17.8126C18.1359 17.7819 18.1359 17.7819 18.2743 17.7711C18.5048 17.7451 18.6745 17.7065 18.8676 17.5782C18.9079 17.5524 18.9481 17.5266 18.9896 17.5001C19.1999 17.3095 19.3154 17.0459 19.3592 16.7698C19.3743 16.4203 19.3092 16.1439 19.102 15.8594C19.0125 15.7735 18.9197 15.6956 18.8233 15.6176C18.7504 15.5469 18.7504 15.5469 18.704 15.4005C18.7148 15.2132 18.7148 15.2132 18.7895 15.1173C18.8842 15.0436 18.9474 15.039 19.0678 15.0318C19.3342 15.0816 19.5334 15.3314 19.6914 15.5349C20.0206 16.0242 20.078 16.5537 19.9761 17.1293C19.8548 17.5422 19.5756 17.9218 19.2191 18.1641C19.05 18.256 18.8789 18.3414 18.6894 18.3796C18.5887 18.4001 18.5221 18.4171 18.4379 18.4766C18.3835 18.5984 18.3529 18.7188 18.3209 18.8482C18.2047 19.2519 17.9127 19.5729 17.557 19.7864C17.0802 20.0353 16.5137 20.0963 15.994 19.939C15.5096 19.7458 15.1503 19.3977 14.9226 18.9318C14.7475 18.471 14.7343 17.9489 14.911 17.4868C14.9778 17.3488 15.0578 17.2256 15.1499 17.1032C15.2062 17.029 15.2062 17.029 15.1957 16.9141C15.0648 16.7497 14.914 16.6018 14.766 16.4527C14.7446 16.4311 14.7233 16.4096 14.7013 16.3874C14.3741 16.0607 14.0975 15.8307 13.6332 15.7423C13.561 15.7241 13.561 15.7241 13.4873 15.7056C13.0383 15.5977 12.5894 15.578 12.1293 15.564C12.103 15.5632 12.0766 15.5624 12.0495 15.5615C11.6837 15.5499 11.3185 15.5451 10.9525 15.5469C7.48541 15.5582 4.38516 13.9935 1.8574 11.6917C1.79484 11.6349 1.73206 11.5783 1.66899 11.5221C0.0579794 10.0861 0.0579795 10.0861 -0.00652407 8.98344C-0.0493689 6.7456 0.980502 4.8668 2.46133 3.24226C2.52074 3.17553 2.58015 3.1088 2.63955 3.04206C2.89003 2.76418 3.1535 2.50849 3.43789 2.2657C3.47394 2.23397 3.51 2.20225 3.54714 2.16957C4.0909 1.69482 4.68901 1.29889 5.31289 0.937571C5.34006 0.92181 5.36723 0.906049 5.39523 0.889811C6.78638 0.0935555 8.97748 -0.57375 10.3846 0.515513ZM5.85565 1.36627C5.78046 1.40696 5.70478 1.44661 5.62905 1.48628C4.93315 1.85769 4.30974 2.35114 3.72888 2.88185C3.66697 2.93812 3.60444 2.99372 3.54119 3.04847C3.06133 3.4665 2.64651 3.9446 2.26602 4.4532C2.24572 4.47993 2.22543 4.50666 2.20452 4.5342C1.90427 4.93082 1.64104 5.33502 1.41116 5.77629C1.3701 5.85464 1.32775 5.93213 1.28503 6.00959C1.04325 6.45782 0.886948 6.93479 0.742578 7.42195C0.734351 7.44927 0.726124 7.47659 0.717649 7.50474C0.62075 7.84081 0.61426 8.17552 0.610742 8.52302C0.610188 8.56526 0.609634 8.6075 0.609063 8.65102C0.612845 9.27126 0.80647 9.7744 1.23422 10.2257C1.78512 10.733 2.4791 10.775 3.18906 10.7508C4.88473 10.6412 6.47106 9.55704 7.68395 8.442C7.74687 8.3842 7.81052 8.3272 7.87469 8.27079C8.05127 8.11539 8.21532 7.95854 8.36678 7.77854C8.44788 7.6837 8.53318 7.59352 8.61855 7.50251C9.82741 6.17259 10.821 4.40394 10.7591 2.56462C10.7234 1.95969 10.4809 1.46806 10.0395 1.05476C8.8285 0.141161 7.05226 0.71841 5.85565 1.36627ZM11.3676 2.46101C11.367 2.49747 11.367 2.49747 11.3665 2.53467C11.3266 4.66439 10.3321 6.55928 8.89138 8.09394C8.79825 8.19377 8.7083 8.29566 8.61855 8.39851C7.75867 9.35275 6.65238 10.1171 5.49872 10.6701C5.4402 10.6983 5.38207 10.7273 5.32403 10.7564C4.41406 11.1978 3.46284 11.3522 2.46133 11.3673C4.09215 13.0307 6.50028 14.2909 8.77725 14.7364C8.80732 14.7423 8.83739 14.7482 8.86837 14.7543C9.5084 14.8712 10.1429 14.8947 10.7921 14.901C13.2145 14.9256 13.2145 14.9256 14.2582 15.2735C14.5934 14.9384 14.9285 14.6032 15.2738 14.2579C15.2094 14.0516 15.1449 13.8454 15.0785 13.6329C14.9778 13.1342 14.9562 12.6347 14.9517 12.127C14.9504 12.0261 14.9491 11.9252 14.9478 11.8243C14.946 11.6685 14.9443 11.5126 14.9427 11.3568C14.9307 10.1051 14.9307 10.1051 14.7587 8.86726C14.7461 8.80461 14.7461 8.80461 14.7332 8.7407C14.3906 7.09802 13.6636 5.50953 12.6957 4.1407C12.681 4.11972 12.6664 4.09874 12.6513 4.07712C12.0582 3.2282 12.0582 3.2282 11.3676 2.46101Z" fill="#DC143C"/>
<path d="M9.56162 1.63072C9.94461 1.98307 10.1344 2.4822 10.166 2.9918C10.2039 4.6637 9.23171 6.1369 8.16513 7.34361C8.14662 7.36459 8.1281 7.38558 8.10902 7.4072C7.6636 7.90855 7.17703 8.34662 6.6417 8.74986C6.62053 8.76605 6.59937 8.78225 6.57757 8.79893C5.51732 9.60709 4.21389 10.2433 2.85263 10.1561C2.38781 10.0928 1.96094 9.92312 1.6417 9.57017C1.24328 9.03065 1.14636 8.40576 1.22374 7.75237C1.32453 7.08687 1.54755 6.28177 1.97479 5.74525C2.0828 5.6659 2.17827 5.6854 2.30576 5.70298C2.42295 5.78111 2.42295 5.78111 2.50107 5.8983C2.49185 6.13982 2.42508 6.31326 2.31552 6.52574C1.98884 7.19008 1.72616 7.96615 1.9249 8.71003C2.02106 8.96897 2.18483 9.19259 2.42295 9.3358C3.11359 9.63713 3.84582 9.46698 4.52261 9.20655C5.14685 8.95177 5.71577 8.61055 6.25107 8.20298C6.28873 8.17438 6.3264 8.14578 6.36521 8.11631C6.56241 7.96198 6.74938 7.79721 6.93421 7.62834C7.00029 7.56812 7.06693 7.50851 7.1341 7.4495C7.33882 7.26925 7.52163 7.08391 7.69638 6.87486C7.74382 6.82085 7.74382 6.82085 7.79221 6.76576C8.24478 6.24817 8.63098 5.68906 8.94638 5.07798C8.95901 5.05352 8.97165 5.02906 8.98466 5.00386C9.34348 4.29799 9.64544 3.455 9.43222 2.66343C9.32149 2.34359 9.16294 2.15185 8.86337 1.99449C8.29441 1.72636 7.61219 1.89344 7.04254 2.07856C6.05528 2.45081 5.20237 3.0382 4.4278 3.74589C4.34851 3.81759 4.26759 3.88633 4.18564 3.95494C3.84733 4.25019 3.5552 4.60098 3.27606 4.95133C3.11751 5.14457 3.11751 5.14457 2.99668 5.19029C2.85546 5.19686 2.77636 5.15103 2.65732 5.07798C2.59644 4.95622 2.58552 4.85666 2.61826 4.72642C2.70817 4.58366 2.8181 4.46099 2.93076 4.3358C2.96027 4.30251 2.98977 4.26923 3.02017 4.23493C3.07919 4.16892 3.13855 4.1032 3.19824 4.03779C3.27328 3.95513 3.34638 3.87122 3.41904 3.78648C3.66614 3.50424 3.93184 3.25397 4.22486 3.01988C4.33922 2.92776 4.45023 2.83236 4.56162 2.73667C5.76717 1.73308 8.0924 0.472668 9.56162 1.63072Z" fill="#DC143C"/>
<path d="M8.42887 2.8442C8.6122 3.02244 8.67722 3.24403 8.68522 3.49361C8.67519 4.11548 8.31371 4.65482 7.89161 5.08602C7.47787 5.48587 6.99019 5.75935 6.40906 5.75298C6.18021 5.73212 6.01738 5.64165 5.86539 5.47115C5.68146 5.20608 5.67557 4.96394 5.70426 4.6484C5.85682 3.97301 6.31748 3.35616 6.89322 2.97848C7.39367 2.67446 7.90396 2.49824 8.42887 2.8442ZM6.85981 3.8406C6.57783 4.13438 6.34344 4.49145 6.32193 4.90719C6.31472 5.04185 6.31472 5.04185 6.40738 5.11715C6.72846 5.14413 7.01021 4.98863 7.25745 4.80083C7.59893 4.50793 7.97944 4.09562 8.04801 3.63277C8.04951 3.4829 8.04951 3.4829 8.00895 3.35933C7.61835 3.09894 7.12828 3.58296 6.85981 3.8406Z" fill="#DC143C"/>
</g>
<defs>
<clipPath id="clip0_1621_5674">
<rect width="20" height="20" fill="white"/>
</clipPath>
</defs>
</svg>
