<svg width="28" height="28" viewBox="0 0 28 28" fill="none" xmlns="http://www.w3.org/2000/svg">
<path d="M14 5.88477C16.1549 5.88477 18.2215 6.74079 19.7452 8.26452C21.269 9.78826 22.125 11.8549 22.125 14.0098C22.125 16.1646 21.269 18.2313 19.7452 19.755C18.2215 21.2787 16.1549 22.1348 14 22.1348C11.8451 22.1348 9.77849 21.2787 8.25476 19.755C6.73102 18.2313 5.875 16.1646 5.875 14.0098C5.875 11.8549 6.73102 9.78826 8.25476 8.26452C9.77849 6.74079 11.8451 5.88477 14 5.88477ZM14 24.0098C16.6522 24.0098 19.1957 22.9562 21.0711 21.0808C22.9464 19.2055 24 16.6619 24 14.0098C24 11.3576 22.9464 8.81406 21.0711 6.9387C19.1957 5.06333 16.6522 4.00977 14 4.00977C11.3478 4.00977 8.8043 5.06333 6.92893 6.9387C5.05357 8.81406 4 11.3576 4 14.0098C4 16.6619 5.05357 19.2055 6.92893 21.0808C8.8043 22.9562 11.3478 24.0098 14 24.0098ZM11.1562 9.18945C11.1055 9.08008 10.9961 9.00977 10.875 9.00977C10.7539 9.00977 10.6445 9.08008 10.5938 9.18945L9.94531 10.5449L8.45703 10.7402C8.33594 10.7559 8.23828 10.8379 8.19922 10.9551C8.16016 11.0723 8.19531 11.1973 8.28125 11.2793L9.37109 12.3145L9.09766 13.791C9.07422 13.9082 9.125 14.0293 9.22266 14.0996C9.32031 14.1699 9.44922 14.1777 9.55469 14.123L10.875 13.4043L12.1953 14.1191C12.3008 14.1777 12.4297 14.1699 12.5273 14.0957C12.625 14.0215 12.6719 13.9043 12.6523 13.7871L12.3789 12.3105L13.4688 11.2754C13.5547 11.1934 13.5898 11.0684 13.5508 10.9512C13.5117 10.834 13.4141 10.752 13.293 10.7363L11.8047 10.541L11.1562 9.18555V9.18945ZM17.4062 9.18945C17.3555 9.08008 17.2461 9.00977 17.125 9.00977C17.0039 9.00977 16.8945 9.08008 16.8438 9.18945L16.1953 10.5449L14.707 10.7402C14.5859 10.7559 14.4883 10.8379 14.4492 10.9551C14.4102 11.0723 14.4453 11.1973 14.5312 11.2793L15.6211 12.3145L15.3477 13.791C15.3242 13.9082 15.375 14.0293 15.4727 14.0996C15.5703 14.1699 15.6992 14.1777 15.8047 14.123L17.125 13.4043L18.4453 14.1191C18.5508 14.1777 18.6797 14.1699 18.7773 14.0957C18.875 14.0215 18.9219 13.9043 18.9023 13.7871L18.6289 12.3105L19.7188 11.2754C19.8047 11.1934 19.8398 11.0684 19.8008 10.9512C19.7617 10.834 19.6641 10.752 19.543 10.7363L18.0547 10.541L17.4062 9.18555V9.18945ZM17.6523 16.0566C16.5234 16.3223 15.2891 16.4668 13.9961 16.4668C12.7031 16.4668 11.4688 16.3223 10.3398 16.0566C9.60938 15.8848 8.9375 16.5254 9.34375 17.1543C10.3047 18.6426 12.0273 19.6348 13.9961 19.6348C15.9648 19.6348 17.6875 18.6426 18.6484 17.1543C19.0547 16.5254 18.3828 15.8848 17.6523 16.0566Z" fill="#638758"/>
</svg>
