<svg width="28" height="28" viewBox="0 0 28 28" fill="none" xmlns="http://www.w3.org/2000/svg">
<path d="M22.125 14.0098C22.125 16.1646 21.269 18.2313 19.7452 19.755C18.2215 21.2787 16.1549 22.1348 14 22.1348C11.8451 22.1348 9.77849 21.2787 8.25476 19.755C6.73102 18.2313 5.875 16.1646 5.875 14.0098C5.875 11.8549 6.73102 9.78826 8.25476 8.26452C9.77849 6.74079 11.8451 5.88477 14 5.88477C16.1549 5.88477 18.2215 6.74079 19.7452 8.26452C21.269 9.78826 22.125 11.8549 22.125 14.0098ZM14 4.00977C11.3478 4.00977 8.8043 5.06333 6.92893 6.9387C5.05357 8.81406 4 11.3576 4 14.0098C4 16.6619 5.05357 19.2055 6.92893 21.0808C8.8043 22.9562 11.3478 24.0098 14 24.0098C16.6522 24.0098 19.1957 22.9562 21.0711 21.0808C22.9464 19.2055 24 16.6619 24 14.0098C24 11.3576 22.9464 8.81406 21.0711 6.9387C19.1957 5.06333 16.6522 4.00977 14 4.00977ZM10.8906 13.3848C11.2221 13.3848 11.5401 13.2531 11.7745 13.0186C12.0089 12.7842 12.1406 12.4663 12.1406 12.1348C12.1406 11.8032 12.0089 11.4853 11.7745 11.2509C11.5401 11.0165 11.2221 10.8848 10.8906 10.8848C10.5591 10.8848 10.2412 11.0165 10.0067 11.2509C9.77232 11.4853 9.64062 11.8032 9.64062 12.1348C9.64062 12.4663 9.77232 12.7842 10.0067 13.0186C10.2412 13.2531 10.5591 13.3848 10.8906 13.3848ZM18.3906 12.1348C18.3906 11.8032 18.2589 11.4853 18.0245 11.2509C17.7901 11.0165 17.4721 10.8848 17.1406 10.8848C16.8091 10.8848 16.4912 11.0165 16.2567 11.2509C16.0223 11.4853 15.8906 11.8032 15.8906 12.1348C15.8906 12.4663 16.0223 12.7842 16.2567 13.0186C16.4912 13.2531 16.8091 13.3848 17.1406 13.3848C17.4721 13.3848 17.7901 13.2531 18.0245 13.0186C18.2589 12.7842 18.3906 12.4663 18.3906 12.1348ZM11.1875 16.8223C10.668 16.8223 10.25 17.2402 10.25 17.7598C10.25 18.2793 10.668 18.6973 11.1875 18.6973H16.8125C17.332 18.6973 17.75 18.2793 17.75 17.7598C17.75 17.2402 17.332 16.8223 16.8125 16.8223H11.1875Z" fill="#9BCD8C"/>
</svg>
