<svg width="28" height="28" viewBox="0 0 28 28" fill="none" xmlns="http://www.w3.org/2000/svg">
<path d="M14 5.88477C16.1549 5.88477 18.2215 6.74079 19.7452 8.26452C21.269 9.78826 22.125 11.8549 22.125 14.0098C22.125 16.1646 21.269 18.2313 19.7452 19.755C18.2215 21.2787 16.1549 22.1348 14 22.1348C11.8451 22.1348 9.77849 21.2787 8.25476 19.755C6.73102 18.2313 5.875 16.1646 5.875 14.0098C5.875 11.8549 6.73102 9.78826 8.25476 8.26452C9.77849 6.74079 11.8451 5.88477 14 5.88477ZM14 24.0098C16.6522 24.0098 19.1957 22.9562 21.0711 21.0808C22.9464 19.2055 24 16.6619 24 14.0098C24 11.3576 22.9464 8.81406 21.0711 6.9387C19.1957 5.06333 16.6522 4.00977 14 4.00977C11.3478 4.00977 8.8043 5.06333 6.92893 6.9387C5.05357 8.81406 4 11.3576 4 14.0098C4 16.6619 5.05357 19.2055 6.92893 21.0808C8.8043 22.9562 11.3478 24.0098 14 24.0098ZM16.8281 19.3809C17.207 19.0293 17.2266 18.4355 16.875 18.0566C16.3164 17.459 15.3516 16.8223 14 16.8223C12.6484 16.8223 11.6836 17.459 11.1289 18.0566C10.7773 18.4355 10.7969 19.0293 11.1758 19.3809C11.5547 19.7324 12.1484 19.7129 12.5 19.334C12.7891 19.0254 13.2812 18.6934 14.0039 18.6934C14.7266 18.6934 15.2188 19.0254 15.5078 19.334C15.8594 19.7129 16.4531 19.7324 16.832 19.3809H16.8281ZM10.8906 14.6348C11.582 14.6348 12.1406 14.0762 12.1406 13.3848C12.1406 13.3262 12.1367 13.2676 12.1289 13.2129L12.5547 13.3535C12.8828 13.4629 13.2344 13.2871 13.3438 12.959C13.4531 12.6309 13.2773 12.2793 12.9492 12.1699L9.19922 10.9199C8.87109 10.8105 8.51953 10.9863 8.41016 11.3145C8.30078 11.6426 8.47656 11.9941 8.80469 12.1035L10.0039 12.502C9.77734 12.7285 9.64062 13.041 9.64062 13.3848C9.64062 14.0762 10.1992 14.6348 10.8906 14.6348ZM18.3906 13.3848C18.3906 13.0371 18.25 12.7207 18.0195 12.4941L19.1992 12.0996C19.5273 11.9902 19.7031 11.6348 19.5938 11.3105C19.4844 10.9863 19.1289 10.8066 18.8047 10.916L15.0547 12.166C14.7266 12.2754 14.5508 12.6309 14.6602 12.9551C14.7695 13.2793 15.125 13.459 15.4492 13.3496L15.9062 13.1973C15.8984 13.2559 15.8945 13.3184 15.8945 13.3809C15.8945 14.0723 16.4531 14.6309 17.1445 14.6309C17.8359 14.6309 18.3945 14.0723 18.3945 13.3809L18.3906 13.3848Z" fill="#87001B"/>
</svg>
