<svg width="28" height="28" viewBox="0 0 28 28" fill="none" xmlns="http://www.w3.org/2000/svg">
<path d="M22.125 14.0098C22.125 11.8549 21.269 9.78826 19.7452 8.26452C18.2215 6.74079 16.1549 5.88477 14 5.88477C11.8451 5.88477 9.77849 6.74079 8.25476 8.26452C6.73102 9.78826 5.875 11.8549 5.875 14.0098C5.875 16.1646 6.73102 18.2313 8.25476 19.755C9.77849 21.2787 11.8451 22.1348 14 22.1348C16.1549 22.1348 18.2215 21.2787 19.7452 19.755C21.269 18.2313 22.125 16.1646 22.125 14.0098ZM4 14.0098C4 11.3576 5.05357 8.81406 6.92893 6.9387C8.8043 5.06333 11.3478 4.00977 14 4.00977C16.6522 4.00977 19.1957 5.06333 21.0711 6.9387C22.9464 8.81406 24 11.3576 24 14.0098C24 16.6619 22.9464 19.2055 21.0711 21.0808C19.1957 22.9562 16.6522 24.0098 14 24.0098C11.3478 24.0098 8.8043 22.9562 6.92893 21.0808C5.05357 19.2055 4 16.6619 4 14.0098ZM10.9375 16.4355C11.5312 17.0762 12.5469 17.7598 14 17.7598C15.4531 17.7598 16.4688 17.0762 17.0625 16.4355C17.4141 16.0566 18.0078 16.0293 18.3867 16.3809C18.7656 16.7324 18.793 17.3262 18.4414 17.7051C17.582 18.6348 16.0977 19.6348 14.0039 19.6348C11.9102 19.6348 10.4219 18.6387 9.56641 17.7051C9.21484 17.3262 9.23828 16.7324 9.62109 16.3809C10.0039 16.0293 10.5938 16.0527 10.9453 16.4355H10.9375ZM9.64062 12.1348C9.64062 11.8032 9.77232 11.4853 10.0067 11.2509C10.2412 11.0165 10.5591 10.8848 10.8906 10.8848C11.2221 10.8848 11.5401 11.0165 11.7745 11.2509C12.0089 11.4853 12.1406 11.8032 12.1406 12.1348C12.1406 12.4663 12.0089 12.7842 11.7745 13.0186C11.5401 13.2531 11.2221 13.3848 10.8906 13.3848C10.5591 13.3848 10.2412 13.2531 10.0067 13.0186C9.77232 12.7842 9.64062 12.4663 9.64062 12.1348ZM17.1406 10.8848C17.4721 10.8848 17.7901 11.0165 18.0245 11.2509C18.2589 11.4853 18.3906 11.8032 18.3906 12.1348C18.3906 12.4663 18.2589 12.7842 18.0245 13.0186C17.7901 13.2531 17.4721 13.3848 17.1406 13.3848C16.8091 13.3848 16.4912 13.2531 16.2567 13.0186C16.0223 12.7842 15.8906 12.4663 15.8906 12.1348C15.8906 11.8032 16.0223 11.4853 16.2567 11.2509C16.4912 11.0165 16.8091 10.8848 17.1406 10.8848Z" fill="#89B87B"/>
</svg>
