<svg width="141" height="140" viewBox="0 0 141 140" fill="none" xmlns="http://www.w3.org/2000/svg">
<path d="M31.6654 35.2759C41.1576 21.3998 61.0018 17.5178 69.7373 17.3113C93.8177 15.405 108.318 29.7201 113.678 38.808C114.502 40.2053 115.365 41.5793 116.329 42.8841C127.941 58.6037 125.825 76.1408 123.182 83.1815C108.204 122.214 78.3436 125.4 63.0623 121.768C61.3763 121.367 59.6717 121.056 57.9506 120.854C48.4324 119.737 41.3529 115.339 36.8114 111.07C32.8832 107.377 31.5125 101.741 28.273 97.4316C26.2818 94.7827 23.794 92.2735 21.8637 89.9957C7.25406 70.8335 22.3108 45.5316 31.6654 35.2759Z" fill="#CD1539"/>
<path d="M53.6305 49.1354C33.3255 31.2121 23.9846 49.3075 21.8523 60.5956C28.4555 58.6133 26.392 63.6929 24.5349 66.4804C17.7642 73.3145 20.67 82.7261 25.052 89.7842C28.1684 94.8038 31.3656 99.9083 35.1426 104.452C39.4614 109.647 44.9227 112.602 49.6382 114.131C54.399 115.675 59.4087 116.574 64.328 117.496C89.6784 122.243 107.473 103.309 113.576 92.2916C123.392 73.3203 120.439 58.0419 115.564 48.8902C112.778 43.6597 109.191 38.7984 105.821 33.9232C98.0205 22.6367 89.5157 21.015 85.7181 21.8787H72.5116L49.6066 34.0616C54.0088 37.2966 63.9274 43.0645 68.3846 40.2563C72.8418 37.448 78.771 36.6083 81.1784 36.5395C96.7786 38.3566 97.996 31.5149 96.6548 27.8669C109.531 42.8993 87.025 43.8354 74.1624 42.4244C62.3591 53.4923 55.5564 51.51 53.6305 49.1354Z" fill="#DC143C"/>
<path d="M82.628 102.522C71.5676 114.499 60.5484 113.845 56.4214 112.021C61.9929 115.428 69.3184 116.77 78.1915 112.64C85.29 109.336 84.1069 111.883 82.628 113.569C80.7296 115.469 74.4771 117.183 71.5882 117.803C109.062 110.204 117.054 87.0356 116.367 76.4014C114.131 80.0149 107.039 88.5843 96.5568 93.953C86.0741 99.3217 82.9032 101.903 82.628 102.522Z" fill="#A00322"/>
<path d="M49.3938 106.671C48.9516 106.397 48.4404 106.102 47.8916 105.798C45.7061 104.59 41.7137 101.714 39.4437 100.673C33.1693 97.7957 55.262 110.306 49.3938 106.671Z" fill="#A00322"/>
<path d="M92.0919 76.4877C111.243 68.6257 111.72 52.1013 109.455 44.6021C119.851 65.1814 104.51 75.1142 93.2545 78.2619C91.2403 78.8252 86.2085 78.2246 88.1741 77.5102C89.4617 77.0423 90.8245 77.0079 92.0919 76.4877Z" fill="#A00322"/>
<path d="M24.335 69.897C22.581 73.2008 21.1572 80.717 29.4938 84.3512C27.5335 81.4604 23.7572 74.5223 24.335 69.897Z" fill="#A00322"/>
<path d="M95.907 53.8482C93.2508 53.4227 89.9266 53.9025 87.4447 54.5556C74.6287 58.6984 78.0212 63.7094 81.3194 65.697C84.1158 67.259 86.8266 67.6907 89.2822 67.4665C96.7828 66.7816 103.344 55.0394 95.907 53.8482Z" fill="#A00322"/>
<path d="M79.8372 61.0113C77.2427 57.8254 78.4448 55.1283 79.0368 54.6338L88.6711 59.8817L89.6439 64.8374C84.5784 63.7755 80.9955 61.8442 79.8372 61.0113Z" fill="#FC7536"/>
<path d="M85.3819 48.9733C82.3634 50.6489 79.4159 53.6202 77.9241 55.5247C77.5809 55.9629 77.7265 56.5618 78.2404 56.7756C80.4793 57.7071 85.7213 59.4232 88.2148 60.2948C97.1954 53.697 92.5772 50.0179 88.1872 48.6817C87.2502 48.3965 86.2382 48.498 85.3819 48.9733Z" fill="#FDA982"/>
<path d="M89.6703 64.8376L88.1997 60.3303C94.8252 54.9216 93.1276 51.4454 91.4505 50.3833C92.7663 50.9273 94.6756 52.9478 95.5528 53.8026C97.0234 55.046 96.9976 56.7038 96.7138 57.3773C95.4135 61.3561 91.4763 64.0087 89.6703 64.8376Z" fill="#FC8750"/>
<path d="M45.1561 58.4685C44.3418 53.1134 39.633 53.919 36.6986 55.4475C28.1945 60.8887 30.4456 67.4703 32.6342 70.081C35.2862 73.0131 37.8223 72.9129 39.9136 71.5989C44.1103 68.9621 45.9011 63.3684 45.1561 58.4685Z" fill="#A00322"/>
<path d="M42.3594 68.0382C40.626 65.0648 41.0869 58.6085 41.534 55.7521L34.4148 48.7314H33.2799C18.8353 52.6547 26.0576 70.2064 38.5419 70.9291L42.3594 68.0382Z" fill="#E53461"/>
<path d="M38.9541 70.7226C28.3889 65.0235 30.7688 53.6872 33.2794 48.7314C18.4221 52.758 25.8508 70.2064 38.5414 70.9291L38.9541 70.7226Z" fill="#860130"/>
<path d="M36.8964 52.8769C35.7401 57.6675 38.686 61.4119 40.3035 62.6852C41.1295 62.7678 40.923 62.2378 40.7165 61.9625C37.33 59.6498 37.2406 55.0795 37.6191 53.0834C37.4539 52.4227 37.0685 52.6705 36.8964 52.8769Z" fill="#860130"/>
<path d="M34.8315 54.2191C35.3271 53.3932 35.5198 54.0126 35.5542 54.4256C34.4805 60.7029 38.7548 64.6813 41.0262 65.8858C41.9348 66.464 41.3359 66.7462 40.923 66.815C34.3979 63.346 34.1432 56.9723 34.8315 54.2191Z" fill="#860130"/>
<path d="M45.7247 37.9195L46.5424 36.9194C47.1422 36.1858 47.6587 35.3878 48.0823 34.5401L48.5131 33.6779C48.9697 32.764 49.4911 31.8838 50.0733 31.0443L51.6198 28.8141C52.3428 27.7713 53.1655 26.8013 54.0761 25.9176L54.137 25.8585C55.4467 24.5877 56.9325 23.5122 58.5487 22.665L58.6176 22.6289C59.8321 21.9923 61.1142 21.4941 62.4399 21.1437L63.4514 20.8764C65.0772 20.4466 66.7711 20.3368 68.4389 20.5532C70.4419 20.813 72.3567 21.5366 74.0309 22.6665L74.4319 22.9371C75.4213 23.6049 76.3267 24.3895 77.1283 25.2739L78.213 26.4706C79.3457 27.7204 80.8024 28.6321 82.4215 29.1046L85.731 30.0859C87.2155 30.526 88.5663 31.3302 89.6608 32.4254L89.9822 32.7471C91.0408 33.8064 91.7699 35.1497 92.0814 36.6145L92.1579 36.9742C92.4677 38.4313 92.2818 39.9501 91.6297 41.2894C91.0097 42.5629 90.0011 43.6065 88.7495 44.2696L87.6892 44.8313C86.1949 45.6229 84.5295 46.0368 82.8384 46.0368H79.3322C77.4789 46.0368 75.6335 46.2776 73.8423 46.7531C72.2758 47.169 70.7616 47.7616 69.3289 48.5194L66.9052 49.8013C65.1605 50.7241 63.2513 51.2945 61.2864 51.48C59.6363 51.6358 57.9719 51.5178 56.3603 51.1307L52.4588 50.1937C51.5261 49.9697 50.6188 49.6509 49.751 49.2423L47.5033 48.1838C46.3901 47.6596 45.4624 46.8099 44.8427 45.7469C44.0622 44.4079 43.8229 42.8213 44.1737 41.3117L44.2781 40.8623C44.5288 39.7836 45.0237 38.7768 45.7247 37.9195Z" fill="#FDE5CE"/>
<path d="M52.2466 29.7034L51.984 30.3457C51.39 31.7988 51.3971 33.4283 52.0039 34.8761C52.2644 35.4979 52.6292 36.0706 53.0825 36.5696L53.8541 37.4188C54.2521 37.8569 54.756 38.1853 55.3174 38.3726L57.8659 39.2227L58.1076 39.2938C60.2739 39.9314 62.5205 40.2551 64.7787 40.2551L62.3373 40.8815C61.2865 41.1512 60.2059 41.2876 59.121 41.2876H58.9756C57.291 41.2876 55.6244 40.9399 54.0803 40.2664L53.4034 39.9711C52.7366 39.6803 52.1169 39.2916 51.5647 38.818L49.9376 37.4225C49.6608 37.1851 49.3082 37.0545 48.9435 37.0545C48.3992 37.0545 47.8961 37.3443 47.6229 37.8151L46.9637 38.951C46.4776 39.7888 46.3291 40.7803 46.5483 41.7237L46.6736 42.2626C47.0309 43.8001 48.0667 45.0923 49.4895 45.7757L51.3117 46.651C52.0327 46.9973 52.7948 47.2503 53.5798 47.404L54.7954 47.642C56.3525 47.9468 57.9459 48.0215 59.5246 47.8635C61.363 47.6795 63.1564 47.1827 64.8273 46.3944L69.5248 44.1784L75.2645 42.3733C76.2514 42.0629 77.2606 41.828 78.2831 41.6706L82.2274 41.0634C83.0318 40.9395 83.792 40.6149 84.4377 40.1195L84.8234 39.8236C85.8979 38.9993 86.4762 37.6828 86.3563 36.3339C86.2217 34.8181 85.2298 33.5139 83.805 32.9792L82.8344 32.615L80.3532 31.4864C79.7395 31.2073 79.1599 30.8587 78.6256 30.4475L78.5621 30.3985C77.3732 29.4834 76.4471 28.2705 75.8774 26.8825C74.9241 24.56 72.9949 22.7761 70.6049 22.0074L70.2876 21.9054C69.1702 21.546 67.9946 21.4028 66.8236 21.4837L65.4169 21.5807C63.5602 21.7089 61.7384 22.1489 60.028 22.8825L59.9079 22.934C58.3504 23.6019 56.9108 24.5166 55.6446 25.6429L54.2302 26.9011C53.3638 27.6716 52.6854 28.6302 52.2466 29.7034Z" fill="#FFFAF5"/>
<path d="M70.6594 38.81C72.6212 37.2425 73.9424 35.4735 75.2868 38.1074C75.4392 38.2965 75.6892 38.499 75.4701 37.7955C75.3045 37.2639 75.0924 37.0701 74.9456 37.021L76.4822 37.1357C76.8162 37.1103 77.3007 36.9964 76.5668 36.7439C75.8329 36.4915 73.9937 36.5781 73.1659 36.6529C73.9434 36.2743 76.1289 35.4425 78.6514 35.1444C79.3886 34.9523 80.4091 34.5755 78.594 34.6048C76.7789 34.6341 74.5452 35.5453 73.6553 35.9972C74.368 35.2922 76.0415 33.8068 77.034 33.5059C78.0266 33.2051 79.2899 32.7245 79.7974 32.5218C80.2231 32.3405 80.8027 32.0011 79.7159 32.0941C79.2285 32.2035 77.9553 32.5687 76.7622 33.1542C77.1277 32.8037 77.9755 32.0459 78.442 31.8187C78.9084 31.5915 80.0805 30.9428 80.6082 30.6469C81.0315 30.3869 81.6016 29.9127 80.4954 30.0953L78.4087 31.1671C78.7656 30.678 79.4837 29.5719 79.5014 29.0602C79.5192 28.5485 79.1893 28.8951 79.0221 29.1323C78.7713 29.4881 78.1048 30.4804 77.445 31.6031L75.6876 33.5663C76.0576 32.748 76.8019 30.9837 76.8196 30.472C76.8418 29.8324 76.6445 29.6726 76.2416 30.4642C75.8387 31.2558 75.9203 32.2693 75.2516 33.7063C74.7166 34.8559 73.5261 35.774 72.9977 36.0893C73.3485 35.0912 74.0788 32.8552 74.1932 31.8958C74.3486 31.2655 74.4887 30.3663 73.8054 31.8119C73.651 32.1691 73.2967 33.2016 73.1146 34.4744C73.0186 34.024 72.777 33.0306 72.5788 32.6597C72.3311 32.1961 72.0733 32.3161 72.2606 33.0595C72.4479 33.803 72.8688 34.5384 72.7238 35.21L72.3975 36.7211C71.6254 37.4328 71.3463 37.8698 70.1435 38.5001C70.0254 38.6894 70.1527 38.7941 70.6594 38.81Z" fill="#40D05F"/>
<path d="M34.834 67.6793C33.0948 68.8601 30.2739 67.4122 29.9438 70.0943C29.8721 70.3044 29.7208 70.5565 29.6889 69.884C29.6647 69.3757 29.7862 69.143 29.8969 69.0548L28.6137 69.6346C28.319 69.7174 27.8674 69.7714 28.4185 69.3248C28.9696 68.8782 30.5754 68.3764 31.3095 68.1814C30.5236 68.0999 28.3873 68.0704 26.1286 68.6047C25.4358 68.6707 24.4418 68.6669 26.0091 68.1235C27.5764 67.58 29.7789 67.6626 30.6842 67.7718C29.8519 67.3898 27.9507 66.6389 27.0045 66.6915C26.0583 66.7442 24.8236 66.7273 24.3245 66.7123C23.9024 66.69 23.2986 66.5802 24.2607 66.3196C24.7133 66.2609 25.9205 66.1756 27.1279 66.3045C26.7044 66.1181 25.7396 65.733 25.2681 65.6841C24.7966 65.6352 23.5876 65.4455 23.042 65.3567C22.5973 65.2662 21.9596 65.0377 22.9663 64.8479L25.0928 65.1144C24.6335 64.8063 23.671 64.0817 23.4957 63.6481C23.3204 63.2144 23.7121 63.4085 23.9298 63.5598C24.2564 63.7867 25.1389 64.4297 26.0565 65.1868L28.1792 66.3216C27.6057 65.7351 26.4148 64.4536 26.2395 64.0199C26.0204 63.4778 26.1398 63.2789 26.7332 63.8322C27.3267 64.3855 27.5737 65.2811 28.5973 66.3052C29.4162 67.1245 30.7253 67.5397 31.2775 67.6449C30.6642 66.898 29.3378 65.2072 28.9395 64.4195C28.6089 63.9271 28.2074 63.1991 29.2461 64.226C29.4904 64.4843 30.1176 65.2596 30.6721 66.2951C30.6136 65.8785 30.5102 64.9501 30.5643 64.5696C30.6319 64.094 30.8908 64.1162 30.9625 64.8131C31.0343 65.51 30.903 66.2731 31.2376 66.8042L31.9904 67.9992C32.8758 68.3683 33.56 67.4591 34.8191 67.3615C35.0521 67.3328 35.159 67.4205 34.834 67.6793Z" fill="#40D05F"/>
<path d="M88.26 97.0054C90.7406 93.1952 95.938 87.0156 90.9801 85.0032C90.6145 84.7574 90.2085 84.3368 91.5088 84.6205C92.4917 84.835 92.8756 85.1883 92.9887 85.4465L92.5214 82.6789C92.5102 82.0691 92.6323 81.1722 93.2104 82.4622C93.7885 83.7522 93.946 87.1009 93.9525 88.614C94.5 87.1432 95.6216 83.0461 95.7276 78.4241C95.947 77.0565 96.45 75.1451 96.7063 78.4411C96.9626 81.737 95.7066 85.9342 95.0465 87.6208C96.1912 86.2147 98.5734 82.9405 98.9447 81.0922C99.316 79.2439 99.9639 76.8757 100.241 75.9227C100.495 75.1216 101.005 74.0159 101.023 76.0015C100.91 76.903 100.471 79.2703 99.6224 81.5284C100.19 80.8089 101.406 79.1494 101.735 78.2669C102.063 77.3844 103.028 75.1545 103.47 74.1499C103.865 73.3404 104.619 72.2302 104.48 74.2653L102.91 78.2219C103.728 77.4959 105.591 76.0152 106.507 75.9005C107.423 75.7857 106.857 76.4399 106.459 76.7813C105.863 77.2935 104.195 78.6622 102.291 80.0399L99.0655 83.5433C100.472 82.7404 103.513 81.1059 104.429 80.9911C105.573 80.8477 105.894 81.1795 104.541 82.0379C103.188 82.8962 101.355 82.9119 98.8883 84.3565C96.9151 85.5122 95.4693 87.8191 94.993 88.828C96.7254 88.0307 100.616 86.3456 102.319 85.9833C103.424 85.5997 105.015 85.2006 102.536 86.6728C101.921 87.0104 100.127 87.8197 97.8728 88.3554C98.6977 88.4567 100.523 88.7343 101.222 89.0338C102.097 89.4081 101.925 89.8949 100.558 89.6754C99.1917 89.4558 97.7997 88.8113 96.6185 89.1827L93.9609 90.0183C92.8143 91.5332 90.2895 95.1337 89.3624 97.4164C89.0427 97.6612 88.3746 97.9215 88.26 97.0054Z" fill="#40D05F"/>
<path d="M62.3741 78.4387C61.5579 76.5547 58.5763 74.4577 57.1876 73.6447C55.0619 73.3083 50.9807 74.3174 51.5759 73.8128C52.1711 73.3081 50.5556 73.3082 47.3246 72.8876C44.7399 72.5511 46.2477 72.1867 47.3246 72.0466C52.7663 72.9885 55.147 72.9998 55.6571 72.8876C55.232 72.7755 54.1097 72.4503 53.0214 72.0466C51.933 71.6429 52.5679 71.5419 53.0214 71.5419C53.3615 71.3401 56.9042 72.8597 58.633 73.6447C58.2249 73.2411 57.7828 72.4111 57.6127 72.0466C56.4224 69.187 53.7015 68.5143 52.3411 68.0095C50.9807 67.5047 51.2358 67.0843 52.3411 67.2526C53.2254 67.3871 54.9202 68.4861 55.6571 69.0188C55.0336 68.2057 53.5485 66.3947 52.5962 65.6545C51.4058 64.7294 51.1508 64.1406 52.7662 64.8135C54.0586 65.3518 55.7988 67.8413 56.5074 69.0188C56.5074 68.2786 55.4871 65.9069 54.9769 64.8135C54.7048 63.3332 55.2036 63.8603 55.4871 64.3089L56.2523 66.1592C56.1162 65.2172 56.1956 64.1407 56.2523 63.7202C56.5073 62.5427 56.8474 62.3745 57.1025 63.7202C57.3576 65.0659 57.1876 67.2526 57.1025 68.5983C57.0345 69.6749 58.3212 72.1868 58.9731 73.3082C58.2249 68.3965 58.8881 66.2153 59.3132 65.7388C59.7893 64.7968 59.9084 65.3463 59.9084 65.7388C59.5683 66.4789 59.3699 68.346 59.3132 69.1871C59.8574 68.3797 60.3335 68.1778 60.5036 68.1778C61.1838 68.0433 60.957 68.3461 60.7586 68.5143C58.2929 69.5235 59.2282 73.3924 59.6533 73.9811C59.9934 74.4521 61.949 76.5323 62.8843 77.5136C63.2924 78.9938 62.7142 78.7471 62.3741 78.4387Z" fill="#40D05F"/>
<path d="M25.0567 29.0711L22.0753 32.063C21.4916 32.6487 21.2561 33.4966 21.454 34.2994C21.7413 35.4645 22.8552 36.23 24.0458 36.0806L25.0496 35.9546C26.0016 35.8351 26.8629 35.3303 27.4325 34.5582L29.1055 32.2904C29.4239 31.8587 29.5957 31.3364 29.5957 30.8001C29.5957 29.4135 28.4717 28.2896 27.0852 28.2896H26.9388C26.2325 28.2896 25.5553 28.5708 25.0567 29.0711Z" fill="#DC143C"/>
<path d="M17.5008 98.7021H18.0615C18.3055 98.7021 18.5479 98.7411 18.7796 98.8176L19.1368 98.9355C20.0812 99.2472 20.8505 99.9425 21.2558 100.851L21.4809 101.355C21.6581 101.752 21.6967 102.197 21.5905 102.618C21.3517 103.566 20.4446 104.188 19.4745 104.069L18.9836 104.008C18.311 103.926 17.7008 103.574 17.2929 103.032L16.1188 101.474C15.8926 101.174 15.7702 100.809 15.7702 100.433C15.7702 99.477 16.545 98.7021 17.5008 98.7021Z" fill="#DC143C"/>
<path d="M110.042 111.575L109.798 111.643C109.638 111.688 109.483 111.751 109.336 111.831L108.494 112.291C107.711 112.719 107.09 113.391 106.726 114.206L106.425 114.88C106.248 115.277 106.21 115.722 106.316 116.143C106.555 117.091 107.462 117.713 108.432 117.594L109.017 117.522C109.635 117.446 110.206 117.151 110.625 116.691L112.159 115.01C112.281 114.876 112.385 114.727 112.468 114.567C113.32 112.938 111.813 111.079 110.042 111.575Z" fill="#DC143C"/>
<path d="M38.8958 18.9043L38.3323 19.5963C37.8968 20.1311 37.7306 20.8432 37.8779 21.5169C38.1442 22.7351 39.3578 23.5174 40.5727 23.2368C40.8858 23.1645 41.1797 23.0257 41.4344 22.8297L42.5486 21.9723C43.0986 21.5491 43.4209 20.8945 43.4209 20.2005C43.4209 18.9658 42.42 17.9648 41.1853 17.9648H40.8722C40.1056 17.9648 39.3798 18.3098 38.8958 18.9043Z" fill="#DC143C"/>
<path d="M123.884 39.5532L124.447 40.2452C124.883 40.78 125.049 41.4921 124.901 42.1659C124.635 43.384 123.421 44.1663 122.207 43.8857C121.893 43.8134 121.6 43.6746 121.345 43.4786L120.231 42.6212C119.681 42.198 119.358 41.5434 119.358 40.8494C119.358 39.6147 120.359 38.6138 121.594 38.6138H121.907C122.674 38.6138 123.399 38.9588 123.884 39.5532Z" fill="#DC143C"/>
<path d="M127.014 55.5302L127.376 55.9751C127.656 56.3189 127.763 56.7766 127.668 57.2098C127.497 57.9928 126.717 58.4957 125.936 58.3154C125.734 58.2689 125.545 58.1796 125.382 58.0537L124.665 57.5025C124.312 57.2304 124.105 56.8096 124.105 56.3635C124.105 55.5697 124.748 54.9263 125.542 54.9263H125.743C126.236 54.9263 126.702 55.1481 127.014 55.5302Z" fill="#DC143C"/>
<path d="M70.4064 0C31.7567 0 0.5 31.2776 0.5 69.9532C0.5 108.629 31.8503 140 70.5 140C109.15 140 140.5 108.629 140.5 69.9532C140.406 31.2776 109.056 0 70.4064 0ZM70.4064 1.68562C79.6711 1.68562 88.5615 3.46488 96.984 7.02341C105.126 10.4883 112.425 15.3579 118.695 21.6321C124.965 27.9064 129.925 35.2107 133.294 43.3579C136.85 51.7859 138.628 60.6823 138.628 69.9532C138.628 79.2241 136.85 88.1204 133.294 96.5485C129.832 104.696 124.965 112 118.695 118.274C112.425 124.548 105.126 129.512 96.984 132.883C88.5615 136.441 79.6711 138.221 70.4064 138.221C61.1417 138.221 52.2513 136.441 43.8289 132.883C35.6872 129.418 28.3877 124.548 22.1176 118.274C15.8476 112 10.8877 104.696 7.51872 96.5485C3.96257 88.1204 2.18449 79.2241 2.18449 69.9532C2.18449 60.6823 3.96257 51.7859 7.51872 43.3579C10.9813 35.2107 15.8476 27.9064 22.1176 21.6321C28.3877 15.3579 35.6872 10.3946 43.8289 7.02341C52.2513 3.46488 61.2353 1.68562 70.4064 1.68562Z" fill="#1A1A1A"/>
<path d="M70.3966 3.30371C33.6396 3.30371 3.80371 33.1396 3.80371 69.8966C3.80371 106.654 33.6396 136.49 70.3966 136.49C107.154 136.49 136.99 106.654 136.99 69.8966C136.99 33.1396 107.154 3.30371 70.3966 3.30371ZM70.3966 3.95842C79.2819 3.95842 87.8866 5.73547 96.0237 9.10253C103.88 12.3761 110.895 17.1461 116.974 23.2255C123.054 29.3049 127.73 36.3196 131.097 44.176C134.558 52.3131 136.241 60.9178 136.241 69.8031C136.241 78.6884 134.464 87.2931 131.097 95.4301C127.824 103.287 123.054 110.301 116.974 116.381C110.895 122.46 103.88 127.23 96.0237 130.504C87.8866 133.964 79.2819 135.648 70.3966 135.648C61.5113 135.648 52.9066 133.871 44.7696 130.504C36.9131 127.23 29.8984 122.46 23.819 116.381C17.7396 110.301 12.9696 103.287 9.69606 95.4301C6.23547 87.2931 4.55195 78.6884 4.55195 69.8031C4.55195 60.9178 6.329 52.3131 9.69606 44.176C13.0631 36.4131 17.8331 29.3049 23.819 23.319C29.8984 17.2396 36.9131 12.4696 44.7696 9.19606C52.9066 5.73547 61.5113 3.95842 70.3966 3.95842Z" fill="#1A1A1A"/>
<path d="M71.9626 94.9956C75.725 83.081 65.9704 83.8184 60.507 85.7306C48.3177 90.9708 51.5443 97.3094 54.6813 99.8236C61.8473 105.147 68.4228 100.092 71.2502 96.3922C71.568 95.9764 71.805 95.4946 71.9626 94.9956Z" fill="#A00322"/>
<path d="M63.475 88.087L51.2499 89.2503C49.2748 88.9898 52.4641 92.8123 52.8987 94.7565C52.9807 95.1233 53.0357 95.5165 53.0498 95.9308C53.1147 97.8316 54.1527 98.1927 54.6637 98.1357C56.4055 98.1312 60.6002 98.0405 63.4436 97.7137C66.2871 97.3869 64.6493 91.1597 63.475 88.087Z" fill="#922A14"/>
<path d="M67.1074 83.4576C66.3706 85.1441 64.1967 87.3777 63.2018 88.2838C64.1567 90.6548 64.2479 95.3221 64.1742 97.3594C65.329 97.4109 68.3943 94.4876 69.7826 93.0196C70.6951 92.0397 70.495 90.472 69.894 89.5542C69.4131 88.8199 68.9574 87.1154 68.7897 86.355C68.6282 84.5694 67.8135 84.1857 67.1074 83.4576Z" fill="#741D0F"/>
<path d="M52.0367 90.1937C52.6127 90.2813 59.077 89.1787 62.2372 88.6164C62.9785 88.5242 63.3694 88.3279 63.4721 88.2412C64.8117 87.2469 66.3479 84.8787 66.9485 83.8189C67.2095 83.422 67.0921 83.4113 66.8416 83.3444C66.6159 83.2177 65.8424 83.1948 65.4839 83.1992C63.6779 83.5669 59.731 83.4971 58.7062 83.4928C57.8864 83.4894 56.8068 84.0291 56.3695 84.2994C55.6788 84.8788 53.8277 86.4554 51.9487 88.127C49.6 90.2164 51.3167 90.0842 52.0367 90.1937Z" fill="#BF532C"/>
<path d="M68.6244 91.9198C68.4091 92.9654 67.8472 94.4194 67.5163 95.183C67.5216 95.1982 67.6249 95.1353 67.9962 94.7616C68.3675 94.3879 68.9341 92.1533 69.1709 91.0826C69.0541 90.5129 68.7417 91.3502 68.6244 91.9198Z" fill="#500906"/>
<path d="M61.2254 86.511L59.1395 88.8677C58.468 90.1634 59.4635 95.4392 60.0452 97.9152C59.2605 98.1452 58.4978 97.989 58.2146 97.8822C57.7918 93.3634 57.8155 90.9615 57.8802 90.3254C57.8535 89.7208 58.1819 89.113 58.3494 88.8847C58.9747 88.2256 60.3548 86.8217 60.8733 86.4791C61.3917 86.1364 61.324 86.3576 61.2254 86.511Z" fill="#741C0F"/>
<path d="M60.0671 84.9672C58.4402 86.1834 56.4643 88.5294 55.6797 89.5504C55.4331 89.7583 55.3178 90.2039 55.291 90.4007C55.3946 91.5243 55.5685 93.9058 55.4354 94.4427C55.3024 94.9797 55.1558 94.6756 55.0991 94.4565L54.6271 90.7833C54.4434 89.9874 54.7536 89.3928 54.9316 89.1949C54.9596 89.1443 55.6322 88.4246 55.965 88.071C57.0065 87.0807 59.2185 85.0452 59.7342 84.8263C60.2499 84.6074 60.171 84.829 60.0671 84.9672Z" fill="#751C0F"/>
<path d="M61.4744 97.1147C61.4604 97.2389 61.459 97.4985 61.5655 97.5436C61.6752 97.59 61.788 97.7418 61.9039 97.7142C62.0052 97.69 62.1066 97.6637 62.1682 97.6425C62.2901 97.6004 62.289 97.4985 62.2733 97.4528C62.1975 97.2334 62.2485 96.0633 62.2834 95.5056C62.4847 94.7712 62.1395 94.43 62.0553 93.6919C61.9879 93.1014 61.8236 91.5384 61.7499 90.8307C61.6973 90.6784 61.5879 90.2626 61.571 89.8183C61.5541 89.3741 61.4413 89.6074 61.387 89.7795C61.1321 90.3586 61.1899 91.0751 61.2507 91.361C61.6604 93.4702 61.5705 96.0756 61.4744 97.1147Z" fill="#71180A"/>
<path d="M54.6266 96.0518C54.5946 96.8813 54.7058 97.7635 54.7654 98.101C54.905 98.121 55.2044 98.1541 55.2857 98.126C55.1567 97.8841 54.9829 96.6449 54.9122 96.0556C54.5785 95.3524 54.5828 95.7601 54.6266 96.0518Z" fill="#76190C"/>
<path d="M67.2367 90.4204C66.3742 94.1144 65.0037 96.0844 64.4263 96.6076C63.9407 97.3843 64.7707 97.2219 65.4284 96.8755C66.231 95.3027 67.8067 91.9729 67.6889 91.2362C67.571 90.4994 67.95 89.083 68.1543 88.467C68.7011 87.2013 68.6897 86.1336 68.5297 85.4175C68.4164 84.9104 67.8246 84.7591 67.9574 85.2614C68.1061 85.8239 67.5389 88.9351 67.2367 90.4204Z" fill="#530B06"/>
</svg>
