<svg width="20" height="20" viewBox="0 0 20 20" fill="none" xmlns="http://www.w3.org/2000/svg">
<g clip-path="url(#clip0_2568_3226)">
<path d="M17.4219 3.28174C17.4992 3.34482 17.5536 3.40168 17.6172 3.47705C17.6387 3.49946 17.6602 3.52187 17.6823 3.54495C18.1086 3.9976 18.4446 4.53938 18.75 5.07861C18.7712 5.11538 18.7712 5.11538 18.7928 5.15289C19.3749 6.16983 19.7518 7.31904 19.9219 8.47705C19.9288 8.52411 19.9357 8.57116 19.9429 8.61964C20.0053 9.07501 20.014 9.52673 20.0122 9.98584C20.0121 10.0427 20.0121 10.0427 20.012 10.1006C20.0102 10.6613 19.9905 11.2067 19.8828 11.7583C19.8765 11.7933 19.8702 11.8284 19.8638 11.8645C19.5277 13.7217 18.6495 15.4016 17.3824 16.7891C17.3205 16.8579 17.262 16.9275 17.2046 17C17.1055 17.1143 17.0007 17.2088 16.8857 17.3065C16.7884 17.3906 16.6953 17.4784 16.6016 17.5664C15.2092 18.8307 13.3774 19.6501 11.5234 19.9224C11.4764 19.9293 11.4293 19.9362 11.3808 19.9434C10.9255 20.0058 10.4738 20.0145 10.0146 20.0127C9.97672 20.0126 9.9388 20.0125 9.89972 20.0124C9.33966 20.0104 8.79269 19.9952 8.24219 19.8833C8.20273 19.8755 8.16327 19.8678 8.12262 19.8598C6.40521 19.5142 4.8548 18.7864 3.51562 17.6567C3.48038 17.6293 3.44513 17.602 3.40881 17.5737C3.30015 17.4838 3.28455 17.4521 3.26904 17.3125C3.28462 17.1536 3.31585 17.0961 3.4375 16.9927C3.5763 16.9555 3.61837 16.9487 3.75 16.9927C3.86859 17.0762 3.97546 17.1702 4.08356 17.2666C5.67691 18.6744 7.89173 19.3575 9.98779 19.3486C10.042 19.3485 10.042 19.3485 10.0973 19.3484C10.6325 19.3464 11.1544 19.331 11.6797 19.2192C11.718 19.2113 11.7563 19.2033 11.7958 19.1951C14.3272 18.6563 16.4857 17.2159 17.9017 15.0407C18.5553 14.0111 18.9867 12.8753 19.2188 11.6802C19.2252 11.6488 19.2317 11.6175 19.2383 11.5852C19.4587 10.4796 19.4142 9.22391 19.1797 8.12549C19.1711 8.08497 19.1625 8.04444 19.1537 8.00269C18.8245 6.49424 18.129 5.09469 17.1191 3.92627C17.026 3.81071 16.9711 3.72926 16.9604 3.57959C16.9922 3.43799 16.9922 3.43799 17.0752 3.34033C17.2083 3.27088 17.274 3.25402 17.4219 3.28174Z" fill="#DC133B"/>
<path d="M11.7579 0.117184C11.7931 0.124095 11.8283 0.131006 11.8646 0.138127C12.1175 0.188863 12.3676 0.247721 12.6172 0.312496C12.6659 0.325091 12.6659 0.325091 12.7156 0.33794C14.0973 0.70439 15.3469 1.39791 16.4454 2.30468C16.4777 2.33073 16.4777 2.33073 16.5107 2.35731C16.7125 2.52135 16.7125 2.52135 16.731 2.68798C16.7154 2.84685 16.6842 2.90441 16.5626 3.00781C16.4112 3.02855 16.3092 3.04078 16.1742 2.96554C16.096 2.9055 16.0229 2.84209 15.9498 2.77588C15.8948 2.72879 15.8398 2.68185 15.7847 2.63504C15.7577 2.61191 15.7307 2.58877 15.7028 2.56494C15.5183 2.41089 15.3187 2.27929 15.1172 2.14843C15.0761 2.12144 15.035 2.09445 14.9926 2.06665C12.888 0.726137 10.3178 0.336395 7.89557 0.866696C6.53421 1.18279 5.26947 1.77991 4.17975 2.65625C4.15872 2.67281 4.1377 2.68937 4.11604 2.70643C3.5098 3.18559 2.95059 3.7468 2.50006 4.375C2.46985 4.41654 2.43963 4.45808 2.40851 4.50088C2.05105 5.00462 1.74498 5.53403 1.48443 6.09375C1.47139 6.12172 1.45835 6.14969 1.44491 6.17851C0.967513 7.21836 0.662523 8.39881 0.656187 9.5465C0.655912 9.58005 0.655636 9.61359 0.655352 9.64815C0.644746 10.6698 0.644746 10.6698 0.781309 11.6797C0.789278 11.718 0.797246 11.7563 0.805456 11.7958C0.867004 12.085 0.937754 12.3711 1.01568 12.6562C1.02985 12.7081 1.02985 12.7081 1.04429 12.761C1.39348 13.9961 2.0846 15.2494 2.96325 16.1865C3.01817 16.2647 3.02863 16.3186 3.03473 16.4136C3.00787 16.5625 3.00787 16.5625 2.92486 16.6602C2.79174 16.7296 2.72602 16.7465 2.57818 16.7187C2.50086 16.6557 2.44642 16.5988 2.38287 16.5234C2.36137 16.501 2.33987 16.4786 2.31772 16.4555C1.89144 16.0029 1.55541 15.4611 1.25006 14.9219C1.23593 14.8974 1.22181 14.8729 1.20726 14.8476C0.625133 13.8307 0.248223 12.6814 0.0781844 11.5234C0.0712859 11.4765 0.0643874 11.4295 0.0572798 11.3811C-0.00537593 10.9234 -0.0155513 10.4688 -0.0145891 10.0073C-0.0145678 9.96881 -0.0145466 9.9303 -0.0145247 9.89062C-0.00821667 7.39434 0.932997 5.01751 2.63754 3.19244C2.69945 3.12438 2.75939 3.05444 2.81653 2.98233C2.88339 2.89965 2.94873 2.83426 3.02984 2.76611C3.15816 2.65674 3.28236 2.54402 3.40582 2.4292C4.74376 1.21423 6.47318 0.434643 8.24225 0.117184C8.27472 0.110846 8.30719 0.104507 8.34065 0.0979769C9.41945 -0.108087 10.6819 -0.0999086 11.7579 0.117184Z" fill="#DC133B"/>
<path d="M5.46978 11.2256C5.62399 11.2577 5.69425 11.3203 5.78228 11.4453C5.81907 11.5107 5.85478 11.5767 5.8897 11.6431C6.44959 12.7059 7.46077 13.4641 8.58699 13.8405C9.81727 14.2113 11.1238 14.0739 12.2569 13.4839C13.0855 13.0341 13.7209 12.3661 14.1672 11.5433C14.1821 11.5164 14.1969 11.4895 14.2123 11.4618C14.2251 11.4379 14.2379 11.4139 14.2511 11.3893C14.3107 11.3114 14.3626 11.284 14.4542 11.25C14.5851 11.2569 14.6875 11.2671 14.8033 11.3306C14.8721 11.4561 14.8693 11.5815 14.8448 11.7188C14.8068 11.7944 14.8068 11.7944 14.7618 11.8652C14.7255 11.9281 14.7255 11.9281 14.6885 11.9922C14.7341 12.1459 14.8516 12.2333 14.9668 12.3389C15.4495 12.8039 15.7013 13.4479 15.7164 14.1162C15.7096 14.8325 15.4246 15.4607 14.9281 15.9738C14.4164 16.4515 13.7684 16.6572 13.0781 16.6486C12.7122 16.6289 12.3901 16.5399 12.0616 16.3818C12.0372 16.3704 12.0127 16.3589 11.9876 16.347C11.6354 16.1662 11.3732 15.8681 11.1111 15.5786C10.5991 14.9516 10.5991 14.9516 9.89689 14.6397C9.765 14.6447 9.63632 14.6577 9.50588 14.6778C9.3569 14.6937 9.21923 14.668 9.07329 14.6387C9.04635 14.6335 9.01941 14.6282 8.99166 14.6229C8.91114 14.6065 8.83109 14.5888 8.75103 14.5703C8.72469 14.5643 8.69836 14.5583 8.67122 14.5521C7.28811 14.2218 6.13754 13.313 5.39058 12.1207C5.36515 12.0783 5.33973 12.0359 5.31353 11.9922C5.29907 11.9684 5.28462 11.9447 5.26972 11.9202C5.16886 11.7506 5.12415 11.6441 5.15728 11.4453C5.25282 11.3132 5.30935 11.259 5.46978 11.2256ZM14.2588 12.5781C14.2049 12.6424 14.1522 12.7077 14.1001 12.7734C13.8317 13.1042 13.5414 13.373 13.2042 13.6328C13.2647 13.7847 13.362 13.8668 13.4825 13.9746C13.7007 14.1878 13.7007 14.1878 13.7046 14.353C13.6729 14.4922 13.6729 14.4922 13.6338 14.5703C13.5041 14.6352 13.3821 14.641 13.2432 14.6094C13.1226 14.5267 13.0286 14.4244 12.9307 14.3164C12.9042 14.2885 12.8776 14.2605 12.8503 14.2317C12.7852 14.1629 12.7209 14.0936 12.6573 14.0234C12.5045 14.071 12.3607 14.1283 12.2157 14.1958C11.8523 14.364 11.4825 14.4729 11.0948 14.5703C11.0948 14.7102 11.1335 14.7409 11.2277 14.8377C11.247 14.8569 11.2663 14.876 11.2861 14.8958C11.306 14.9159 11.3259 14.936 11.3464 14.9567C11.3887 14.9993 11.4312 15.0417 11.4739 15.084C11.538 15.1478 11.6014 15.2123 11.6647 15.2769C12.0854 15.7005 12.5498 16.0142 13.1675 16.0254C13.7108 16.0188 14.1706 15.8157 14.5613 15.4446C14.9231 15.0627 15.0959 14.5797 15.0872 14.0559C15.0421 13.438 14.7611 12.9792 14.2979 12.5781C14.285 12.5781 14.2721 12.5781 14.2588 12.5781Z" fill="#DC133B"/>
<path d="M14.5899 7.5398C14.9594 7.83033 14.9594 7.83033 15.027 8.05524C15.037 8.19803 15.0099 8.27091 14.918 8.37903C14.7849 8.44848 14.7192 8.46534 14.5713 8.43762C14.4786 8.35462 14.4786 8.35462 14.376 8.24231C14.0779 7.98037 13.7556 7.81844 13.3522 7.83719C12.9929 7.88499 12.7617 8.02932 12.5047 8.28046C12.4011 8.38056 12.3362 8.43438 12.191 8.44983C12.0536 8.43581 12.0042 8.42608 11.9151 8.32044C11.874 8.19272 11.8557 8.13535 11.876 8.00794C11.9484 7.8831 12.0431 7.79193 12.1495 7.69544C12.1759 7.67117 12.2023 7.6469 12.2296 7.62189C12.9134 7.04431 13.8629 7.04087 14.5899 7.5398Z" fill="#DC133B"/>
<path d="M7.642 7.50889C7.81942 7.64291 8.02407 7.80657 8.12494 8.00831C8.14604 8.16662 8.1383 8.22462 8.04193 8.35499C7.92963 8.438 7.92963 8.438 7.81976 8.4673C7.65916 8.42951 7.58476 8.3521 7.46637 8.24071C7.15976 7.96151 6.85573 7.83072 6.43884 7.83986C6.07159 7.88033 5.76677 8.08735 5.5224 8.35499C5.42962 8.438 5.42962 8.438 5.31244 8.45998C5.16234 8.43183 5.09925 8.39859 4.99994 8.28175C4.96727 8.11843 4.96222 8.03231 5.04785 7.88914C5.32486 7.55109 5.67943 7.35015 6.09369 7.22706C6.11801 7.21956 6.14233 7.21206 6.16739 7.20433C6.68361 7.10223 7.2035 7.22828 7.642 7.50889Z" fill="#DC133B"/>
</g>
<defs>
<clipPath id="clip0_2568_3226">
<rect width="20" height="20" fill="white"/>
</clipPath>
</defs>
</svg>
