<svg width="20" height="20" viewBox="0 0 20 20" fill="none" xmlns="http://www.w3.org/2000/svg">
<g clip-path="url(#clip0_1621_5702)">
<path d="M13.5947 2.8912C13.6402 2.92347 13.6402 2.92347 13.6867 2.95639C14.0422 3.20917 14.3929 3.4674 14.7367 3.73598C14.8142 3.79632 14.892 3.85623 14.9698 3.91613C15.3267 4.19148 15.6785 4.47238 16.0255 4.7601C16.0625 4.79058 16.0625 4.79058 16.1002 4.82168C16.1493 4.86343 16.1974 4.9064 16.2445 4.95043C16.3879 5.08297 16.4723 5.14493 16.6757 5.14218C16.9738 5.15408 17.1908 5.23419 17.4155 5.4327C17.7423 5.80542 17.7197 6.26243 17.7144 6.73025C17.7133 6.84143 17.7136 6.95253 17.7141 7.06371C17.7139 7.13538 17.7136 7.20705 17.7132 7.27871C17.7133 7.31144 17.7134 7.34416 17.7135 7.37788C17.7089 7.67129 17.653 7.9586 17.4472 8.17928C17.4235 8.20507 17.3998 8.23085 17.3753 8.25741C17.3056 8.32089 17.3056 8.32089 17.1908 8.3746C17.1643 8.39554 17.1377 8.41649 17.1103 8.43807C17.0788 8.70633 17.1192 8.9898 17.1417 9.25793C17.1485 9.34188 17.1552 9.42582 17.1619 9.50978C17.1672 9.57541 17.1672 9.57541 17.1726 9.64236C17.3003 11.2346 17.3595 12.8174 17.3447 14.4146C17.3803 14.426 17.416 14.4374 17.4527 14.4491C18.5773 14.8378 19.2952 15.833 19.7979 16.8543C19.9582 17.1949 20.0948 17.5191 19.9737 17.8981C19.8879 18.0665 19.7702 18.1499 19.6103 18.2428C19.4743 18.2823 19.4743 18.2823 19.3295 18.3087C19.2822 18.3177 19.235 18.3267 19.1862 18.336C18.2758 18.4811 17.2792 18.4709 16.4088 18.1432C16.1727 18.0622 15.9813 18.1072 15.7431 18.1646C15.6739 18.1809 15.6739 18.1809 15.6032 18.1976C15.4996 18.2223 15.3961 18.2473 15.2927 18.2727C14.6139 18.439 13.9354 18.5737 13.2431 18.6724C13.2013 18.6784 13.1595 18.6844 13.1164 18.6906C10.4272 19.0628 7.52699 18.9839 4.8886 18.3131C4.84577 18.3022 4.84577 18.3022 4.80207 18.2911C4.66447 18.2559 4.52718 18.2198 4.39017 18.1823C4.3411 18.1693 4.29203 18.1562 4.24148 18.1428C4.1985 18.131 4.15552 18.1192 4.11124 18.107C3.91658 18.0753 3.73865 18.1119 3.55193 18.1694C3.51024 18.1818 3.51024 18.1818 3.46771 18.1945C3.4387 18.2032 3.4097 18.2119 3.37982 18.2208C2.57439 18.4492 1.74212 18.4519 0.913995 18.3502C0.877715 18.3459 0.841435 18.3417 0.804056 18.3373C0.529838 18.2989 0.293186 18.23 0.101007 18.023C-0.0373918 17.8127 -0.0430029 17.5901 0.000909127 17.3443C0.0776832 17.0988 0.197212 16.8699 0.313409 16.6412C0.34702 16.5726 0.34702 16.5726 0.381311 16.5026C0.859436 15.5669 1.60341 14.8235 2.57903 14.4146C2.60482 14.4146 2.6306 14.4146 2.65716 14.4146C2.65675 14.3694 2.65634 14.3242 2.65592 14.2776C2.64284 12.6769 2.7081 11.0912 2.83992 9.49587C2.84332 9.45427 2.84672 9.41266 2.85022 9.3698C2.85657 9.29245 2.86305 9.2151 2.86971 9.13777C2.88408 8.9628 2.89521 8.78795 2.89991 8.61243C2.90081 8.58097 2.90172 8.5495 2.90265 8.51708C2.89865 8.42456 2.89865 8.42456 2.789 8.35262C2.74549 8.32926 2.70198 8.3059 2.65716 8.28182C2.44048 8.08645 2.32959 7.85441 2.29448 7.56524C2.28963 7.46954 2.28832 7.37454 2.28866 7.27871C2.28845 7.24381 2.28825 7.20891 2.28804 7.17296C2.28779 7.09962 2.28784 7.02629 2.28817 6.95295C2.28851 6.84194 2.28738 6.731 2.28614 6.61999C2.28443 6.18414 2.28387 5.77763 2.58636 5.4327C2.80974 5.23535 3.02192 5.15369 3.31878 5.1495C3.56671 5.13543 3.67088 5.04226 3.8417 4.86981C3.95707 4.75545 4.07888 4.65751 4.20745 4.55868C4.25472 4.52203 4.30197 4.48536 4.34921 4.44866C4.38494 4.42093 4.38494 4.42093 4.4214 4.39264C4.51527 4.31915 4.60791 4.24418 4.70057 4.16917C7.90225 1.58119 10.0057 0.348566 13.5947 2.8912ZM7.11028 3.28182C7.06978 3.30958 7.06978 3.30958 7.02846 3.3379C6.58075 3.64595 6.14844 3.97336 5.71788 4.30483C5.63743 4.36671 5.55681 4.42836 5.47607 4.48986C5.07486 4.7947 5.07486 4.7947 4.68841 5.11776C4.68841 5.13065 4.68841 5.14354 4.68841 5.15682C8.20755 5.15682 11.7267 5.15682 15.3525 5.15682C15.2278 5.03216 15.1028 4.92252 14.9643 4.81503C14.9409 4.79679 14.9175 4.77856 14.8934 4.75977C14.8122 4.69661 14.7308 4.63371 14.6493 4.57089C14.6182 4.54685 14.587 4.52282 14.555 4.49806C11.8167 2.3898 10.1761 1.17506 7.11028 3.28182ZM3.07425 5.97389C3.00096 6.1063 3.00096 6.1063 2.98469 6.25051C2.98433 6.2788 2.98396 6.30708 2.98359 6.33623C2.98455 6.38092 2.98455 6.38092 2.98553 6.42651C2.98553 6.45779 2.98553 6.48908 2.98552 6.52131C2.98573 6.58714 2.98642 6.65296 2.98755 6.71878C2.98919 6.81927 2.98915 6.91965 2.98889 7.02015C2.9893 7.08431 2.9898 7.14848 2.99041 7.21264C2.99042 7.24251 2.99043 7.27238 2.99044 7.30316C2.99433 7.47944 3.01585 7.59545 3.12591 7.73495C3.26441 7.82728 3.32226 7.82268 3.48638 7.82243C3.56167 7.82265 3.56167 7.82265 3.63848 7.82287C3.67871 7.82274 3.67871 7.82274 3.71974 7.8226C3.80382 7.82238 3.88789 7.82274 3.97197 7.82327C4.211 7.82472 4.45002 7.82545 4.68906 7.825C4.83535 7.82478 4.9816 7.82549 5.12789 7.8268C5.18355 7.82711 5.23921 7.82706 5.29487 7.82664C5.37283 7.82608 5.4508 7.82682 5.52877 7.82762C5.57309 7.82764 5.61741 7.82767 5.66307 7.82769C5.82031 7.85997 5.87931 7.9229 5.97747 8.04745C5.99292 8.19677 5.98578 8.29597 5.93841 8.43807C5.8184 8.47808 5.73294 8.48318 5.60711 8.48516C5.54143 8.48633 5.54143 8.48633 5.47443 8.48752C5.40356 8.4885 5.40356 8.4885 5.33126 8.4895C5.28287 8.49031 5.23449 8.49112 5.18463 8.49196C5.05613 8.49408 4.92763 8.49604 4.79913 8.49793C4.66795 8.49989 4.53677 8.50206 4.40559 8.50422C4.1483 8.50841 3.89101 8.51238 3.63372 8.5162C3.54006 9.57015 3.45079 10.6233 3.39935 11.6803C3.39729 11.7209 3.39524 11.7615 3.39313 11.8033C3.37262 12.2199 3.36042 12.6361 3.35616 13.0531C3.35431 13.2309 3.35193 13.4087 3.34959 13.5865C3.34858 13.6759 3.34787 13.7653 3.34746 13.8547C3.34687 13.9814 3.34534 14.108 3.34365 14.2346C3.34373 14.2729 3.3438 14.3112 3.34388 14.3506C3.33976 14.5793 3.31461 14.7077 3.16497 14.8834C3.10195 14.938 3.10195 14.938 3.03558 14.9762C3.00864 14.9919 2.9817 15.0077 2.95394 15.0239C2.85031 15.0799 2.74572 15.1338 2.64106 15.1878C2.35966 15.334 2.11234 15.4895 1.87591 15.7037C1.84393 15.732 1.81196 15.7604 1.77902 15.7896C1.28221 16.2556 0.952998 16.8721 0.704034 17.5006C0.704034 17.5264 0.704034 17.5521 0.704034 17.5787C0.76177 17.5911 0.819562 17.6033 0.877374 17.6153C0.925638 17.6255 0.925638 17.6255 0.974878 17.6359C2.06228 17.8257 3.33623 17.7107 4.27148 17.0797C4.57233 16.8593 4.85357 16.586 5.07903 16.2896C5.07903 16.2639 5.07903 16.2381 5.07903 16.2115C5.14076 16.2017 5.20264 16.193 5.26458 16.1847C5.29902 16.1797 5.33347 16.1747 5.36895 16.1695C5.49379 16.1731 5.53817 16.2025 5.62591 16.2896C5.67583 16.4519 5.67659 16.5351 5.61126 16.6925C5.39743 17.0202 5.10224 17.2886 4.8056 17.5396C5.74954 18.0615 7.38116 18.0621 8.43841 18.1256C8.47306 18.1278 8.50771 18.13 8.54341 18.1322C10.7751 18.2691 13.02 18.094 15.1962 17.5787C15.0971 17.479 14.9975 17.3801 14.8961 17.2827C14.356 16.7587 14.356 16.7587 14.3262 16.515C14.3347 16.391 14.3616 16.3066 14.4418 16.2115C14.5829 16.1505 14.7047 16.1656 14.8544 16.1822C14.9228 16.2115 14.9228 16.2115 14.9565 16.28C15.2724 16.9043 16.0163 17.2984 16.6537 17.5128C17.4614 17.7358 18.488 17.8486 19.2978 17.5787C19.2218 17.3262 19.1237 17.096 18.9999 16.8634C18.9827 16.831 18.9655 16.7986 18.9477 16.7653C18.5084 15.957 17.8857 15.4294 17.0702 15.0328C16.8864 14.9403 16.7727 14.8332 16.6806 14.649C16.6753 14.5277 16.6724 14.4072 16.671 14.2859C16.6698 14.2082 16.6685 14.1306 16.6673 14.053C16.6667 14.0118 16.6661 13.9705 16.6655 13.928C16.641 12.3169 16.557 10.7149 16.4247 9.10912C16.4222 9.07932 16.4198 9.04952 16.4173 9.01882C16.4078 8.91398 16.3975 8.80925 16.387 8.70451C16.3835 8.66927 16.3799 8.63402 16.3763 8.59771C16.3736 8.57081 16.3709 8.54391 16.3681 8.5162C16.3194 8.51618 16.2706 8.51616 16.2204 8.51613C15.0637 8.51559 13.907 8.51403 12.7503 8.51124C12.608 8.5109 12.4657 8.51057 12.3233 8.51024C12.295 8.51017 12.2667 8.51011 12.2375 8.51004C11.7785 8.509 11.3195 8.50864 10.8606 8.50854C10.3897 8.50842 9.91885 8.50756 9.448 8.50602C9.18349 8.50518 8.91899 8.50467 8.65447 8.50502C8.40564 8.50531 8.15682 8.5047 7.90798 8.50338C7.81654 8.50306 7.7251 8.50307 7.63365 8.50344C7.509 8.50389 7.38441 8.50315 7.25976 8.50211C7.20521 8.50273 7.20521 8.50273 7.14956 8.50337C6.97402 8.50062 6.89919 8.49494 6.75579 8.38524C6.6806 8.28182 6.6806 8.28182 6.65618 8.16464C6.69013 8.00171 6.74336 7.95275 6.87591 7.85214C7.00832 7.82356 7.13824 7.82634 7.27327 7.82822C7.31366 7.828 7.35404 7.82779 7.39565 7.82756C7.53118 7.82707 7.66667 7.82797 7.80219 7.82886C7.89927 7.82878 7.99635 7.82862 8.09343 7.82838C8.30257 7.82803 8.5117 7.82827 8.72085 7.82903C9.02344 7.8301 9.32603 7.82995 9.62862 7.82947C10.1199 7.82872 10.6111 7.82871 11.1023 7.8293C11.1317 7.82933 11.1611 7.82936 11.1914 7.8294C11.3105 7.82954 11.4296 7.82969 11.5487 7.82984C11.8766 7.83025 12.2044 7.83057 12.5323 7.83082C12.5617 7.83084 12.591 7.83087 12.6213 7.83089C13.1107 7.83125 13.6001 7.831 14.0895 7.83034C14.3913 7.82997 14.6932 7.83017 14.9951 7.83111C15.2263 7.8318 15.4575 7.83171 15.6887 7.83133C15.7836 7.83131 15.8785 7.83156 15.9734 7.83209C16.1027 7.83279 16.232 7.83253 16.3614 7.83203C16.3991 7.83247 16.4369 7.83291 16.4758 7.83335C16.6414 7.8318 16.7343 7.82774 16.8788 7.74109C17.0638 7.5339 17.0049 7.19038 17.0068 6.92617C17.0074 6.85846 17.0085 6.79076 17.01 6.72307C17.0121 6.62512 17.013 6.52723 17.0135 6.42925C17.0149 6.3842 17.0149 6.3842 17.0162 6.33823C17.0161 6.30969 17.016 6.28115 17.0159 6.25175C17.0164 6.21454 17.0164 6.21454 17.0168 6.17659C16.9762 6.03587 16.9179 5.94147 16.7978 5.85995C16.6194 5.82356 16.4408 5.8283 16.2595 5.83019C16.2034 5.82992 16.1473 5.82954 16.0912 5.82908C15.9371 5.8281 15.7829 5.82858 15.6287 5.82931C15.4625 5.82984 15.2962 5.82902 15.1299 5.82838C14.8042 5.82733 14.4785 5.82756 14.1528 5.82824C13.8881 5.82877 13.6234 5.82884 13.3588 5.82859C13.3211 5.82855 13.2835 5.82851 13.2447 5.82848C13.1682 5.8284 13.0917 5.82833 13.0153 5.82825C12.2979 5.82758 11.5806 5.82835 10.8632 5.82961C10.2474 5.83066 9.63168 5.83047 9.01592 5.82939C8.30115 5.82814 7.5864 5.82764 6.87163 5.82836C6.79544 5.82844 6.71925 5.82851 6.64306 5.82859C6.60557 5.82862 6.56808 5.82866 6.52945 5.8287C6.26504 5.8289 6.00063 5.82856 5.73622 5.828C5.41407 5.82735 5.09192 5.82752 4.76977 5.82877C4.60534 5.82939 4.44094 5.82963 4.27651 5.82886C4.12605 5.82816 3.97563 5.82854 3.82517 5.82979C3.77068 5.83005 3.71619 5.82992 3.6617 5.82935C3.3356 5.81215 3.3356 5.81215 3.07425 5.97389Z" fill="#DC143C"/>
<path d="M6.16263 10.0269C6.44209 10.2273 6.60904 10.4839 6.6802 10.8203C6.70391 10.9831 6.69832 11.1001 6.61673 11.2476C6.50186 11.3473 6.44142 11.3672 6.28958 11.3672C6.16507 11.333 6.16507 11.333 6.0552 11.25C6.01509 11.1631 5.98874 11.0772 5.96274 10.9851C5.91601 10.8213 5.86031 10.7295 5.71829 10.6348C5.46186 10.5398 5.2441 10.5144 4.98983 10.6273C4.89128 10.681 4.83058 10.7275 4.76614 10.8203C4.7252 10.9705 4.71168 11.0561 4.77102 11.2012C4.95012 11.4161 5.1558 11.4302 5.418 11.46C5.86037 11.5197 6.16659 11.6185 6.45773 11.9745C6.64444 12.2447 6.72969 12.5241 6.6802 12.8516C6.5875 13.2125 6.36587 13.5045 6.0552 13.7097C5.67649 13.905 5.26703 13.9147 4.86136 13.811C4.48811 13.685 4.23455 13.435 4.05676 13.0876C3.98367 12.9098 3.95829 12.7306 3.98489 12.5391C4.04593 12.4243 4.04593 12.4243 4.14114 12.3438C4.29541 12.2989 4.37667 12.2879 4.52444 12.3535C4.65334 12.4566 4.68586 12.5279 4.71731 12.6904C4.75204 12.8347 4.8046 12.9196 4.92895 13.0089C5.14348 13.1228 5.35942 13.1509 5.59195 13.0797C5.73698 13.0142 5.86579 12.9179 5.93802 12.7735C5.95378 12.6316 5.94941 12.5587 5.87698 12.4341C5.67352 12.2411 5.45349 12.2127 5.18606 12.1948C4.82481 12.1608 4.53264 12.0552 4.2803 11.7822C4.05792 11.4924 3.9437 11.1864 3.98489 10.8203C4.08875 10.45 4.26407 10.1747 4.59265 9.97224C5.09327 9.70791 5.68169 9.7327 6.16263 10.0269Z" fill="#DC143C"/>
<path d="M8.7873 9.81444C8.92561 9.86402 8.99503 9.98034 9.05974 10.1089C9.09626 10.1924 9.13049 10.2766 9.16408 10.3614C9.17706 10.3933 9.19003 10.4253 9.2034 10.4583C9.24602 10.5635 9.28814 10.669 9.33021 10.7745C9.35975 10.848 9.3893 10.9215 9.41887 10.995C9.48069 11.149 9.54225 11.303 9.60365 11.457C9.68226 11.6542 9.7616 11.8511 9.84115 12.048C9.90233 12.1996 9.96308 12.3515 10.0237 12.5034C10.0528 12.5761 10.082 12.6487 10.1114 12.7212C10.1524 12.8227 10.1928 12.9245 10.2331 13.0263C10.2453 13.0561 10.2575 13.0858 10.27 13.1165C10.3395 13.2943 10.3704 13.4384 10.3525 13.6325C10.2915 13.7448 10.2915 13.7448 10.1963 13.8278C10.0498 13.8704 9.96239 13.8807 9.81788 13.8302C9.5776 13.6159 9.47857 13.2262 9.37599 12.9294C9.37599 12.9036 9.37599 12.8778 9.37599 12.8512C8.91192 12.8512 8.44786 12.8512 7.96974 12.8512C7.93107 12.9673 7.89239 13.0833 7.85255 13.2028C7.81743 13.2994 7.78091 13.3955 7.74269 13.4909C7.72471 13.5371 7.70673 13.5833 7.68821 13.631C7.60409 13.7736 7.5378 13.8113 7.3838 13.8669C7.24503 13.8641 7.17235 13.8429 7.05665 13.7668C6.968 13.6338 6.97636 13.5128 6.99317 13.3591C7.02344 13.2425 7.06687 13.1332 7.11261 13.0219C7.12532 12.9898 7.13802 12.9577 7.15111 12.9246C7.19295 12.8192 7.23556 12.7141 7.27821 12.6091C7.30765 12.5356 7.33705 12.462 7.36642 12.3885C7.42795 12.2347 7.48985 12.0811 7.55203 11.9276C7.63161 11.7311 7.71042 11.5343 7.78897 11.3373C7.84957 11.1856 7.9105 11.034 7.97155 10.8824C8.00072 10.8099 8.02982 10.7373 8.05882 10.6647C8.09943 10.5633 8.14047 10.462 8.18164 10.3608C8.1935 10.3309 8.20536 10.301 8.21757 10.2703C8.34172 9.96778 8.43814 9.79187 8.7873 9.81444ZM8.6338 11.1716C8.57487 11.3122 8.5164 11.453 8.45802 11.5939C8.43287 11.6539 8.43287 11.6539 8.40721 11.7151C8.38341 11.7727 8.38341 11.7727 8.35914 11.8315C8.34441 11.8669 8.32968 11.9023 8.31451 11.9387C8.27578 12.0331 8.27578 12.0331 8.28224 12.1481C8.54005 12.1481 8.79786 12.1481 9.06349 12.1481C8.97036 11.8118 8.84464 11.4937 8.71192 11.1716C8.68614 11.1716 8.66036 11.1716 8.6338 11.1716Z" fill="#DC143C"/>
<path d="M6.59134 16.5811C6.65195 16.5837 6.65195 16.5837 6.71378 16.5864C6.78139 16.589 6.78139 16.589 6.85037 16.5917C7.07981 16.6085 7.30795 16.631 7.53638 16.6583C7.62787 16.6689 7.71938 16.6794 7.81089 16.6898C7.85062 16.6945 7.89034 16.6993 7.93127 16.7041C8.36687 16.7469 8.79984 16.7651 9.23743 16.7663C9.26544 16.7664 9.29345 16.7665 9.32231 16.7666C9.47125 16.7672 9.62018 16.7676 9.76913 16.7677C9.88894 16.7679 10.0087 16.7684 10.1285 16.7693C11.0956 16.7764 12.0478 16.7257 13.0076 16.6021C13.0953 16.5952 13.1833 16.5902 13.2712 16.5875C13.3137 16.5855 13.3562 16.5836 13.4 16.5817C13.5154 16.6021 13.5154 16.6021 13.6076 16.6908C13.7033 16.8502 13.695 16.9261 13.6716 17.1099C13.6204 17.2027 13.6204 17.2027 13.5154 17.2662C13.1995 17.3444 12.8715 17.3719 12.5486 17.4053C12.5033 17.4102 12.458 17.4151 12.4113 17.4202C11.8678 17.4776 11.3279 17.507 10.7816 17.5085C10.7528 17.5086 10.7241 17.5087 10.6944 17.5088C10.5414 17.5094 10.3883 17.5098 10.2353 17.5099C10.1122 17.5101 9.98916 17.5106 9.8661 17.5115C9.00714 17.5177 8.15951 17.4848 7.30522 17.3918C7.25065 17.386 7.19605 17.3803 7.14144 17.3748C7.05642 17.3663 6.97149 17.357 6.88655 17.3477C6.81149 17.3397 6.81149 17.3397 6.73491 17.3316C6.56032 17.2971 6.45277 17.2348 6.32789 17.1099C6.30126 16.8392 6.30126 16.8392 6.39279 16.6954C6.48414 16.6021 6.48414 16.6021 6.59134 16.5811Z" fill="#DC143C"/>
<path d="M13.1764 9.78105C13.2039 9.78083 13.2314 9.78062 13.2598 9.78039C13.3502 9.77993 13.4405 9.78088 13.5309 9.78189C13.594 9.78196 13.6571 9.78195 13.7203 9.78188C13.8523 9.78195 13.9843 9.78268 14.1164 9.78391C14.2854 9.78546 14.4543 9.78563 14.6234 9.78534C14.7536 9.78522 14.8839 9.78569 15.0141 9.78636C15.0764 9.78663 15.1387 9.78676 15.2011 9.78672C15.2882 9.78679 15.3753 9.78763 15.4624 9.78868C15.5119 9.78901 15.5615 9.78934 15.6125 9.78968C15.7532 9.80634 15.826 9.83683 15.938 9.92227C16.0356 10.0688 16.037 10.1394 16.0161 10.3129C15.9152 10.4424 15.8583 10.5016 15.6946 10.5304C15.6482 10.5294 15.6017 10.5283 15.5539 10.5273C15.5034 10.5267 15.4529 10.526 15.4009 10.5254C15.348 10.5237 15.2951 10.5221 15.2422 10.5204C15.1885 10.5194 15.1348 10.5185 15.0811 10.5177C14.95 10.5154 14.819 10.5122 14.688 10.5082C14.6886 10.5663 14.6886 10.5663 14.6893 10.6255C14.6932 10.9905 14.6962 11.3555 14.6981 11.7204C14.6991 11.9081 14.7005 12.0957 14.7027 12.2833C14.7048 12.4644 14.706 12.6455 14.7065 12.8266C14.7068 12.8957 14.7076 12.9648 14.7086 13.0338C14.71 13.1306 14.7102 13.2274 14.7101 13.3242C14.7108 13.3527 14.7115 13.3812 14.7123 13.4106C14.7107 13.5637 14.6927 13.6274 14.595 13.7479C14.4869 13.833 14.434 13.8642 14.2973 13.8676C14.186 13.8384 14.1206 13.8077 14.0385 13.7272C13.9637 13.5962 13.9694 13.4752 13.9715 13.3286C13.9715 13.2828 13.9715 13.2828 13.9715 13.2362C13.9716 13.1356 13.9725 13.035 13.9734 12.9344C13.9736 12.8645 13.9738 12.7947 13.9739 12.7248C13.9743 12.5412 13.9755 12.3575 13.9768 12.1738C13.978 11.9864 13.9785 11.7989 13.9791 11.6114C13.9804 11.2437 13.9824 10.8759 13.9848 10.5082C13.9515 10.5092 13.9182 10.5103 13.8839 10.5113C13.7598 10.5146 13.6357 10.5171 13.5116 10.5189C13.458 10.5199 13.4043 10.5212 13.3507 10.5229C13.2735 10.5253 13.1962 10.5263 13.1189 10.5273C13.0492 10.5288 13.0492 10.5288 12.9782 10.5304C12.8157 10.5018 12.7593 10.4388 12.6567 10.3129C12.6294 10.2323 12.6294 10.2323 12.6299 10.1566C12.6289 10.1317 12.6279 10.1067 12.627 10.081C12.7187 9.83245 12.938 9.78066 13.1764 9.78105Z" fill="#DC143C"/>
<path d="M11.5223 9.84397C11.6405 9.95497 11.6759 10.0194 11.6973 10.1814C11.6978 10.237 11.6973 10.2927 11.6962 10.3483C11.6963 10.3788 11.6963 10.4093 11.6963 10.4408C11.6962 10.5412 11.695 10.6415 11.6938 10.7419C11.6935 10.8117 11.6933 10.8815 11.6931 10.9513C11.6925 11.1346 11.691 11.318 11.6892 11.5013C11.6876 11.6885 11.6869 11.8758 11.6861 12.063C11.6845 12.4301 11.6818 12.7972 11.6785 13.1643C11.7227 13.1635 11.7668 13.1626 11.8123 13.1618C11.9762 13.159 12.1402 13.1572 12.3041 13.1557C12.3751 13.1549 12.446 13.1538 12.5169 13.1525C12.6189 13.1506 12.7209 13.1497 12.8229 13.149C12.8546 13.1482 12.8862 13.1474 12.9189 13.1466C13.0596 13.1465 13.1445 13.1509 13.26 13.235C13.3437 13.356 13.3556 13.4477 13.3582 13.594C13.3107 13.7127 13.2752 13.77 13.1635 13.8329C12.9924 13.883 12.8278 13.8793 12.6503 13.8792C12.6122 13.8793 12.574 13.8795 12.5346 13.8797C12.454 13.8799 12.3734 13.8799 12.2928 13.8797C12.1698 13.8796 12.0468 13.8805 11.9238 13.8815C11.8453 13.8816 11.7669 13.8816 11.6884 13.8816C11.6518 13.882 11.6152 13.8823 11.5774 13.8827C11.3752 13.8813 11.2252 13.8696 11.0535 13.7502C10.9455 13.6018 10.9638 13.4287 10.964 13.253C10.9638 13.2186 10.9635 13.1843 10.9632 13.1488C10.9625 13.0352 10.9623 12.9216 10.9623 12.808C10.962 12.729 10.9618 12.65 10.9615 12.571C10.961 12.4054 10.9609 12.2398 10.9609 12.0742C10.9609 11.862 10.9599 11.6498 10.9585 11.4376C10.9576 11.2745 10.9575 11.1113 10.9575 10.9482C10.9574 10.8699 10.9571 10.7917 10.9565 10.7135C10.9557 10.6041 10.9559 10.4947 10.9564 10.3853C10.956 10.353 10.9555 10.3207 10.9551 10.2874C10.9568 10.1335 10.9647 10.0565 11.0474 9.92244C11.2009 9.77942 11.3264 9.79586 11.5223 9.84397Z" fill="#DC143C"/>
<path d="M12.8132 3.82848C12.9301 3.90644 12.9944 3.96061 13.0257 4.10085C13.0334 4.23238 13.0186 4.32058 12.9475 4.43151C12.8189 4.51394 12.7317 4.5316 12.5788 4.5316C12.447 4.47545 12.447 4.47545 12.3444 4.37535C12.2966 4.23766 12.2903 4.11076 12.3347 3.97008C12.4605 3.80655 12.6222 3.79318 12.8132 3.82848Z" fill="#DC143C"/>
<path d="M10.0816 2.48173C10.2186 2.51569 10.275 2.58176 10.3526 2.69581C10.377 2.83253 10.377 2.83253 10.3526 2.96925C10.2645 3.0851 10.1968 3.14835 10.0621 3.20362C9.92442 3.20362 9.8435 3.15853 9.72763 3.08643C9.62996 2.93993 9.62856 2.8693 9.6495 2.69581C9.76869 2.52076 9.87599 2.46732 10.0816 2.48173Z" fill="#DC143C"/>
<path d="M11.1718 3.82813C11.2928 3.9068 11.3202 3.9603 11.3647 4.09669C11.3677 4.24898 11.3333 4.32659 11.2499 4.45313C11.1466 4.53798 11.0925 4.53122 10.9569 4.52637C10.8031 4.48792 10.7479 4.4703 10.664 4.33595C10.6341 4.16858 10.6362 4.03381 10.7201 3.88428C10.8695 3.80049 11.0046 3.79801 11.1718 3.82813Z" fill="#DC143C"/>
<path d="M7.50043 3.82855C7.63099 3.91225 7.65245 3.96929 7.6933 4.11908C7.69605 4.27559 7.67748 4.33416 7.57855 4.45355C7.4741 4.53563 7.42063 4.53162 7.28559 4.5268C7.13301 4.48865 7.07731 4.46848 6.99262 4.33637C6.96509 4.14366 6.96252 4.06901 7.07074 3.90668C7.23307 3.79846 7.30772 3.80103 7.50043 3.82855Z" fill="#DC143C"/>
<path d="M9.13909 3.82747C9.25628 3.88363 9.25628 3.88363 9.3344 3.98372C9.36925 4.1518 9.36505 4.28625 9.27337 4.43294C9.14633 4.51112 9.05365 4.52799 8.90471 4.5306C8.77784 4.47985 8.72544 4.44038 8.65569 4.32308C8.62541 4.19286 8.63217 4.11187 8.67034 3.98372C8.78826 3.80448 8.93815 3.78967 9.13909 3.82747Z" fill="#DC143C"/>
</g>
<defs>
<clipPath id="clip0_1621_5702">
<rect width="20" height="20" fill="white"/>
</clipPath>
</defs>
</svg>
