<svg width="20" height="14" viewBox="0 0 20 14" fill="none" xmlns="http://www.w3.org/2000/svg">
<path d="M9.96796 0.282806C10.0717 0.304307 10.1366 0.259137 10.2339 0.219329C10.5422 0.156631 10.827 0.184185 11.1031 0.343841C11.3739 0.531494 11.5366 0.75347 11.6011 1.0787C11.6377 1.36169 11.5915 1.61375 11.4449 1.85995C11.2455 2.1131 11.0118 2.33679 10.7832 2.56308C10.7491 2.59707 10.7149 2.63106 10.6797 2.66608C10.5963 2.74902 10.5128 2.83187 10.4292 2.91464C10.4719 2.91843 10.4719 2.91843 10.5154 2.9223C12.616 3.11434 14.5988 3.82584 16.1568 5.28876C16.2378 5.3646 16.3207 5.43622 16.4058 5.50741C18.0081 6.90743 19.0015 9.20159 19.1585 11.2946C19.1686 11.457 19.1751 11.6192 19.1792 11.7818C19.2254 11.78 19.2715 11.7782 19.319 11.7763C19.3798 11.7749 19.4407 11.7734 19.5015 11.7721C19.547 11.7701 19.547 11.7701 19.5935 11.7681C19.7375 11.7656 19.8186 11.7658 19.9416 11.8458C20.0569 12.0294 20.0226 12.2376 19.9995 12.4459C19.8954 12.8975 19.6247 13.2277 19.2574 13.5006C18.9822 13.6558 18.7296 13.7018 18.4155 13.701C18.3859 13.7011 18.3564 13.7012 18.326 13.7013C18.2267 13.7015 18.1275 13.7014 18.0282 13.7014C17.9565 13.7015 17.8847 13.7016 17.813 13.7017C17.6155 13.702 17.4181 13.7021 17.2206 13.7021C17.0078 13.7022 16.795 13.7025 16.5821 13.7028C16.1166 13.7033 15.6511 13.7035 15.1856 13.7037C14.8949 13.7038 14.6043 13.704 14.3137 13.7042C13.5091 13.7046 12.7046 13.705 11.9001 13.7052C11.8228 13.7052 11.8228 13.7052 11.744 13.7052C11.6919 13.7052 11.6397 13.7052 11.5876 13.7052C11.483 13.7052 11.3784 13.7053 11.2738 13.7053C11.2478 13.7053 11.2219 13.7053 11.1952 13.7053C10.3542 13.7054 9.51327 13.7061 8.67231 13.707C7.78303 13.7079 6.89375 13.7085 6.00447 13.7085C5.51978 13.7085 5.03509 13.7088 4.5504 13.7095C4.13769 13.7101 3.72498 13.7103 3.31227 13.71C3.1017 13.7098 2.89113 13.7098 2.68057 13.7104C2.48773 13.7109 2.29489 13.7108 2.10205 13.7104C2.03237 13.7103 1.96268 13.7104 1.89299 13.7107C1.29208 13.7135 0.860063 13.6338 0.402374 13.2223C0.132325 12.9409 -0.00430695 12.5756 -0.0126648 12.192C-0.0141251 12.1481 -0.0155853 12.1042 -0.0170898 12.0589C-0.000457764 11.9381 -0.000457764 11.9381 0.0570679 11.8447C0.202426 11.7521 0.329185 11.7648 0.497589 11.7721C0.528557 11.7728 0.559525 11.7735 0.591431 11.7742C0.667592 11.776 0.74373 11.7788 0.819855 11.7818C0.820862 11.7424 0.821869 11.703 0.822906 11.6624C0.884067 9.92339 1.4714 8.18951 2.49954 6.78183C2.51575 6.7596 2.53196 6.73738 2.54866 6.71448C2.73813 6.45712 2.9387 6.21197 3.15552 5.97693C3.21342 5.91411 3.27048 5.85051 3.32672 5.78619C3.54317 5.53899 3.77368 5.31611 4.02298 5.10214C4.04524 5.08289 4.06749 5.06365 4.09042 5.04381C4.16087 4.98347 4.23213 4.92427 4.30374 4.86532C4.32553 4.84667 4.34732 4.82802 4.36976 4.8088C4.53842 4.67328 4.66543 4.63903 4.88235 4.63339C4.9971 4.69199 4.9971 4.69199 5.07767 4.78964C5.12001 4.93519 5.13703 5.01955 5.07217 5.1586C4.98583 5.27723 4.89413 5.34619 4.77493 5.43173C3.00571 6.74292 1.91559 8.80639 1.59518 10.9602C1.5595 11.221 1.54326 11.4792 1.52298 11.7428C7.1304 11.7557 12.7378 11.7685 18.5152 11.7818C18.5023 11.756 18.4894 11.7303 18.4761 11.7037C18.4685 11.6201 18.4611 11.5365 18.4548 11.4528C18.2852 9.22565 17.2226 7.16389 15.5608 5.6806C14.0112 4.36625 12.0441 3.62522 10.0117 3.63974C9.97614 3.63986 9.94054 3.63998 9.90386 3.6401C9.32419 3.64295 8.76878 3.67912 8.20267 3.81308C8.16527 3.82187 8.12788 3.83065 8.08935 3.83971C7.43824 3.9972 6.8275 4.21291 6.23219 4.5203C6.04891 4.61179 5.91255 4.65936 5.70267 4.63339C5.55845 4.53214 5.51404 4.47552 5.48294 4.30136C5.51431 4.12567 5.56766 4.08457 5.70267 3.96933C5.80893 3.9049 5.91929 3.85248 6.03226 3.80087C6.06473 3.78588 6.0972 3.77088 6.13066 3.75543C7.22879 3.25844 8.37184 3.00747 9.56985 2.91464C9.54109 2.8867 9.51233 2.85875 9.48269 2.82996C9.37512 2.72524 9.26809 2.61999 9.16121 2.51458C9.11505 2.4692 9.06875 2.42397 9.02231 2.37889C8.95522 2.31371 8.88866 2.24802 8.82217 2.18222C8.80162 2.16247 8.78106 2.14272 8.75989 2.12238C8.52702 1.88965 8.39462 1.61746 8.38821 1.28622C8.39434 0.938017 8.49952 0.704484 8.73993 0.45172C9.10345 0.136249 9.52874 0.157539 9.96796 0.282806ZM9.1011 1.0787C9.05623 1.22654 9.03927 1.30678 9.10939 1.44647C9.18501 1.55582 9.26698 1.64404 9.36157 1.73743C9.39644 1.77204 9.43131 1.80666 9.46724 1.84233C9.50352 1.87796 9.5398 1.91358 9.57718 1.95029C9.6143 1.98702 9.65141 2.02376 9.68849 2.06053C9.77898 2.1501 9.86965 2.23948 9.96048 2.3287C10.1858 2.23224 10.3431 2.04178 10.5147 1.87216C10.5509 1.83754 10.5871 1.80292 10.6245 1.76726C10.6761 1.71624 10.6761 1.71624 10.7288 1.66418C10.7603 1.63338 10.7918 1.60258 10.8243 1.57085C10.9163 1.44409 10.9299 1.35104 10.937 1.19589C10.8755 1.05336 10.8016 0.956219 10.6636 0.883391C10.4947 0.861499 10.4176 0.864696 10.2754 0.961516C10.1258 1.05923 10.0177 1.07613 9.84329 1.03964C9.76468 0.988301 9.68653 0.936234 9.60892 0.883391C9.373 0.845476 9.25924 0.901738 9.1011 1.0787ZM0.74173 12.4459C0.848944 12.7139 1.00388 12.8464 1.24954 12.9928C1.39412 13.0432 1.54132 13.0373 1.69257 13.037C1.72167 13.037 1.75078 13.0371 1.78077 13.0372C1.87884 13.0374 1.97691 13.0374 2.07498 13.0373C2.14579 13.0374 2.2166 13.0375 2.2874 13.0377C2.48241 13.038 2.67742 13.0381 2.87243 13.0381C3.08258 13.0382 3.29273 13.0384 3.50288 13.0387C3.96258 13.0392 4.42229 13.0395 4.882 13.0396C5.16894 13.0398 5.45588 13.0399 5.74283 13.0401C6.537 13.0406 7.33117 13.041 8.12535 13.0411C8.17619 13.0411 8.22704 13.0411 8.27942 13.0411C8.33039 13.0411 8.38135 13.0412 8.43386 13.0412C8.53714 13.0412 8.64043 13.0412 8.74371 13.0412C8.82055 13.0412 8.82055 13.0412 8.89895 13.0412C9.72927 13.0414 10.5596 13.0421 11.3899 13.043C12.242 13.0439 13.0941 13.0444 13.9462 13.0444C14.4248 13.0445 14.9034 13.0447 15.382 13.0454C15.7895 13.046 16.1969 13.0462 16.6044 13.0459C16.8124 13.0457 17.0203 13.0458 17.2283 13.0463C17.4186 13.0468 17.609 13.0468 17.7993 13.0463C17.8682 13.0462 17.9371 13.0463 18.0059 13.0467C18.0996 13.0471 18.1932 13.0468 18.2869 13.0464C18.3136 13.0467 18.3403 13.047 18.3678 13.0473C18.6822 13.0439 18.9184 12.9359 19.1402 12.7193C19.2325 12.5935 19.2325 12.5935 19.2574 12.4459C13.1472 12.4459 7.03704 12.4459 0.74173 12.4459Z" fill="#DC133B"/>
</svg>
