<svg width="20" height="20" viewBox="0 0 20 20" fill="none" xmlns="http://www.w3.org/2000/svg">
<g clip-path="url(#clip0_2568_3186)">
<path d="M9.53822 1.59252C9.58799 1.59195 9.58799 1.59195 9.63876 1.59136C10.6867 1.58177 11.6565 1.65673 12.6573 1.99245C12.6904 2.00352 12.7235 2.01459 12.7577 2.02599C14.0636 2.47171 15.1327 3.22507 16.1094 4.18484C16.1364 4.21097 16.1634 4.2371 16.1912 4.26403C16.3485 4.42034 16.4683 4.56469 16.5635 4.76589C16.5611 4.89157 16.5445 4.96497 16.483 5.07351C16.3584 5.14586 16.2326 5.14111 16.0948 5.11745C15.9371 5.02518 15.8322 4.88463 15.7144 4.74758C15.3674 4.35931 14.9965 4.01173 14.5713 3.7112C14.5492 3.69532 14.527 3.67943 14.5041 3.66306C12.8434 2.4819 10.7642 2.01093 8.7559 2.33181C7.35735 2.57174 6.14985 3.15021 5.04008 4.0237C5.06698 4.24364 5.06698 4.24364 5.14018 4.45095C5.15871 4.49043 5.17724 4.52991 5.19633 4.57058C5.21773 4.54973 5.23913 4.52889 5.26118 4.50741C6.67438 3.17923 8.60254 2.71433 10.4898 2.76378C10.8415 2.77514 11.1819 2.80841 11.5245 2.89089C11.5732 2.90253 11.5732 2.90253 11.6229 2.91441C13.5102 3.38161 15.1531 4.51224 16.1841 6.17508C17.1913 7.85799 17.5181 9.87288 17.046 11.7826C16.5709 13.6265 15.38 15.2534 13.7422 16.2336C12.1491 17.1582 10.2199 17.5103 8.41086 17.0946C8.04786 16.9971 8.04786 16.9971 7.9478 16.885C7.92219 16.7533 7.93679 16.6533 7.96977 16.5237C8.03325 16.448 8.03325 16.448 8.12602 16.4065C8.31143 16.3978 8.47097 16.4174 8.65092 16.4602C10.2771 16.8112 12.0887 16.5044 13.4927 15.6033C15.0039 14.5977 16.0287 13.1791 16.4463 11.4065C16.4588 11.3568 16.4713 11.307 16.4842 11.2558C16.6673 10.4346 16.6564 9.40803 16.4463 8.59402C16.4388 8.56286 16.4312 8.5317 16.4234 8.4996C15.988 6.72772 14.9105 5.27583 13.3624 4.31728C11.893 3.43952 10.093 3.19219 8.43464 3.58766C7.43443 3.8436 6.48068 4.3162 5.70415 5.00027C5.6599 5.02987 5.6599 5.02987 5.61476 5.06006C5.46235 5.1716 5.36668 5.25169 5.3232 5.44008C5.31622 5.56522 5.31425 5.68847 5.31835 5.81372C5.32257 5.94933 5.32068 6.08487 5.31932 6.22051C5.31918 6.24704 5.31903 6.27356 5.31888 6.30089C5.31077 7.07257 5.00195 7.80778 4.46391 8.35964C4.21717 8.59402 4.21717 8.59402 4.10258 8.59402C4.09946 9.16452 4.09837 9.73499 4.09965 10.3055C4.10019 10.5705 4.1001 10.8354 4.09844 11.1004C4.09683 11.3564 4.09709 11.6125 4.09844 11.8686C4.09866 11.9659 4.09827 12.0632 4.09724 12.1605C4.09149 12.7489 4.11953 13.1653 4.49321 13.6331C4.53366 13.6916 4.57388 13.7502 4.6136 13.8092C4.64878 13.8565 4.68432 13.9037 4.72026 13.9505C4.73977 13.9761 4.75927 14.0018 4.77937 14.0282C5.44949 14.8959 6.27656 15.4884 7.23208 16.0105C7.30571 16.055 7.30571 16.055 7.38383 16.1331C7.3971 16.2506 7.40556 16.3323 7.38383 16.4456C7.28833 16.5579 7.2301 16.5966 7.08369 16.615C6.91235 16.5976 6.7931 16.5334 6.64409 16.4505C6.61515 16.4347 6.58622 16.4189 6.55641 16.4027C5.61185 15.8792 4.78425 15.1655 4.14165 14.2971C4.08531 14.6089 4.03465 14.9403 4.20573 15.2235C4.41412 15.4808 4.66648 15.691 4.9229 15.8987C4.97262 15.94 4.97262 15.94 5.02336 15.9821C6.58888 17.2683 8.65081 17.9264 10.6735 17.7461C12.4412 17.5598 14.0599 16.851 15.3526 15.6253C15.3725 15.6068 15.3925 15.5883 15.4131 15.5692C16.261 14.7807 16.8333 13.8132 17.2679 12.7488C17.3069 12.6537 17.346 12.5588 17.3863 12.4643C17.398 12.4364 17.4097 12.4086 17.4218 12.3799C17.4926 12.2477 17.5536 12.1962 17.6965 12.149C17.7653 12.1319 17.7653 12.1319 17.8355 12.1145C18.3903 11.9623 18.803 11.6855 19.1233 11.1982C19.2897 10.8961 19.3639 10.5771 19.376 10.2346C19.3776 10.1986 19.3791 10.1625 19.3808 10.1254C19.396 9.44554 19.2506 8.87531 18.7803 8.37185C18.4971 8.103 18.1673 7.96692 17.797 7.8648C17.7662 7.85569 17.7354 7.84657 17.7037 7.83718C17.6622 7.82585 17.6622 7.82585 17.6199 7.81429C17.4132 7.70916 17.3465 7.50238 17.2764 7.29519C17.1922 7.05915 17.098 6.83083 16.9908 6.60427C16.9775 6.57624 16.9643 6.54821 16.9507 6.51934C16.8796 6.37109 16.8032 6.22955 16.7173 6.08913C16.6478 5.96829 16.6416 5.93504 16.6416 5.7864C16.7012 5.60014 16.7012 5.60014 16.7979 5.54714C17.0126 5.52329 17.0126 5.52329 17.1104 5.54714C17.2935 5.70914 17.3856 5.90892 17.4961 6.12331C17.5172 6.16331 17.5383 6.20331 17.56 6.24452C17.6678 6.45318 17.7585 6.65553 17.826 6.88036C17.8958 7.1256 17.8958 7.1256 18.0815 7.29137C18.2112 7.3314 18.2112 7.3314 18.3456 7.35577C18.8704 7.46437 19.3156 7.89505 19.6104 8.32058C19.9121 8.83444 20.0223 9.30428 20.0206 9.89604C20.0206 9.98726 20.0222 10.0784 20.0239 10.1696C20.029 10.8008 19.8603 11.3182 19.4932 11.8362C19.4748 11.8625 19.4565 11.8889 19.4375 11.916C19.1628 12.2701 18.6534 12.6423 18.2027 12.707C18.116 12.72 18.0484 12.7345 17.9698 12.7737C17.8943 12.8793 17.86 12.995 17.8208 13.1179C17.7952 13.1893 17.7691 13.2606 17.7427 13.3317C17.7291 13.3686 17.7154 13.4054 17.7014 13.4434C16.938 15.374 15.2033 16.947 13.3271 17.7622C12.7101 18.0161 12.0671 18.2169 11.4073 18.3206C11.346 18.3308 11.346 18.3308 11.2836 18.3411C10.8644 18.4047 10.4511 18.4143 10.0279 18.4134C9.99186 18.4133 9.95584 18.4133 9.91874 18.4133C9.02776 18.4109 8.19191 18.2923 7.34477 18.0081C7.29506 17.9915 7.29506 17.9915 7.24435 17.9745C6.08775 17.5798 4.99658 16.9349 4.14165 16.055C4.14128 16.078 4.14092 16.101 4.14054 16.1247C4.13842 16.2309 4.13516 16.337 4.13188 16.4431C4.13133 16.4793 4.13077 16.5155 4.1302 16.5528C4.11942 16.8602 4.04981 17.1519 3.82426 17.3758C3.57819 17.6009 3.28948 17.6858 2.9594 17.6713C2.67039 17.6313 2.45357 17.5184 2.24986 17.3117C2.05614 17.0437 2.00968 16.8234 2.01453 16.4952C2.01451 16.4544 2.01449 16.4135 2.01446 16.3715C2.01457 16.2375 2.01579 16.1035 2.01701 15.9695C2.0173 15.8762 2.01753 15.783 2.01768 15.6897C2.01828 15.4449 2.01981 15.2001 2.02154 14.9553C2.02314 14.7053 2.02386 14.4552 2.02464 14.2051C2.02632 13.715 2.02895 13.2248 2.03227 12.7346C1.95373 12.7254 1.87519 12.7162 1.79665 12.7069C1.71104 12.6943 1.64226 12.6717 1.5649 12.633C1.53949 12.6205 1.51409 12.6079 1.48792 12.595C1.46211 12.5814 1.4363 12.5679 1.40971 12.554C1.38242 12.5399 1.35512 12.5258 1.327 12.5112C0.688466 12.1732 0.272642 11.6302 0.0532069 10.9443C-0.0188421 10.6667 -0.0193771 10.3896 -0.0185476 10.1045C-0.0185097 10.0133 -0.020137 9.92218 -0.0218664 9.83097C-0.0275609 9.12051 0.195395 8.48622 0.678665 7.95208C0.808259 7.82923 0.950778 7.72273 1.09477 7.61745C1.08813 7.59741 1.08148 7.57737 1.07463 7.55672C1.04001 7.44735 1.00881 7.33722 0.977584 7.22683C0.963536 7.18066 0.949487 7.13448 0.935012 7.08691C0.710079 6.2808 0.745498 5.33217 0.977584 4.53152C0.985748 4.50288 0.993912 4.47424 1.00232 4.44473C1.22052 3.70564 1.62283 2.94635 2.30571 2.53933C2.68052 2.34402 3.06507 2.2767 3.48003 2.38796C3.97803 2.55868 4.37225 2.91611 4.64946 3.35964C4.64946 3.38542 4.64946 3.4112 4.64946 3.43777C4.82757 3.32032 5.00393 3.20149 5.1768 3.07644C6.43531 2.19607 7.99262 1.60735 9.53822 1.59252ZM1.98833 3.74538C1.46378 4.64161 1.25176 5.82367 1.50981 6.83865C1.68268 7.39941 1.96021 7.87272 2.48805 8.15975C2.81834 8.31798 3.15784 8.33341 3.50444 8.21804C3.96282 8.03156 4.27421 7.68498 4.47932 7.2401C4.80572 6.43587 4.79517 5.47206 4.53227 4.6487C4.52411 4.62202 4.51594 4.59534 4.50753 4.56785C4.32168 3.9741 4.00185 3.35961 3.44096 3.04714C2.81431 2.76587 2.31959 3.24466 1.98833 3.74538ZM1.06944 8.49895C0.656252 8.9351 0.567284 9.53638 0.579635 10.1146C0.619311 10.7651 0.805739 11.2684 1.282 11.7247C1.51172 11.9178 1.74254 12.0338 2.03227 12.1096C2.03284 12.0795 2.03341 12.0493 2.034 12.0183C2.0369 11.8819 2.04068 11.7455 2.04448 11.6092C2.04536 11.5617 2.04624 11.5142 2.04715 11.4653C2.04853 11.4199 2.04992 11.3745 2.05135 11.3276C2.05237 11.2857 2.05339 11.2438 2.05444 11.2006C2.07133 11.094 2.07133 11.094 2.12263 11.0217C2.23371 10.946 2.3324 10.9629 2.46196 10.9768C2.52817 11.0225 2.52817 11.0225 2.57915 11.094C2.59385 11.1937 2.59385 11.1937 2.59393 11.3154C2.59425 11.3615 2.59457 11.4076 2.5949 11.4551C2.59466 11.5057 2.59442 11.5564 2.59418 11.6086C2.59434 11.6624 2.59455 11.7163 2.59481 11.7701C2.59527 11.8861 2.59537 12.0021 2.59519 12.1181C2.59492 12.3016 2.59554 12.4851 2.5963 12.6687C2.59778 13.0585 2.59828 13.4483 2.59868 13.8382C2.59911 14.2585 2.59971 14.6788 2.60144 15.0991C2.60216 15.2814 2.60231 15.4637 2.60203 15.646C2.60197 15.7597 2.60239 15.8733 2.60294 15.987C2.60317 16.0645 2.60282 16.1421 2.60245 16.2196C2.60444 16.5078 2.62632 16.703 2.78178 16.9485C2.90077 17.0224 3.0279 17.0361 3.16508 17.0315C3.31064 16.9701 3.39594 16.8928 3.47758 16.7581C3.5309 16.6059 3.52196 16.4486 3.52134 16.2894C3.52138 16.2577 3.52141 16.226 3.52145 16.1933C3.52151 16.0869 3.52129 15.9805 3.52108 15.8741C3.52107 15.7979 3.52108 15.7217 3.5211 15.6454C3.52111 15.4384 3.52088 15.2313 3.52061 15.0242C3.52036 14.8078 3.52034 14.5915 3.52029 14.3751C3.52017 13.9654 3.51985 13.5556 3.51946 13.1458C3.51902 12.6793 3.51881 12.2129 3.51861 11.7464C3.5182 10.7867 3.51751 9.8271 3.51665 8.86745C3.22016 8.86745 2.92368 8.86745 2.61821 8.86745C2.60532 9.31863 2.59243 9.7698 2.57915 10.2346C2.40444 10.2929 2.24604 10.2929 2.07133 10.2346C2.07199 10.1864 2.07265 10.1381 2.07333 10.0884C2.07531 9.90847 2.07498 9.72863 2.07396 9.54871C2.07384 9.471 2.07434 9.39329 2.07548 9.3156C2.09996 8.88006 2.09996 8.88006 1.95672 8.48616C1.86748 8.41766 1.78086 8.37097 1.68071 8.32058C1.62842 8.2687 1.5763 8.21665 1.52446 8.16433C1.34823 8.16433 1.19139 8.38308 1.06944 8.49895Z" fill="#DC133B"/>
<path d="M13.3124 5.29163C13.7151 5.56907 13.957 5.92664 14.0628 6.40583C14.0733 6.52676 14.071 6.63581 14.0628 6.75739C14.0861 6.75558 14.1093 6.75377 14.1332 6.7519C14.5711 6.73283 14.9489 6.8957 15.2738 7.18708C15.6586 7.61057 15.8245 8.0206 15.7987 8.58722C15.764 9.00931 15.5463 9.33243 15.2347 9.60895C15.0373 9.74884 14.8482 9.78723 14.6097 9.80427C14.6129 9.84697 14.6162 9.88967 14.6195 9.93366C14.6181 10.3268 14.4174 10.6438 14.1597 10.9233C13.8121 11.2566 13.354 11.3358 12.891 11.3277C12.8886 11.3656 12.8861 11.4034 12.8836 11.4424C12.8386 11.7436 12.6636 11.9783 12.432 12.1674C11.9902 12.4627 11.4251 12.4797 10.9143 12.3993C10.748 12.3591 10.6 12.3107 10.4447 12.2383C10.2199 12.1509 9.99659 12.1664 9.76597 12.2261C9.43126 12.2488 9.17745 12.1836 8.91392 11.9698C8.71015 11.7746 8.60915 11.5725 8.58372 11.2909C8.58109 11.1261 8.59011 10.9791 8.63316 10.8199C8.66474 10.5725 8.57913 10.3865 8.48438 10.1592C8.31144 9.71122 8.32405 9.04941 8.5062 8.6092C8.66735 8.29899 8.85973 8.11602 9.18003 7.96833C9.2707 7.94067 9.36178 7.91428 9.45347 7.8902C9.45684 7.85334 9.46022 7.81648 9.46369 7.77851C9.51606 7.29998 9.62016 6.85182 10.0003 6.52302C10.3127 6.30087 10.5982 6.20344 10.9769 6.17145C10.9826 6.14733 10.9884 6.12321 10.9943 6.09836C11.0975 5.7088 11.266 5.43622 11.608 5.21473C12.193 4.90456 12.7596 4.93415 13.3124 5.29163ZM11.7582 5.89802C11.6291 6.0748 11.6029 6.25979 11.57 6.47022C11.5511 6.57917 11.535 6.66398 11.469 6.75419C11.3149 6.85859 11.1186 6.83532 10.9403 6.82819C10.7374 6.82727 10.592 6.86768 10.43 6.99177C10.242 7.18443 10.1249 7.39087 10.114 7.66669C10.1159 7.79652 10.1209 7.92601 10.1275 8.05568C10.1339 8.29674 10.1339 8.29674 10.0472 8.41907C9.89585 8.51961 9.72841 8.51303 9.55113 8.52253C9.37142 8.56424 9.25647 8.64513 9.14097 8.78864C9.03432 8.99245 9.00121 9.16049 9.00181 9.38923C9.00173 9.41979 9.00166 9.45035 9.00158 9.48184C9.00839 9.73867 9.07748 9.94513 9.17424 10.1807C9.29192 10.4824 9.27971 10.7745 9.25816 11.0933C9.48751 10.9014 9.70835 10.7009 9.92368 10.4934C9.96362 10.4553 10.004 10.4176 10.0447 10.3804C10.2869 10.1764 10.2869 10.1764 10.4004 9.89822C10.3807 9.80663 10.3537 9.73207 10.3128 9.64802C10.2485 9.46929 10.2203 9.3315 10.2347 9.1402C10.3128 9.02302 10.3128 9.02302 10.4447 8.99128C10.5873 8.9839 10.6294 8.98332 10.7425 9.06208C10.792 9.15516 10.792 9.15516 10.8304 9.26227C10.8435 9.29782 10.8566 9.33337 10.8701 9.37C10.8796 9.39729 10.889 9.42458 10.8988 9.4527C10.9923 9.3766 11.0823 9.29865 11.1722 9.21833C11.1931 9.19988 11.2141 9.18143 11.2356 9.16242C11.3066 9.09906 11.3762 9.03435 11.4457 8.9693C11.4691 8.94865 11.4926 8.928 11.5167 8.90672C11.6408 8.79009 11.6408 8.79009 11.688 8.63219C11.6789 8.55096 11.6631 8.47663 11.641 8.39802C11.6313 8.36101 11.6215 8.324 11.6115 8.28586C11.6011 8.25278 11.5907 8.2197 11.5799 8.18561C11.5265 7.99546 11.4866 7.8137 11.5238 7.61677C11.5848 7.53376 11.5848 7.53376 11.68 7.49958C11.8192 7.49958 11.8192 7.49958 11.9535 7.53864C12.1042 7.70016 12.136 7.95375 12.1878 8.16364C12.2062 8.14763 12.2246 8.13162 12.2435 8.11512C12.2679 8.09407 12.2922 8.07302 12.3172 8.05134C12.3413 8.03049 12.3653 8.00964 12.39 7.98816C12.5576 7.84967 12.5576 7.84967 12.7176 7.86091C12.8519 7.8902 12.8519 7.8902 12.93 7.96833C12.9653 8.2281 12.9653 8.2281 12.8775 8.35941C12.8354 8.40682 12.7919 8.45306 12.7469 8.49781C12.6869 8.55119 12.6869 8.55119 12.6957 8.63239C12.7486 8.64659 12.7486 8.64659 12.8026 8.66108C12.8487 8.67417 12.8948 8.68726 12.9422 8.70075C12.988 8.71344 13.0338 8.72613 13.0809 8.7392C13.2104 8.79146 13.2574 8.82203 13.3207 8.94489C13.3158 9.08649 13.3158 9.08649 13.2816 9.21833C13.1332 9.31725 13.0677 9.31292 12.891 9.29645C12.8363 9.2749 12.7825 9.25136 12.7294 9.22626C12.5371 9.13996 12.3622 9.06505 12.1488 9.10114C11.8342 9.29289 11.5956 9.59767 11.3675 9.88239C11.4657 9.98057 11.559 10.004 11.6887 10.0472C11.7582 10.0777 11.7582 10.0777 11.7972 10.1558C11.8196 10.4376 11.8196 10.4376 11.7386 10.5489C11.5104 10.6345 11.2771 10.5355 11.0619 10.4497C10.9484 10.4224 10.8937 10.4315 10.7816 10.4683C10.6924 10.5442 10.6127 10.619 10.5318 10.7029C10.5087 10.7262 10.4855 10.7496 10.4617 10.7736C10.3881 10.8481 10.3151 10.9231 10.242 10.9981C10.1922 11.0488 10.1422 11.0994 10.0923 11.15C9.97007 11.2739 9.84836 11.3983 9.72691 11.523C9.86551 11.5692 9.96677 11.559 10.1126 11.5523C10.3789 11.5456 10.5831 11.6014 10.8283 11.7109C11.1542 11.8493 11.5689 11.8524 11.8998 11.7305C12.0796 11.6476 12.1774 11.5439 12.266 11.3668C12.2641 11.2283 12.2583 11.0903 12.2521 10.952C12.266 10.8199 12.266 10.8199 12.3223 10.7233C12.4749 10.6322 12.6066 10.6617 12.7787 10.6807C13.1525 10.7103 13.4252 10.7007 13.7284 10.4586C13.9045 10.2867 13.9826 10.1526 13.9872 9.90665C13.9856 9.81134 13.9824 9.71605 13.9774 9.62086C13.9859 9.47077 13.9999 9.40736 14.1019 9.29645C14.2134 9.26162 14.3125 9.23733 14.4266 9.21833C14.7082 9.17071 14.8729 9.1033 15.0574 8.87394C15.178 8.64365 15.1948 8.41951 15.1566 8.16364C15.0514 7.85473 14.8101 7.58556 14.5243 7.4332C14.3306 7.35548 14.1317 7.36539 13.926 7.36522C13.7796 7.36165 13.6871 7.35081 13.5544 7.28397C13.4473 7.15002 13.4513 7.02917 13.4525 6.86481C13.4407 6.44946 13.355 6.19433 13.0472 5.89802C12.8587 5.73648 12.6779 5.63963 12.4271 5.61237C12.1746 5.63762 11.9568 5.74091 11.7582 5.89802Z" fill="#DC133B"/>
<path d="M7.16544 9.36938C7.39446 9.50092 7.49558 9.67253 7.5785 9.92129C7.5993 10.1126 7.56368 10.2514 7.50282 10.434C7.32858 10.9785 7.3634 11.4803 7.60291 12.0014C7.75545 12.2856 7.9644 12.5252 8.21815 12.724C8.36407 12.8491 8.42634 12.9535 8.45023 13.1458C8.46076 13.3917 8.43433 13.5903 8.28163 13.7885C8.03503 14.0332 7.71266 14.0775 7.3783 14.0766C6.74748 14.0727 6.2244 13.8398 5.76698 13.4052C5.24327 12.8484 5.01432 12.1612 5.02738 11.4043C5.07401 10.8052 5.29722 10.2167 5.74821 9.80593C6.12541 9.48517 6.65863 9.18738 7.16544 9.36938ZM6.05674 10.4061C5.73183 10.8179 5.62308 11.2813 5.66444 11.7963C5.75246 12.3389 5.98945 12.7652 6.41425 13.1174C6.78164 13.3794 7.16704 13.4883 7.61756 13.4369C7.72639 13.4002 7.72639 13.4002 7.81288 13.3588C7.80084 13.2311 7.7847 13.1747 7.69416 13.0812C7.66083 13.0544 7.62749 13.0276 7.59315 12.9999C7.10503 12.5778 6.82325 11.9775 6.7646 11.3378C6.76248 11.3086 6.76037 11.2795 6.75819 11.2494C6.75607 11.2231 6.75396 11.1967 6.75178 11.1696C6.73783 10.8317 6.82196 10.4833 6.92085 10.1621C6.96675 10.0435 6.96675 10.0435 6.91444 9.96035C6.56331 9.94105 6.28747 10.1606 6.05674 10.4061Z" fill="#DC133B"/>
<path d="M8.03886 5.55537C8.33274 5.78214 8.57142 6.15591 8.63258 6.524C8.67224 6.99297 8.63592 7.41701 8.34694 7.80818C8.03887 8.17066 7.67977 8.40831 7.19521 8.45119C6.71414 8.45594 6.31404 8.369 5.93727 8.04744C5.66185 7.76418 5.46281 7.43203 5.42946 7.03181C5.42699 7.00437 5.42452 6.97693 5.42198 6.94865C5.40075 6.52207 5.54429 6.10697 5.82008 5.78181C6.41443 5.13075 7.3211 5.07583 8.03886 5.55537ZM6.24977 6.25056C6.09792 6.4621 6.04441 6.69494 6.05446 6.95369C6.10392 7.22157 6.22492 7.4714 6.44493 7.63759C6.71484 7.81092 6.94554 7.84696 7.2654 7.81306C7.59898 7.70931 7.7931 7.51297 7.96364 7.21736C8.05531 6.9118 8.0394 6.61239 7.8904 6.32869C7.75015 6.09307 7.49774 5.93821 7.23488 5.87138C6.82684 5.81923 6.52198 5.94387 6.24977 6.25056Z" fill="#DC133B"/>
<path d="M11.8832 12.9417C12.2716 13.2125 12.5052 13.5668 12.6176 14.023C12.6607 14.5414 12.5881 14.9401 12.266 15.3511C11.9692 15.6769 11.6195 15.8832 11.1771 15.937C10.6685 15.959 10.2311 15.8004 9.8539 15.4634C9.54043 15.1292 9.39176 14.6695 9.40239 14.218C9.45079 13.7487 9.65077 13.3514 10.015 13.0513C10.5612 12.6554 11.2975 12.5901 11.8832 12.9417ZM10.2348 13.7251C10.0729 13.9551 10.0152 14.1716 10.0394 14.4527C10.1001 14.7574 10.2499 14.9897 10.505 15.1695C10.7585 15.3102 11.0109 15.3423 11.2919 15.273C11.5553 15.1828 11.7512 15.014 11.8925 14.7749C12.0145 14.521 12.0444 14.2683 11.9599 13.9957C11.8329 13.7173 11.6484 13.5226 11.3773 13.3809C10.9192 13.3016 10.5429 13.3535 10.2348 13.7251Z" fill="#DC133B"/>
</g>
<defs>
<clipPath id="clip0_2568_3186">
<rect width="20" height="20" fill="white"/>
</clipPath>
</defs>
</svg>
