<svg width="20" height="20" viewBox="0 0 20 20" fill="none" xmlns="http://www.w3.org/2000/svg">
<g clip-path="url(#clip0_2568_2503)">
<path d="M9.14687 0.206485C9.53233 0.473109 9.75185 0.802103 9.8828 1.25003C9.88754 1.29203 9.89227 1.33402 9.89715 1.37729C9.91044 1.48818 9.91044 1.48818 9.99435 1.53736C10.0394 1.55344 10.0394 1.55344 10.0854 1.56986C10.2016 1.61283 10.2862 1.64919 10.3906 1.71878C10.5002 1.76864 10.5002 1.76864 10.5783 1.73297C10.6353 1.70404 10.6922 1.67493 10.749 1.64569C11.0249 1.53541 11.3585 1.51778 11.6528 1.52927C11.792 1.53722 11.792 1.53722 11.8663 1.4719C11.8813 1.44863 11.8962 1.42537 11.9116 1.4014C12.1474 1.08658 12.481 0.955359 12.854 0.871616C13.3763 0.816052 13.8158 0.951684 14.2261 1.27918C14.529 1.55516 14.7117 1.921 14.7345 2.32959C14.7354 2.38233 14.736 2.43508 14.7363 2.48783C14.7366 2.51555 14.7369 2.54327 14.7372 2.57184C14.736 2.73857 14.7159 2.8683 14.6533 3.02494C14.6101 3.14294 14.5991 3.1808 14.6524 3.2967C14.6948 3.35735 14.7389 3.41693 14.7845 3.47522C14.8619 3.57908 14.8828 3.66017 14.8828 3.7891C14.839 3.92037 14.8068 3.94392 14.6875 4.02347C14.5492 4.04151 14.4776 4.03856 14.3579 3.96488C14.2482 3.85789 14.1478 3.74581 14.0488 3.62903C13.9868 3.55457 13.9868 3.55457 13.9188 3.49521C13.8426 3.41002 13.8469 3.325 13.8501 3.2146C13.8704 3.10817 13.9115 3.03361 13.9648 2.93949C14.1012 2.68649 14.1072 2.44439 14.0379 2.16739C13.9383 1.90464 13.7567 1.72723 13.5104 1.59641C13.2425 1.4898 12.9759 1.4998 12.708 1.60266C12.4616 1.73166 12.337 1.89681 12.2021 2.13703C12.1484 2.2266 12.1484 2.2266 12.0703 2.26566C11.8861 2.2757 11.7302 2.26167 11.5503 2.22171C11.3195 2.17516 11.1245 2.2088 10.8984 2.26566C10.9153 2.29995 10.9153 2.29995 10.9326 2.33493C11.1098 2.74458 11.1319 3.22816 10.979 3.64994C10.9529 3.70968 10.9262 3.76917 10.8984 3.82816C10.8515 3.96884 10.8698 3.99026 10.9326 4.11869C11.1033 4.4714 11.115 4.91638 11.0197 5.29529C10.9826 5.39412 10.9413 5.48956 10.8984 5.58597C10.8984 5.61175 10.8984 5.63753 10.8984 5.6641C10.9131 5.63865 10.9278 5.6132 10.9429 5.58698C10.9637 5.5509 10.9846 5.51481 11.006 5.47763C11.0294 5.43702 11.0529 5.39641 11.077 5.35456C11.1295 5.2636 11.182 5.17264 11.2345 5.08168C11.3949 4.80363 11.5552 4.52551 11.7154 4.24731C11.7885 4.12043 11.8619 3.99366 11.9353 3.86692C12.0201 3.72031 12.1041 3.57329 12.187 3.42563C12.2214 3.36531 12.2557 3.30499 12.29 3.24466C12.3048 3.21787 12.3195 3.19108 12.3347 3.16348C12.4212 3.01287 12.4958 2.92186 12.6562 2.8516C12.809 2.8516 12.8703 2.87298 12.9858 2.97367C13.0494 3.0907 13.0571 3.14494 13.0346 3.274C12.9728 3.47104 12.8547 3.64486 12.749 3.82083C12.7224 3.86585 12.6959 3.91088 12.6694 3.95595C12.6145 4.04945 12.5593 4.14283 12.5039 4.23612C12.377 4.45056 12.2531 4.66679 12.1289 4.88285C12.0806 4.96652 12.0324 5.05019 11.9841 5.13385C11.96 5.17563 11.9359 5.2174 11.9111 5.26044C11.8457 5.37367 11.7804 5.48689 11.7151 5.6001C11.6747 5.66998 11.6344 5.73986 11.5941 5.80974C11.5435 5.89743 11.4929 5.98512 11.4423 6.0728C11.3975 6.15041 11.3528 6.22807 11.3081 6.30578C11.2729 6.36666 11.2373 6.42731 11.2008 6.48749C11.1169 6.62731 11.0677 6.75204 11.0351 6.91165C10.9323 7.34758 10.7135 7.62318 10.3863 7.9285C10.3034 8.01759 10.2571 8.10318 10.2051 8.21292C10.1884 8.24777 10.1716 8.28261 10.1544 8.31851C10.1421 8.3449 10.1298 8.37129 10.1172 8.39847C10.1535 8.37873 10.1898 8.35899 10.2272 8.33866C10.276 8.31299 10.3247 8.28736 10.3735 8.26175C10.3973 8.24871 10.4211 8.23567 10.4456 8.22223C10.6155 8.13414 10.7423 8.10367 10.9375 8.12503C11.0602 8.16776 11.0602 8.16776 11.1816 8.22269C11.4594 8.33405 11.691 8.38089 11.9803 8.28571C12.2648 8.15787 12.4573 7.98215 12.5732 7.69046C12.6314 7.49715 12.6198 7.30974 12.606 7.11002C12.6204 6.95857 12.6657 6.90244 12.7734 6.79691C12.8659 6.7461 12.8659 6.7461 12.9639 6.70658C13.205 6.59385 13.3236 6.43542 13.4427 6.20258C13.497 6.02825 13.4906 5.8515 13.4918 5.66997C13.4962 5.5324 13.5026 5.44713 13.5861 5.33527C13.6633 5.27961 13.7306 5.24066 13.8184 5.20511C13.9901 5.12503 14.1038 5.00895 14.2319 4.8714C14.3199 4.78107 14.3604 4.76693 14.4873 4.75589C14.6259 4.76698 14.6745 4.77829 14.7656 4.88285C14.8065 5.02999 14.8215 5.11704 14.7607 5.25882C14.6584 5.38848 14.5581 5.50941 14.4128 5.59207C14.3178 5.64852 14.251 5.6963 14.1797 5.78128C14.147 5.91582 14.1352 6.04611 14.1232 6.18396C14.0823 6.45653 13.9402 6.68739 13.7891 6.9141C13.8097 6.92331 13.8303 6.93253 13.8516 6.94203C14.7562 7.34919 14.7562 7.34919 14.9609 7.65628C14.954 7.78654 14.9436 7.89011 14.8804 8.0054C14.7568 8.07317 14.6283 8.06544 14.4922 8.04691C14.3922 7.99668 14.3095 7.94865 14.2187 7.88578C13.922 7.69311 13.6155 7.57297 13.2812 7.46097C13.2765 7.48927 13.2718 7.51757 13.2669 7.54673C13.2324 7.74554 13.1967 7.93553 13.125 8.12503C13.1646 8.12901 13.2043 8.13299 13.2451 8.13709C13.6606 8.21026 14.028 8.4732 14.3359 8.75003C14.3598 8.77028 14.3837 8.79052 14.4083 8.81137C14.7734 9.1432 15.0117 9.61358 15.1562 10.0782C15.1706 10.1233 15.1706 10.1233 15.1852 10.1693C15.3186 10.6908 15.2595 11.2853 15.1172 11.7969C15.1631 11.8017 15.209 11.8066 15.2563 11.8116C15.4118 11.8307 15.5538 11.8674 15.7031 11.9141C15.7221 11.8605 15.7407 11.8067 15.7593 11.753C15.7697 11.7231 15.7801 11.6931 15.7909 11.6623C16.0439 10.8048 15.8319 9.87251 15.4207 9.10648C15.353 8.98344 15.353 8.98344 15.2734 8.86722C15.2546 8.72319 15.2645 8.65 15.332 8.52054C15.442 8.42708 15.5171 8.41319 15.6602 8.40778C15.8805 8.48774 15.9965 8.76355 16.0937 8.96244C16.1071 8.98954 16.1204 9.01664 16.1342 9.04456C16.4119 9.62314 16.5388 10.2005 16.5381 10.8423C16.5381 10.89 16.5382 10.9377 16.5382 10.9869C16.5342 11.3326 16.4928 11.6498 16.4014 11.9826C16.3621 12.1064 16.3621 12.1064 16.3672 12.2266C16.4487 12.2898 16.4487 12.2898 16.5552 12.3487C16.9187 12.5709 17.2355 12.8294 17.5 13.1641C17.5415 13.2145 17.5415 13.2145 17.5838 13.2659C18.2634 14.1238 18.5724 15.2139 18.4679 16.3014C18.3653 17.154 18.0433 17.8917 17.5 18.5547C17.4728 18.5884 17.4455 18.6221 17.4174 18.6568C16.7926 19.3913 15.8381 19.8896 14.8828 20C13.6728 20.0838 12.5871 19.8597 11.6406 19.0625C11.6098 19.0374 11.579 19.0123 11.5472 18.9864C10.9795 18.5034 10.4913 17.8016 10.3125 17.0703C10.3125 17.0188 10.3125 16.9672 10.3125 16.9141C9.93625 17.0036 9.58751 17.1604 9.37499 17.5C9.31001 17.6639 9.26342 17.8321 9.21615 18.0017C9.19462 18.0759 9.17308 18.1501 9.15152 18.2242C9.12161 18.3276 9.09223 18.4311 9.06286 18.5346C9.01143 18.7158 8.95967 18.8969 8.90718 19.0778C8.87934 19.174 8.85188 19.2702 8.82487 19.3666C8.7605 19.5894 8.7042 19.7812 8.55468 19.961C8.46073 20.0079 8.39341 20.0106 8.28857 20.0147C8.25528 20.0166 8.222 20.0185 8.18771 20.0205C8.03894 19.9906 7.98821 19.9196 7.89062 19.8047C7.84081 19.704 7.80821 19.6002 7.77587 19.4927C7.76618 19.4621 7.75649 19.4315 7.7465 19.4C7.6188 18.9919 7.50486 18.5789 7.39257 18.1663C7.36393 18.0615 7.33439 17.9569 7.30468 17.8524C7.29637 17.8209 7.28806 17.7895 7.2795 17.7572C7.19031 17.4487 7.01062 17.2367 6.73337 17.0755C6.54164 16.9841 6.3379 16.9272 6.13525 16.8653C5.50461 16.6631 4.98867 16.4202 4.49218 15.9766C4.46851 15.9585 4.44485 15.9403 4.42046 15.9217C3.66832 15.3426 3.22957 14.3003 3.09818 13.3876C2.97117 12.2846 3.23673 11.2073 3.91097 10.3208C4.44894 9.64388 5.09247 9.17661 5.89843 8.86722C5.83134 8.81957 5.83134 8.81957 5.74218 8.7891C5.64418 8.81215 5.64418 8.81215 5.54687 8.8599C5.12847 9.04677 4.67229 9.04104 4.24407 8.87744C4.08604 8.80216 3.95798 8.71044 3.82812 8.59378C3.80405 8.57329 3.77998 8.5528 3.75518 8.53168C3.48728 8.28735 3.34303 7.97112 3.28124 7.61722C3.27591 7.49966 3.27634 7.38322 3.28124 7.26566C3.25546 7.25841 3.22968 7.25116 3.20312 7.24369C2.87759 7.0877 2.63554 6.79847 2.49999 6.46701C2.44425 6.29604 2.42104 6.1512 2.42187 5.97171C2.4121 5.83539 2.39733 5.7945 2.29461 5.70102C2.21873 5.64954 2.1422 5.59901 2.06512 5.54935C1.7679 5.33554 1.62038 5.00246 1.53564 4.6558C1.4886 4.17603 1.54645 3.76902 1.83349 3.36917C1.92997 3.2371 1.92997 3.2371 1.94457 3.08261C1.92167 3.02727 1.89746 2.97246 1.87225 2.91812C1.75795 2.58579 1.79977 2.13741 1.93801 1.81873C2.20119 1.33315 2.52522 1.06937 3.04687 0.898471C3.49321 0.791349 3.94696 0.884795 4.33715 1.12018C4.47742 1.21453 4.60947 1.3073 4.7029 1.45099C4.75843 1.53085 4.75843 1.53085 4.84328 1.53598C4.87325 1.53347 4.90321 1.53095 4.93407 1.52835C5.25322 1.51621 5.59779 1.53083 5.88134 1.68949C6.00578 1.7703 6.00578 1.7703 6.11327 1.73831C6.1455 1.71898 6.17773 1.69964 6.21093 1.67972C6.26447 1.65253 6.3182 1.6257 6.37206 1.59915C6.39794 1.58581 6.42383 1.57247 6.45049 1.55872C6.52343 1.52347 6.52343 1.52347 6.64062 1.48441C6.67255 1.37926 6.67255 1.37926 6.69189 1.25248C6.77711 0.850982 6.97857 0.526454 7.30468 0.273471C7.87586 -0.0635111 8.5588 -0.143381 9.14687 0.206485ZM7.44781 1.04236C7.32159 1.21806 7.29436 1.37056 7.28271 1.58451C7.27472 1.72548 7.26671 1.85651 7.22656 1.99222C7.19634 1.99841 7.16613 2.00461 7.135 2.01099C6.73222 2.10122 6.45191 2.23539 6.21093 2.57816C6.08038 2.8206 6.07299 3.08571 6.13754 3.34796C6.17692 3.45072 6.22982 3.52892 6.29394 3.6182C6.37263 3.73022 6.40623 3.78902 6.43554 3.92582C6.40615 4.06298 6.37388 4.1175 6.29394 4.22855C6.1365 4.44791 6.0845 4.66757 6.09863 4.93686C6.12793 5.11207 6.19117 5.23184 6.29394 5.37601C6.37263 5.48803 6.40623 5.54683 6.43554 5.68363C6.40015 5.84877 6.32657 5.94318 6.22955 6.07883C6.09775 6.29152 6.07738 6.51855 6.11327 6.76273C6.18157 7.04298 6.36226 7.26433 6.60156 7.42191C6.77898 7.51801 6.9285 7.54846 7.1289 7.57328C7.35093 7.60579 7.50794 7.63791 7.65624 7.81253C7.73506 7.93442 7.8069 8.05779 7.87566 8.18561C7.89349 8.21718 7.91131 8.24876 7.92968 8.28128C7.94257 8.28128 7.95546 8.28128 7.96874 8.28128C8.07159 7.39441 8.07159 7.39441 7.81874 6.58016C7.73011 6.47931 7.63741 6.38457 7.5402 6.292C7.3824 6.13071 7.25354 5.94496 7.11913 5.76419C7.06567 5.69422 7.01217 5.62428 6.95861 5.55439C6.81864 5.37145 6.78022 5.27632 6.79687 5.0391C6.83593 4.96341 6.83593 4.96341 6.91406 4.92191C7.09713 4.87373 7.09713 4.87373 7.22656 4.92191C7.37739 5.06246 7.49694 5.2242 7.61718 5.39066C7.64815 5.43293 7.67913 5.47519 7.71011 5.51746C7.76441 5.59216 7.81818 5.66725 7.87124 5.74283C7.89052 5.76841 7.90981 5.79399 7.92968 5.82035C7.94257 5.82035 7.95546 5.82035 7.96874 5.82035C8.04262 5.21426 8.04262 5.21426 7.84672 4.6629C7.77054 4.57672 7.69133 4.49416 7.61031 4.41253C7.46271 4.25394 7.33697 4.07691 7.20702 3.90384C7.17991 3.86846 7.15279 3.83308 7.12486 3.79662C7.0992 3.76307 7.07354 3.72952 7.04711 3.69495C7.02428 3.66509 7.00144 3.63522 6.97791 3.60446C6.76396 3.30694 6.76396 3.30694 6.79687 3.08597C6.87855 2.96659 6.9255 2.93501 7.06786 2.90775C7.33656 2.9571 7.50954 3.28315 7.66601 3.4888C7.71493 3.55303 7.76396 3.61717 7.8131 3.68122C7.8453 3.72354 7.8453 3.72354 7.87814 3.76671C7.89515 3.78699 7.91216 3.80727 7.92968 3.82816C7.94257 3.82816 7.95546 3.82816 7.96874 3.82816C7.96952 3.78144 7.97029 3.73472 7.97109 3.68659C7.97406 3.51339 7.97752 3.34021 7.98114 3.16702C7.98264 3.09204 7.984 3.01706 7.98522 2.94207C7.987 2.83434 7.98927 2.72662 7.99163 2.6189C7.99231 2.56854 7.99231 2.56854 7.993 2.51716C7.99377 2.48589 7.99455 2.45462 7.99535 2.4224C7.99587 2.3949 7.99639 2.3674 7.99693 2.33907C8.00781 2.26566 8.00781 2.26566 8.08593 2.14847C8.22153 2.11583 8.31861 2.09546 8.45214 2.14115C8.51562 2.18753 8.51562 2.18753 8.55468 2.26566C8.56083 2.38236 8.56478 2.49829 8.56704 2.61509C8.56785 2.64966 8.56866 2.68423 8.5695 2.71984C8.57206 2.83049 8.57436 2.94114 8.57665 3.05179C8.57834 3.12671 8.58004 3.20163 8.58176 3.27655C8.58595 3.46042 8.58991 3.64429 8.59374 3.82816C8.71068 3.71412 8.81896 3.60093 8.91647 3.46988C8.94936 3.42615 8.94936 3.42615 8.98292 3.38153C9.00515 3.35167 9.02738 3.32181 9.05029 3.29105C9.09506 3.23093 9.13996 3.1709 9.18502 3.111C9.20464 3.08462 9.22427 3.05825 9.24448 3.03108C9.32164 2.93932 9.36744 2.93054 9.4873 2.91751C9.60937 2.92972 9.60937 2.92972 9.70214 2.9932C9.78536 3.11482 9.78178 3.17452 9.76562 3.32035C9.71519 3.41005 9.66669 3.48389 9.60448 3.56449C9.58738 3.58753 9.57027 3.61057 9.55264 3.63432C9.49415 3.71253 9.4347 3.78993 9.37499 3.86722C9.35242 3.89654 9.32985 3.92586 9.3066 3.95607C9.19069 4.10631 9.07414 4.25603 8.9569 4.40525C8.93561 4.433 8.91432 4.46076 8.89238 4.48936C8.82812 4.57035 8.82812 4.57035 8.76004 4.6437C8.55929 4.87163 8.56536 5.07663 8.57909 5.37113C8.58015 5.41443 8.58121 5.45774 8.5823 5.50235C8.58504 5.60843 8.58888 5.71435 8.59374 5.82035C8.76112 5.66287 8.89519 5.49037 9.03075 5.30521C9.07195 5.24927 9.1132 5.19337 9.1545 5.13752C9.17249 5.11298 9.19047 5.08845 9.20901 5.06318C9.25781 5.00003 9.25781 5.00003 9.33593 4.92191C9.61564 4.89527 9.61564 4.89527 9.72655 4.98539C9.77656 5.10415 9.77702 5.18413 9.76562 5.31253C9.71069 5.40912 9.71069 5.40912 9.6289 5.51029C9.59728 5.55037 9.56565 5.59045 9.53307 5.63175C9.51467 5.65473 9.49626 5.67772 9.4773 5.7014C9.34629 5.86687 9.21953 6.03565 9.09179 6.20365C9.06503 6.23862 9.03826 6.27359 9.01069 6.30963C8.98488 6.34339 8.95908 6.37715 8.93249 6.41193C8.90956 6.44188 8.88664 6.47183 8.86302 6.50269C8.83861 6.53533 8.8142 6.56797 8.78906 6.6016C8.77199 6.6217 8.75492 6.6418 8.73734 6.66251C8.59084 6.84462 8.56676 6.97904 8.57467 7.20935C8.57508 7.25559 8.57508 7.25559 8.57551 7.30277C8.57659 7.4003 8.57904 7.49774 8.58154 7.59525C8.58252 7.66175 8.58341 7.72825 8.58421 7.79476C8.58635 7.95697 8.58971 8.11911 8.59374 8.28128C8.72082 8.15952 8.79216 8.0244 8.87527 7.87006C8.99754 7.70143 9.12648 7.6294 9.3283 7.58319C9.38125 7.57548 9.43425 7.56812 9.4873 7.56107C9.79908 7.51068 10.0131 7.42699 10.227 7.19242C10.4343 6.8964 10.4706 6.64919 10.4297 6.2891C10.3805 6.13627 10.3085 6.01791 10.2051 5.89603C10.1266 5.77434 10.1371 5.6884 10.1562 5.54691C10.199 5.47255 10.2463 5.40859 10.3012 5.34275C10.4765 5.10151 10.4564 4.81636 10.4297 4.53128C10.3817 4.37699 10.309 4.26071 10.2051 4.13822C10.125 4.01406 10.1348 3.93414 10.1562 3.7891C10.2102 3.69267 10.2699 3.60507 10.3355 3.51627C10.479 3.31124 10.4533 3.05137 10.4297 2.81253C10.3474 2.5418 10.198 2.34099 9.96093 2.18753C9.81543 2.11346 9.67729 2.0667 9.51904 2.03128C9.37499 1.99222 9.37499 1.99222 9.29687 1.87503C9.28916 1.7955 9.28467 1.71564 9.28222 1.63578C9.2585 1.29113 9.18372 1.07954 8.92822 0.842319C8.67831 0.627183 8.46568 0.606876 8.14224 0.613285C7.81791 0.641631 7.65634 0.803504 7.44781 1.04236ZM2.64037 1.8729C2.46096 2.1042 2.4386 2.32072 2.44384 2.60608C2.46617 2.77373 2.52943 2.89298 2.61199 3.03852C2.67767 3.16692 2.68381 3.25789 2.65624 3.39847C2.57323 3.49124 2.57323 3.49124 2.46093 3.59378C2.26956 3.84504 2.12715 4.07946 2.13592 4.4057C2.17159 4.6524 2.28195 4.90415 2.46093 5.07816C2.62232 5.19436 2.78391 5.27878 2.96874 5.3516C3.01902 5.45215 3.01271 5.54228 3.01515 5.65291C3.02464 6.00283 3.06257 6.28382 3.30489 6.55445C3.44188 6.6814 3.5908 6.7641 3.76174 6.83765C3.82812 6.87503 3.82812 6.87503 3.90624 6.99222C3.9078 7.07767 3.90567 7.16321 3.90136 7.24857C3.89758 7.58192 3.9599 7.83127 4.187 8.08109C4.42703 8.29665 4.67938 8.38794 5.00167 8.37802C5.13636 8.35632 5.24787 8.31217 5.37353 8.25931C5.60652 8.16315 5.77244 8.12765 6.01562 8.20316C6.17688 8.27296 6.33122 8.35149 6.48437 8.43753C6.37867 8.15995 6.24963 7.90406 6.01562 7.71488C5.75664 7.50137 5.63586 7.25949 5.56884 6.93363C5.46966 6.48759 5.19583 6.10625 4.96297 5.71985C4.83584 5.50753 4.71299 5.2928 4.58984 5.07816C4.54159 4.99448 4.49332 4.91081 4.44503 4.82715C4.42093 4.78538 4.39683 4.7436 4.372 4.70056C4.30667 4.58734 4.24134 4.47412 4.176 4.3609C4.13567 4.29102 4.09534 4.22114 4.05502 4.15126C4.00441 4.06357 3.9538 3.97589 3.90319 3.8882C3.85847 3.81071 3.81384 3.73317 3.76931 3.65556C3.73339 3.59352 3.69697 3.53176 3.65972 3.47051C3.58364 3.34439 3.55468 3.28637 3.55468 3.1348C3.59374 3.00785 3.59374 3.00785 3.65722 2.92972C3.79403 2.87212 3.88098 2.89328 4.02343 2.92972C4.10802 3.02634 4.10802 3.02634 4.17815 3.15357C4.19107 3.17632 4.20398 3.19907 4.21729 3.22251C4.24425 3.27019 4.27082 3.3181 4.297 3.36622C4.3572 3.4765 4.42089 3.58475 4.48394 3.69342C4.53396 3.78142 4.58391 3.86947 4.63378 3.95755C4.68814 4.05321 4.74258 4.14882 4.79705 4.24442C4.81066 4.26831 4.82427 4.29221 4.83829 4.31682C5.02136 4.6378 5.2082 4.95658 5.39489 5.27545C5.48563 5.43048 5.57531 5.58605 5.66405 5.74222C5.68984 5.71644 5.71562 5.69066 5.74218 5.6641C5.72853 5.63524 5.71489 5.60639 5.70083 5.57666C5.50463 5.13925 5.4628 4.76366 5.58593 4.29691C5.61675 4.23137 5.64846 4.16623 5.68114 4.1016C5.73609 3.97628 5.74784 3.9263 5.71014 3.79291C5.67416 3.71304 5.637 3.63369 5.59875 3.55487C5.43426 3.18284 5.51697 2.76897 5.62988 2.39261C5.64115 2.36361 5.65243 2.3346 5.66405 2.30472C5.49168 2.17683 5.32764 2.14706 5.11718 2.14847C5.0369 2.16356 4.96056 2.18449 4.88219 2.20737C4.74721 2.24085 4.63093 2.23835 4.49218 2.2266C4.39168 2.14645 4.33521 2.04799 4.27001 1.93851C4.11791 1.70697 3.94341 1.60428 3.68652 1.51126C3.27603 1.42765 2.91872 1.56146 2.64037 1.8729ZM12.4077 8.77262C12.1296 8.92258 11.8802 8.96086 11.5674 8.94779C11.5024 8.94545 11.4374 8.94345 11.3724 8.94184C11.3441 8.94068 11.3159 8.93953 11.2868 8.93834C11.1981 8.94046 11.1981 8.94046 11.0937 9.02347C11.0937 9.04925 11.0937 9.07503 11.0937 9.1016C11.1751 9.14557 11.2565 9.18951 11.3379 9.23343C11.4059 9.27014 11.4059 9.27014 11.4752 9.30759C11.5169 9.32985 11.5586 9.3521 11.6016 9.37503C11.6422 9.40041 11.6422 9.40041 11.6836 9.4263C11.7904 9.46496 11.8519 9.43565 11.958 9.39945C12.3738 9.27504 12.7603 9.32195 13.147 9.51419C13.5157 9.7277 13.7267 10.0317 13.8672 10.4297C13.9814 10.8952 13.8831 11.3354 13.6719 11.7578C14.0586 11.7385 14.0586 11.7385 14.4531 11.7188C14.6722 11.0616 14.6866 10.4542 14.375 9.82425C14.0559 9.26796 13.5906 8.86435 12.9639 8.69037C12.9397 8.68428 12.9155 8.67819 12.8906 8.67191C12.8519 8.65902 12.8133 8.64613 12.7734 8.63285C12.6198 8.63285 12.5347 8.69034 12.4077 8.77262ZM4.84374 10.2344C4.817 10.2579 4.79027 10.2814 4.76272 10.3057C4.13884 10.8903 3.73796 11.7824 3.70162 12.6339C3.67794 13.6717 4.00156 14.5583 4.71198 15.3182C5.16708 15.7861 5.70653 16.0791 6.32834 16.2688C6.90059 16.4435 7.42404 16.6368 7.73337 17.1847C7.80456 17.3286 7.84686 17.4803 7.89123 17.6342C7.9065 17.6856 7.9065 17.6856 7.92209 17.7381C7.95424 17.8466 7.98591 17.9553 8.01757 18.064C8.03941 18.138 8.06128 18.2121 8.08318 18.2861C8.13655 18.4667 8.18948 18.6474 8.24218 18.8282C8.26796 18.8282 8.29374 18.8282 8.32031 18.8282C8.33385 18.7793 8.34739 18.7305 8.36134 18.6802C8.41242 18.4971 8.46497 18.3145 8.51795 18.132C8.54058 18.0533 8.56281 17.9745 8.58464 17.8956C8.75661 17.2752 8.92443 16.8843 9.49798 16.5418C9.67242 16.4519 9.85215 16.3869 10.0391 16.3282C10.0777 16.3153 10.1164 16.3024 10.1562 16.2891C10.1568 16.2562 10.1568 16.2562 10.1573 16.2226C10.1807 15.0959 10.4111 14.0315 11.1719 13.1641C11.1954 13.135 11.2189 13.1059 11.2431 13.0759C11.628 12.6127 12.1746 12.2476 12.7344 12.0313C12.6831 11.2795 12.1027 10.5678 11.5602 10.0917C10.8021 9.48667 9.96633 9.29149 9.01977 9.28897C8.97741 9.28881 8.97741 9.28881 8.9342 9.28864C8.78455 9.28806 8.6349 9.28769 8.48525 9.28752C8.33258 9.28731 8.17992 9.28638 8.02725 9.28526C7.9082 9.28452 7.78916 9.28433 7.67011 9.28427C7.61393 9.28415 7.55775 9.28385 7.50157 9.28333C6.50468 9.27474 5.59439 9.5679 4.84374 10.2344ZM12.3047 9.92191C12.318 9.93948 12.3313 9.95706 12.345 9.97516C12.3859 10.0295 12.4267 10.0841 12.4673 10.1387C12.5153 10.2027 12.5639 10.266 12.6132 10.3289C12.8426 10.6285 13.0038 10.9494 13.1641 11.2891C13.3064 11.1529 13.3155 11.0711 13.3325 10.8741C13.3276 10.6338 13.2508 10.4151 13.0951 10.2311C12.8903 10.04 12.6833 9.92964 12.4023 9.91458C12.354 9.91821 12.354 9.91821 12.3047 9.92191ZM12.0703 13.125C12.0404 13.1486 12.0106 13.1721 11.9798 13.1963C11.34 13.727 10.9112 14.5548 10.7938 15.3734C10.6966 16.4173 10.9588 17.3461 11.6196 18.1662C12.237 18.8924 13.1213 19.3165 14.0649 19.4117C15.0001 19.4476 15.8872 19.1647 16.6016 18.5547C16.6236 18.5383 16.6457 18.5218 16.6684 18.5048C17.3341 17.9907 17.7211 17.1065 17.8392 16.2947C17.9338 15.355 17.6891 14.4216 17.1094 13.6719C16.5279 12.9803 15.7168 12.4554 14.8047 12.3438C13.7725 12.2869 12.8851 12.4555 12.0703 13.125Z" fill="#DC133B"/>
<path d="M16.0064 13.5274C16.1494 13.6446 16.2788 13.7724 16.4067 13.9058C16.4335 13.9333 16.4604 13.9607 16.488 13.989C16.792 14.3168 17.0615 14.7564 17.0927 15.212C17.0708 15.3511 17.0708 15.3511 16.9877 15.4488C16.8563 15.5174 16.7872 15.5322 16.6411 15.5074C16.485 15.3849 16.4261 15.2303 16.3554 15.0508C16.248 14.7928 16.1287 14.5817 15.9379 14.3746C15.9176 14.3507 15.8974 14.3269 15.8764 14.3024C15.5191 13.9087 14.9995 13.6944 14.4752 13.6635C13.8226 13.6552 13.2139 13.8321 12.7348 14.2964C12.3257 14.7533 12.0837 15.3278 12.1002 15.9465C12.1573 16.5866 12.4137 17.1578 12.9072 17.5803C13.4391 17.9712 13.9977 18.1047 14.6489 18.0464C15.2188 17.9483 15.7472 17.6578 16.0942 17.1871C16.2165 16.9877 16.3115 16.7753 16.4067 16.5621C16.5092 16.3375 16.5092 16.3375 16.6411 16.2496C16.7965 16.2259 16.8578 16.2379 16.9902 16.3252C17.0872 16.4693 17.089 16.5294 17.059 16.6956C16.9547 17.0808 16.7706 17.3844 16.5239 17.6949C16.4988 17.7277 16.4736 17.7605 16.4477 17.7944C16.0025 18.327 15.2794 18.6564 14.5945 18.719C13.7743 18.7703 13.0307 18.5676 12.4011 18.0191C11.8101 17.4657 11.4983 16.7844 11.4371 15.9789C11.4105 15.1254 11.7365 14.392 12.3109 13.7769C12.6534 13.4491 13.1024 13.2174 13.5551 13.0855C13.5983 13.0724 13.5983 13.0724 13.6424 13.059C14.4293 12.8609 15.3562 13.0406 16.0064 13.5274Z" fill="#DC133B"/>
<path d="M15.2515 14.5804C15.5622 14.8171 15.7868 15.1593 15.8594 15.5472C15.8994 16.0875 15.8313 16.5222 15.4716 16.9521C15.1485 17.2691 14.7639 17.4237 14.3164 17.4368C13.8932 17.4249 13.5196 17.2862 13.2028 16.9997C12.8989 16.674 12.755 16.3035 12.7344 15.8597C12.7538 15.4415 12.8829 15.0632 13.17 14.7527C13.7682 14.2152 14.5731 14.1353 15.2515 14.5804ZM13.5938 15.2347C13.4033 15.4709 13.3651 15.6987 13.3774 15.9987C13.4172 16.253 13.5251 16.4328 13.7212 16.5984C13.9703 16.7725 14.189 16.8321 14.4922 16.7972C14.8249 16.698 15.0163 16.5054 15.1953 16.2113C15.2741 15.975 15.2782 15.6869 15.1758 15.4569C15.0293 15.2094 14.8028 15.025 14.5285 14.9391C14.1783 14.8604 13.8383 14.979 13.5938 15.2347Z" fill="#DC133B"/>
</g>
<defs>
<clipPath id="clip0_2568_2503">
<rect width="20" height="20" fill="white"/>
</clipPath>
</defs>
</svg>
