<svg width="20" height="20" viewBox="0 0 20 20" fill="none" xmlns="http://www.w3.org/2000/svg">
<g clip-path="url(#clip0_1602_2529)">
<path d="M9.14736 0.206485C9.53282 0.473109 9.75234 0.802103 9.88329 1.25003C9.88803 1.29203 9.89276 1.33402 9.89764 1.37729C9.91092 1.48818 9.91092 1.48818 9.99483 1.53736C10.0399 1.55344 10.0399 1.55344 10.0859 1.56986C10.2021 1.61283 10.2867 1.64919 10.3911 1.71878C10.5007 1.76864 10.5007 1.76864 10.5788 1.73297C10.6358 1.70404 10.6927 1.67493 10.7495 1.64569C11.0254 1.53541 11.359 1.51778 11.6533 1.52927C11.7925 1.53722 11.7925 1.53722 11.8668 1.4719C11.8817 1.44863 11.8967 1.42537 11.9121 1.4014C12.1479 1.08658 12.4814 0.955359 12.8545 0.871616C13.3768 0.816052 13.8163 0.951684 14.2266 1.27918C14.5295 1.55516 14.7122 1.921 14.735 2.32959C14.7359 2.38233 14.7365 2.43508 14.7368 2.48783C14.7371 2.51555 14.7374 2.54327 14.7377 2.57184C14.7365 2.73857 14.7164 2.8683 14.6538 3.02494C14.6106 3.14294 14.5996 3.1808 14.6529 3.2967C14.6953 3.35735 14.7394 3.41693 14.785 3.47522C14.8624 3.57908 14.8833 3.66017 14.8833 3.7891C14.8395 3.92037 14.8073 3.94392 14.688 4.02347C14.5497 4.04151 14.4781 4.03856 14.3584 3.96488C14.2487 3.85789 14.1483 3.74581 14.0492 3.62903C13.9873 3.55457 13.9873 3.55457 13.9192 3.49521C13.8431 3.41002 13.8474 3.325 13.8506 3.2146C13.8709 3.10817 13.912 3.03361 13.9653 2.93949C14.1017 2.68649 14.1077 2.44439 14.0384 2.16739C13.9388 1.90464 13.7572 1.72723 13.5109 1.59641C13.243 1.4898 12.9764 1.4998 12.7085 1.60266C12.4621 1.73166 12.3375 1.89681 12.2026 2.13703C12.1489 2.2266 12.1489 2.2266 12.0708 2.26566C11.8866 2.2757 11.7307 2.26167 11.5508 2.22171C11.32 2.17516 11.125 2.2088 10.8989 2.26566C10.9158 2.29995 10.9158 2.29995 10.9331 2.33493C11.1102 2.74458 11.1324 3.22816 10.9795 3.64994C10.9534 3.70968 10.9267 3.76917 10.8989 3.82816C10.852 3.96884 10.8703 3.99026 10.9331 4.11869C11.1038 4.4714 11.1155 4.91638 11.0202 5.29529C10.9831 5.39412 10.9418 5.48956 10.8989 5.58597C10.8989 5.61175 10.8989 5.63753 10.8989 5.6641C10.9136 5.63865 10.9283 5.6132 10.9434 5.58698C10.9642 5.5509 10.985 5.51481 11.0065 5.47763C11.0299 5.43702 11.0534 5.39641 11.0775 5.35456C11.13 5.2636 11.1825 5.17264 11.2349 5.08168C11.3954 4.80363 11.5557 4.52551 11.7159 4.24731C11.789 4.12043 11.8624 3.99366 11.9358 3.86692C12.0206 3.72031 12.1045 3.57329 12.1875 3.42563C12.2219 3.36531 12.2562 3.30499 12.2905 3.24466C12.3053 3.21787 12.32 3.19108 12.3352 3.16348C12.4216 3.01287 12.4962 2.92186 12.6567 2.8516C12.8095 2.8516 12.8708 2.87298 12.9863 2.97367C13.0499 3.0907 13.0576 3.14494 13.035 3.274C12.9733 3.47104 12.8552 3.64486 12.7495 3.82083C12.7229 3.86585 12.6964 3.91088 12.6699 3.95595C12.6149 4.04945 12.5598 4.14283 12.5044 4.23612C12.3774 4.45056 12.2536 4.66679 12.1294 4.88285C12.0811 4.96652 12.0329 5.05019 11.9846 5.13385C11.9605 5.17563 11.9364 5.2174 11.9115 5.26044C11.8462 5.37367 11.7809 5.48689 11.7155 5.6001C11.6752 5.66998 11.6349 5.73986 11.5946 5.80974C11.544 5.89743 11.4934 5.98512 11.4427 6.0728C11.398 6.15041 11.3532 6.22807 11.3086 6.30578C11.2734 6.36666 11.2378 6.42731 11.2013 6.48749C11.1174 6.62731 11.0682 6.75204 11.0356 6.91165C10.9327 7.34758 10.714 7.62318 10.3868 7.9285C10.3039 8.01759 10.2575 8.10318 10.2056 8.21292C10.1888 8.24777 10.1721 8.28261 10.1549 8.31851C10.1426 8.3449 10.1303 8.37129 10.1177 8.39847C10.154 8.37873 10.1903 8.35899 10.2277 8.33866C10.2764 8.31299 10.3252 8.28736 10.374 8.26175C10.3978 8.24871 10.4216 8.23567 10.4461 8.22223C10.616 8.13414 10.7428 8.10367 10.938 8.12503C11.0607 8.16776 11.0607 8.16776 11.1821 8.22269C11.4599 8.33405 11.6915 8.38089 11.9808 8.28571C12.2653 8.15787 12.4578 7.98215 12.5737 7.69046C12.6319 7.49715 12.6203 7.30974 12.6065 7.11002C12.6209 6.95857 12.6662 6.90244 12.7739 6.79691C12.8664 6.7461 12.8664 6.7461 12.9643 6.70658C13.2054 6.59385 13.3241 6.43542 13.4432 6.20258C13.4974 6.02825 13.4911 5.8515 13.4923 5.66997C13.4967 5.5324 13.5031 5.44713 13.5866 5.33527C13.6638 5.27961 13.731 5.24066 13.8188 5.20511C13.9906 5.12503 14.1043 5.00895 14.2324 4.8714C14.3204 4.78107 14.3609 4.76693 14.4878 4.75589C14.6264 4.76698 14.675 4.77829 14.7661 4.88285C14.807 5.02999 14.822 5.11704 14.7612 5.25882C14.6589 5.38848 14.5586 5.50941 14.4133 5.59207C14.3183 5.64852 14.2515 5.6963 14.1802 5.78128C14.1475 5.91582 14.1357 6.04611 14.1237 6.18396C14.0828 6.45653 13.9407 6.68739 13.7895 6.9141C13.8102 6.92331 13.8308 6.93253 13.8521 6.94203C14.7567 7.34919 14.7567 7.34919 14.9614 7.65628C14.9544 7.78654 14.9441 7.89011 14.8809 8.0054C14.7573 8.07317 14.6288 8.06544 14.4927 8.04691C14.3926 7.99668 14.31 7.94865 14.2192 7.88578C13.9225 7.69311 13.616 7.57297 13.2817 7.46097C13.277 7.48927 13.2723 7.51757 13.2674 7.54673C13.2329 7.74554 13.1972 7.93553 13.1255 8.12503C13.1651 8.12901 13.2047 8.13299 13.2456 8.13709C13.6611 8.21026 14.0285 8.4732 14.3364 8.75003C14.3603 8.77028 14.3842 8.79052 14.4087 8.81137C14.7739 9.1432 15.0122 9.61358 15.1567 10.0782C15.1711 10.1233 15.1711 10.1233 15.1857 10.1693C15.3191 10.6908 15.26 11.2853 15.1177 11.7969C15.1636 11.8017 15.2095 11.8066 15.2568 11.8116C15.4122 11.8307 15.5543 11.8674 15.7036 11.9141C15.7226 11.8605 15.7412 11.8067 15.7598 11.753C15.7702 11.7231 15.7806 11.6931 15.7913 11.6623C16.0444 10.8048 15.8324 9.87251 15.4212 9.10648C15.3534 8.98344 15.3534 8.98344 15.2739 8.86722C15.2551 8.72319 15.265 8.65 15.3325 8.52054C15.4425 8.42708 15.5176 8.41319 15.6607 8.40778C15.8809 8.48774 15.997 8.76355 16.0942 8.96244C16.1076 8.98954 16.1209 9.01664 16.1347 9.04456C16.4124 9.62314 16.5393 10.2005 16.5386 10.8423C16.5386 10.89 16.5387 10.9377 16.5387 10.9869C16.5347 11.3326 16.4933 11.6498 16.4018 11.9826C16.3626 12.1064 16.3626 12.1064 16.3677 12.2266C16.4492 12.2898 16.4492 12.2898 16.5557 12.3487C16.9192 12.5709 17.2359 12.8294 17.5005 13.1641C17.5419 13.2145 17.5419 13.2145 17.5843 13.2659C18.2639 14.1238 18.5729 15.2139 18.4683 16.3014C18.3658 17.154 18.0438 17.8917 17.5005 18.5547C17.4732 18.5884 17.446 18.6221 17.4179 18.6568C16.7931 19.3913 15.8386 19.8896 14.8833 20C13.6733 20.0838 12.5876 19.8597 11.6411 19.0625C11.6103 19.0374 11.5795 19.0123 11.5477 18.9864C10.98 18.5034 10.4918 17.8016 10.313 17.0703C10.313 17.0188 10.313 16.9672 10.313 16.9141C9.93674 17.0036 9.588 17.1604 9.37548 17.5C9.3105 17.6639 9.26391 17.8321 9.21664 18.0017C9.1951 18.0759 9.17357 18.1501 9.15201 18.2242C9.1221 18.3276 9.09272 18.4311 9.06334 18.5346C9.01192 18.7158 8.96016 18.8969 8.90767 19.0778C8.87982 19.174 8.85237 19.2702 8.82536 19.3666C8.76099 19.5894 8.70469 19.7812 8.55517 19.961C8.46122 20.0079 8.3939 20.0106 8.28906 20.0147C8.25577 20.0166 8.22249 20.0185 8.18819 20.0205C8.03943 19.9906 7.98869 19.9196 7.89111 19.8047C7.8413 19.704 7.8087 19.6002 7.77636 19.4927C7.76667 19.4621 7.75697 19.4315 7.74699 19.4C7.61929 18.9919 7.50535 18.5789 7.39306 18.1663C7.36442 18.0615 7.33487 17.9569 7.30517 17.8524C7.29686 17.8209 7.28855 17.7895 7.27999 17.7572C7.19079 17.4487 7.01111 17.2367 6.73386 17.0755C6.54213 16.9841 6.33839 16.9272 6.13573 16.8653C5.5051 16.6631 4.98916 16.4202 4.49267 15.9766C4.469 15.9585 4.44534 15.9403 4.42095 15.9217C3.66881 15.3426 3.23005 14.3003 3.09866 13.3876C2.97166 12.2846 3.23722 11.2073 3.91146 10.3208C4.44943 9.64388 5.09296 9.17661 5.89892 8.86722C5.83183 8.81957 5.83183 8.81957 5.74267 8.7891C5.64466 8.81215 5.64466 8.81215 5.54736 8.8599C5.12896 9.04677 4.67278 9.04104 4.24456 8.87744C4.08653 8.80216 3.95847 8.71044 3.82861 8.59378C3.80454 8.57329 3.78047 8.5528 3.75567 8.53168C3.48777 8.28735 3.34352 7.97112 3.28173 7.61722C3.2764 7.49966 3.27683 7.38322 3.28173 7.26566C3.25595 7.25841 3.23017 7.25116 3.20361 7.24369C2.87808 7.0877 2.63603 6.79847 2.50048 6.46701C2.44474 6.29604 2.42153 6.1512 2.42236 5.97171C2.41259 5.83539 2.39782 5.7945 2.2951 5.70102C2.21922 5.64954 2.14269 5.59901 2.06561 5.54935C1.76838 5.33554 1.62087 5.00246 1.53613 4.6558C1.48909 4.17603 1.54694 3.76902 1.83398 3.36917C1.93046 3.2371 1.93046 3.2371 1.94506 3.08261C1.92216 3.02727 1.89795 2.97246 1.87273 2.91812C1.75843 2.58579 1.80026 2.13741 1.9385 1.81873C2.20167 1.33315 2.52571 1.06937 3.04736 0.898471C3.4937 0.791349 3.94745 0.884795 4.33764 1.12018C4.47791 1.21453 4.60996 1.3073 4.70339 1.45099C4.75891 1.53085 4.75891 1.53085 4.84377 1.53598C4.87373 1.53347 4.90369 1.53095 4.93456 1.52835C5.25371 1.51621 5.59828 1.53083 5.88183 1.68949C6.00627 1.7703 6.00627 1.7703 6.11376 1.73831C6.14599 1.71898 6.17822 1.69964 6.21142 1.67972C6.26496 1.65253 6.31868 1.6257 6.37255 1.59915C6.39843 1.58581 6.42431 1.57247 6.45098 1.55872C6.52392 1.52347 6.52392 1.52347 6.64111 1.48441C6.67304 1.37926 6.67304 1.37926 6.69238 1.25248C6.77759 0.850982 6.97905 0.526454 7.30517 0.273471C7.87635 -0.0635111 8.55929 -0.143381 9.14736 0.206485ZM7.4483 1.04236C7.32208 1.21806 7.29485 1.37056 7.2832 1.58451C7.27521 1.72548 7.26719 1.85651 7.22704 1.99222C7.19683 1.99841 7.16662 2.00461 7.13549 2.01099C6.73271 2.10122 6.45239 2.23539 6.21142 2.57816C6.08087 2.8206 6.07348 3.08571 6.13802 3.34796C6.17741 3.45072 6.23031 3.52892 6.29443 3.6182C6.37311 3.73022 6.40671 3.78902 6.43603 3.92582C6.40664 4.06298 6.37437 4.1175 6.29443 4.22855C6.13699 4.44791 6.08499 4.66757 6.09911 4.93686C6.12842 5.11207 6.19165 5.23184 6.29443 5.37601C6.37311 5.48803 6.40671 5.54683 6.43603 5.68363C6.40064 5.84877 6.32706 5.94318 6.23003 6.07883C6.09824 6.29152 6.07787 6.51855 6.11376 6.76273C6.18206 7.04298 6.36275 7.26433 6.60204 7.42191C6.77946 7.51801 6.92899 7.54846 7.12939 7.57328C7.35142 7.60579 7.50843 7.63791 7.65673 7.81253C7.73555 7.93442 7.80738 8.05779 7.87615 8.18561C7.89398 8.21718 7.9118 8.24876 7.93017 8.28128C7.94306 8.28128 7.95595 8.28128 7.96923 8.28128C8.07207 7.39441 8.07207 7.39441 7.81923 6.58016C7.7306 6.47931 7.6379 6.38457 7.54069 6.292C7.38289 6.13071 7.25402 5.94496 7.11962 5.76419C7.06616 5.69422 7.01266 5.62428 6.9591 5.55439C6.81913 5.37145 6.78071 5.27632 6.79736 5.0391C6.83642 4.96341 6.83642 4.96341 6.91454 4.92191C7.09762 4.87373 7.09762 4.87373 7.22704 4.92191C7.37788 5.06246 7.49743 5.2242 7.61767 5.39066C7.64864 5.43293 7.67962 5.47519 7.71059 5.51746C7.76489 5.59216 7.81867 5.66725 7.87173 5.74283C7.89101 5.76841 7.9103 5.79399 7.93017 5.82035C7.94306 5.82035 7.95595 5.82035 7.96923 5.82035C8.04311 5.21426 8.04311 5.21426 7.84721 4.6629C7.77103 4.57672 7.69182 4.49416 7.6108 4.41253C7.4632 4.25394 7.33746 4.07691 7.20751 3.90384C7.1804 3.86846 7.15328 3.83308 7.12534 3.79662C7.09969 3.76307 7.07403 3.72952 7.0476 3.69495C7.02476 3.66509 7.00193 3.63522 6.9784 3.60446C6.76445 3.30694 6.76445 3.30694 6.79736 3.08597C6.87904 2.96659 6.92599 2.93501 7.06835 2.90775C7.33704 2.9571 7.51002 3.28315 7.6665 3.4888C7.71542 3.55303 7.76444 3.61717 7.81359 3.68122C7.84579 3.72354 7.84579 3.72354 7.87863 3.76671C7.89564 3.78699 7.91265 3.80727 7.93017 3.82816C7.94306 3.82816 7.95595 3.82816 7.96923 3.82816C7.97001 3.78144 7.97078 3.73472 7.97158 3.68659C7.97455 3.51339 7.97801 3.34021 7.98163 3.16702C7.98313 3.09204 7.98449 3.01706 7.98571 2.94207C7.98749 2.83434 7.98976 2.72662 7.99212 2.6189C7.9928 2.56854 7.9928 2.56854 7.99349 2.51716C7.99426 2.48589 7.99504 2.45462 7.99584 2.4224C7.99636 2.3949 7.99688 2.3674 7.99742 2.33907C8.00829 2.26566 8.00829 2.26566 8.08642 2.14847C8.22202 2.11583 8.31909 2.09546 8.45263 2.14115C8.51611 2.18753 8.51611 2.18753 8.55517 2.26566C8.56131 2.38236 8.56527 2.49829 8.56753 2.61509C8.56834 2.64966 8.56915 2.68423 8.56999 2.71984C8.57255 2.83049 8.57485 2.94114 8.57714 3.05179C8.57883 3.12671 8.58053 3.20163 8.58225 3.27655C8.58644 3.46042 8.5904 3.64429 8.59423 3.82816C8.71116 3.71412 8.81945 3.60093 8.91695 3.46988C8.94985 3.42615 8.94985 3.42615 8.98341 3.38153C9.00564 3.35167 9.02787 3.32181 9.05077 3.29105C9.09554 3.23093 9.14045 3.1709 9.18551 3.111C9.20513 3.08462 9.22475 3.05825 9.24497 3.03108C9.32213 2.93932 9.36792 2.93054 9.48779 2.91751C9.60986 2.92972 9.60986 2.92972 9.70263 2.9932C9.78585 3.11482 9.78227 3.17452 9.76611 3.32035C9.71567 3.41005 9.66718 3.48389 9.60497 3.56449C9.58787 3.58753 9.57076 3.61057 9.55313 3.63432C9.49464 3.71253 9.43519 3.78993 9.37548 3.86722C9.35291 3.89654 9.33034 3.92586 9.30708 3.95607C9.19118 4.10631 9.07463 4.25603 8.95739 4.40525C8.9361 4.433 8.9148 4.46076 8.89286 4.48936C8.82861 4.57035 8.82861 4.57035 8.76053 4.6437C8.55978 4.87163 8.56584 5.07663 8.57958 5.37113C8.58064 5.41443 8.5817 5.45774 8.58279 5.50235C8.58553 5.60843 8.58937 5.71435 8.59423 5.82035C8.76161 5.66287 8.89568 5.49037 9.03124 5.30521C9.07244 5.24927 9.11368 5.19337 9.15499 5.13752C9.17298 5.11298 9.19096 5.08845 9.20949 5.06318C9.25829 5.00003 9.25829 5.00003 9.33642 4.92191C9.61613 4.89527 9.61613 4.89527 9.72704 4.98539C9.77705 5.10415 9.7775 5.18413 9.76611 5.31253C9.71117 5.40912 9.71117 5.40912 9.62939 5.51029C9.59776 5.55037 9.56614 5.59045 9.53356 5.63175C9.51516 5.65473 9.49675 5.67772 9.47779 5.7014C9.34678 5.86687 9.22002 6.03565 9.09228 6.20365C9.06552 6.23862 9.03875 6.27359 9.01118 6.30963C8.98537 6.34339 8.95956 6.37715 8.93298 6.41193C8.91005 6.44188 8.88713 6.47183 8.86351 6.50269C8.8391 6.53533 8.81469 6.56797 8.78954 6.6016C8.77248 6.6217 8.75541 6.6418 8.73782 6.66251C8.59133 6.84462 8.56725 6.97904 8.57516 7.20935C8.57557 7.25559 8.57557 7.25559 8.57599 7.30277C8.57708 7.4003 8.57953 7.49774 8.58202 7.59525C8.583 7.66175 8.5839 7.72825 8.58469 7.79476C8.58684 7.95697 8.5902 8.11911 8.59423 8.28128C8.72131 8.15952 8.79265 8.0244 8.87576 7.87006C8.99803 7.70143 9.12697 7.6294 9.32879 7.58319C9.38174 7.57548 9.43474 7.56812 9.48779 7.56107C9.79957 7.51068 10.0136 7.42699 10.2275 7.19242C10.4347 6.8964 10.4711 6.64919 10.4302 6.2891C10.381 6.13627 10.309 6.01791 10.2056 5.89603C10.127 5.77434 10.1375 5.6884 10.1567 5.54691C10.1995 5.47255 10.2468 5.40859 10.3017 5.34275C10.477 5.10151 10.4569 4.81636 10.4302 4.53128C10.3822 4.37699 10.3095 4.26071 10.2056 4.13822C10.1255 4.01406 10.1353 3.93414 10.1567 3.7891C10.2106 3.69267 10.2704 3.60507 10.336 3.51627C10.4795 3.31124 10.4538 3.05137 10.4302 2.81253C10.3479 2.5418 10.1985 2.34099 9.96142 2.18753C9.81592 2.11346 9.67778 2.0667 9.51952 2.03128C9.37548 1.99222 9.37548 1.99222 9.29736 1.87503C9.28965 1.7955 9.28516 1.71564 9.28271 1.63578C9.25899 1.29113 9.18421 1.07954 8.9287 0.842319C8.6788 0.627183 8.46617 0.606876 8.14272 0.613285C7.81839 0.641631 7.65683 0.803504 7.4483 1.04236ZM2.64086 1.8729C2.46145 2.1042 2.43909 2.32072 2.44433 2.60608C2.46666 2.77373 2.52992 2.89298 2.61248 3.03852C2.67816 3.16692 2.6843 3.25789 2.65673 3.39847C2.57372 3.49124 2.57372 3.49124 2.46142 3.59378C2.27005 3.84504 2.12764 4.07946 2.13641 4.4057C2.17208 4.6524 2.28244 4.90415 2.46142 5.07816C2.62281 5.19436 2.7844 5.27878 2.96923 5.3516C3.01951 5.45215 3.0132 5.54228 3.01564 5.65291C3.02513 6.00283 3.06305 6.28382 3.30538 6.55445C3.44237 6.6814 3.59128 6.7641 3.76223 6.83765C3.82861 6.87503 3.82861 6.87503 3.90673 6.99222C3.90829 7.07767 3.90616 7.16321 3.90185 7.24857C3.89807 7.58192 3.96039 7.83127 4.18749 8.08109C4.42752 8.29665 4.67986 8.38794 5.00216 8.37802C5.13685 8.35632 5.24836 8.31217 5.37402 8.25931C5.60701 8.16315 5.77293 8.12765 6.01611 8.20316C6.17737 8.27296 6.33171 8.35149 6.48486 8.43753C6.37916 8.15995 6.25011 7.90406 6.01611 7.71488C5.75713 7.50137 5.63635 7.25949 5.56933 6.93363C5.47015 6.48759 5.19631 6.10625 4.96346 5.71985C4.83633 5.50753 4.71347 5.2928 4.59032 5.07816C4.54208 4.99448 4.49381 4.91081 4.44552 4.82715C4.42142 4.78538 4.39732 4.7436 4.37249 4.70056C4.30716 4.58734 4.24182 4.47412 4.17648 4.3609C4.13616 4.29102 4.09583 4.22114 4.0555 4.15126C4.0049 4.06357 3.95429 3.97589 3.90368 3.8882C3.85896 3.81071 3.81433 3.73317 3.7698 3.65556C3.73388 3.59352 3.69746 3.53176 3.66021 3.47051C3.58413 3.34439 3.55517 3.28637 3.55517 3.1348C3.59423 3.00785 3.59423 3.00785 3.65771 2.92972C3.79452 2.87212 3.88147 2.89328 4.02392 2.92972C4.10851 3.02634 4.10851 3.02634 4.17864 3.15357C4.19156 3.17632 4.20447 3.19907 4.21778 3.22251C4.24474 3.27019 4.27131 3.3181 4.29748 3.36622C4.35769 3.4765 4.42138 3.58475 4.48443 3.69342C4.53445 3.78142 4.58439 3.86947 4.63427 3.95755C4.68863 4.05321 4.74307 4.14882 4.79754 4.24442C4.81115 4.26831 4.82476 4.29221 4.83878 4.31682C5.02184 4.6378 5.20869 4.95658 5.39538 5.27545C5.48612 5.43048 5.57579 5.58605 5.66454 5.74222C5.69032 5.71644 5.71611 5.69066 5.74267 5.6641C5.72902 5.63524 5.71538 5.60639 5.70132 5.57666C5.50512 5.13925 5.46329 4.76366 5.58642 4.29691C5.61724 4.23137 5.64895 4.16623 5.68163 4.1016C5.73657 3.97628 5.74833 3.9263 5.71062 3.79291C5.67465 3.71304 5.63748 3.63369 5.59924 3.55487C5.43475 3.18284 5.51746 2.76897 5.63036 2.39261C5.64164 2.36361 5.65292 2.3346 5.66454 2.30472C5.49217 2.17683 5.32813 2.14706 5.11767 2.14847C5.03739 2.16356 4.96105 2.18449 4.88268 2.20737C4.7477 2.24085 4.63142 2.23835 4.49267 2.2266C4.39217 2.14645 4.3357 2.04799 4.2705 1.93851C4.1184 1.70697 3.9439 1.60428 3.687 1.51126C3.27652 1.42765 2.91921 1.56146 2.64086 1.8729ZM12.4082 8.77262C12.1301 8.92258 11.8807 8.96086 11.5679 8.94779C11.5029 8.94545 11.4379 8.94345 11.3729 8.94184C11.3446 8.94068 11.3164 8.93953 11.2873 8.93834C11.1986 8.94046 11.1986 8.94046 11.0942 9.02347C11.0942 9.04925 11.0942 9.07503 11.0942 9.1016C11.1756 9.14557 11.257 9.18951 11.3384 9.23343C11.4063 9.27014 11.4063 9.27014 11.4757 9.30759C11.5174 9.32985 11.5591 9.3521 11.602 9.37503C11.6427 9.40041 11.6427 9.40041 11.6841 9.4263C11.7909 9.46496 11.8524 9.43565 11.9585 9.39945C12.3743 9.27504 12.7608 9.32195 13.1475 9.51419C13.5162 9.7277 13.7271 10.0317 13.8677 10.4297C13.9818 10.8952 13.8836 11.3354 13.6724 11.7578C14.0591 11.7385 14.0591 11.7385 14.4536 11.7188C14.6727 11.0616 14.6871 10.4542 14.3755 9.82425C14.0564 9.26796 13.5911 8.86435 12.9643 8.69037C12.9402 8.68428 12.916 8.67819 12.8911 8.67191C12.8524 8.65902 12.8138 8.64613 12.7739 8.63285C12.6203 8.63285 12.5352 8.69034 12.4082 8.77262ZM4.84423 10.2344C4.81749 10.2579 4.79075 10.2814 4.76321 10.3057C4.13933 10.8903 3.73844 11.7824 3.70211 12.6339C3.67843 13.6717 4.00205 14.5583 4.71247 15.3182C5.16757 15.7861 5.70702 16.0791 6.32882 16.2688C6.90108 16.4435 7.42453 16.6368 7.73386 17.1847C7.80505 17.3286 7.84735 17.4803 7.89172 17.6342C7.90699 17.6856 7.90699 17.6856 7.92257 17.7381C7.95473 17.8466 7.9864 17.9553 8.01806 18.064C8.0399 18.138 8.06177 18.2121 8.08367 18.2861C8.13703 18.4667 8.18997 18.6474 8.24267 18.8282C8.26845 18.8282 8.29423 18.8282 8.32079 18.8282C8.33434 18.7793 8.34788 18.7305 8.36183 18.6802C8.41291 18.4971 8.46546 18.3145 8.51844 18.132C8.54107 18.0533 8.5633 17.9745 8.58512 17.8956C8.7571 17.2752 8.92491 16.8843 9.49847 16.5418C9.67291 16.4519 9.85264 16.3869 10.0395 16.3282C10.0782 16.3153 10.1169 16.3024 10.1567 16.2891C10.1573 16.2562 10.1573 16.2562 10.1578 16.2226C10.1811 15.0959 10.4115 14.0315 11.1724 13.1641C11.1959 13.135 11.2194 13.1059 11.2436 13.0759C11.6285 12.6127 12.1751 12.2476 12.7349 12.0313C12.6836 11.2795 12.1032 10.5678 11.5607 10.0917C10.8026 9.48667 9.96682 9.29149 9.02026 9.28897C8.9779 9.28881 8.9779 9.28881 8.93469 9.28864C8.78504 9.28806 8.63539 9.28769 8.48574 9.28752C8.33307 9.28731 8.18041 9.28638 8.02774 9.28526C7.90869 9.28452 7.78965 9.28433 7.67059 9.28427C7.61442 9.28415 7.55824 9.28385 7.50206 9.28333C6.50517 9.27474 5.59488 9.5679 4.84423 10.2344ZM12.3052 9.92191C12.3185 9.93948 12.3318 9.95706 12.3455 9.97516C12.3864 10.0295 12.4272 10.0841 12.4678 10.1387C12.5157 10.2027 12.5644 10.266 12.6137 10.3289C12.8431 10.6285 13.0043 10.9494 13.1645 11.2891C13.3069 11.1529 13.316 11.0711 13.333 10.8741C13.3281 10.6338 13.2513 10.4151 13.0956 10.2311C12.8908 10.04 12.6838 9.92964 12.4028 9.91458C12.3545 9.91821 12.3545 9.91821 12.3052 9.92191ZM12.0708 13.125C12.0409 13.1486 12.0111 13.1721 11.9803 13.1963C11.3405 13.727 10.9116 14.5548 10.7942 15.3734C10.6971 16.4173 10.9593 17.3461 11.62 18.1662C12.2375 18.8924 13.1217 19.3165 14.0654 19.4117C15.0006 19.4476 15.8877 19.1647 16.602 18.5547C16.6241 18.5383 16.6462 18.5218 16.6689 18.5048C17.3346 17.9907 17.7216 17.1065 17.8397 16.2947C17.9342 15.355 17.6896 14.4216 17.1099 13.6719C16.5283 12.9803 15.7173 12.4554 14.8052 12.3438C13.773 12.2869 12.8856 12.4555 12.0708 13.125Z" fill="#DC143C"/>
<path d="M16.0064 13.5271C16.1494 13.6443 16.2788 13.7722 16.4067 13.9056C16.4335 13.933 16.4604 13.9605 16.488 13.9887C16.792 14.3165 17.0615 14.7562 17.0927 15.2117C17.0708 15.3509 17.0708 15.3509 16.9877 15.4485C16.8563 15.5171 16.7872 15.532 16.6411 15.5071C16.485 15.3846 16.4261 15.23 16.3554 15.0506C16.248 14.7926 16.1287 14.5815 15.9379 14.3743C15.9176 14.3505 15.8974 14.3267 15.8764 14.3021C15.5191 13.9085 14.9995 13.6942 14.4752 13.6633C13.8226 13.6549 13.2139 13.8318 12.7348 14.2962C12.3257 14.753 12.0837 15.3276 12.1002 15.9463C12.1573 16.5863 12.4137 17.1576 12.9072 17.58C13.4391 17.9709 13.9977 18.1045 14.6489 18.0462C15.2188 17.9481 15.7472 17.6576 16.0942 17.1868C16.2165 16.9875 16.3115 16.775 16.4067 16.5618C16.5092 16.3372 16.5092 16.3372 16.6411 16.2493C16.7965 16.2257 16.8578 16.2377 16.9902 16.325C17.0872 16.469 17.089 16.5291 17.059 16.6953C16.9547 17.0805 16.7706 17.3841 16.5239 17.6946C16.4988 17.7275 16.4736 17.7603 16.4477 17.7941C16.0025 18.3267 15.2794 18.6562 14.5945 18.7188C13.7743 18.7701 13.0307 18.5673 12.4011 18.0189C11.8101 17.4655 11.4983 16.7842 11.4371 15.9786C11.4105 15.1251 11.7365 14.3918 12.3109 13.7766C12.6534 13.4488 13.1024 13.2172 13.5551 13.0853C13.5983 13.0721 13.5983 13.0721 13.6424 13.0587C14.4293 12.8606 15.3562 13.0404 16.0064 13.5271Z" fill="#DC143C"/>
<path d="M15.2515 14.5804C15.5622 14.8171 15.7868 15.1593 15.8594 15.5472C15.8994 16.0875 15.8313 16.5222 15.4716 16.9521C15.1485 17.2691 14.7639 17.4237 14.3164 17.4368C13.8932 17.4249 13.5196 17.2862 13.2028 16.9997C12.8989 16.674 12.755 16.3035 12.7344 15.8597C12.7538 15.4415 12.8829 15.0632 13.17 14.7527C13.7682 14.2152 14.5731 14.1353 15.2515 14.5804ZM13.5938 15.2347C13.4033 15.4709 13.3651 15.6987 13.3774 15.9987C13.4172 16.253 13.5251 16.4328 13.7212 16.5984C13.9703 16.7725 14.189 16.8321 14.4922 16.7972C14.8249 16.698 15.0163 16.5054 15.1953 16.2113C15.2741 15.975 15.2782 15.6869 15.1758 15.4569C15.0293 15.2094 14.8028 15.025 14.5285 14.9391C14.1783 14.8604 13.8383 14.979 13.5938 15.2347Z" fill="#DC143C"/>
</g>
<defs>
<clipPath id="clip0_1602_2529">
<rect width="20" height="20" fill="white"/>
</clipPath>
</defs>
</svg>
