<svg width="16" height="16" viewBox="0 0 16 16" fill="none" xmlns="http://www.w3.org/2000/svg">
<path d="M7.8125 0.9375C4.01562 0.9375 0.9375 4.01562 0.9375 7.8125C0.9375 7.91563 0.940625 8.01875 0.94375 8.11875C0.54375 8.17187 0.234375 8.50938 0.234375 8.925C0.234375 9.375 0.6 9.74063 1.05 9.74063H1.2125C2.04688 12.6 4.68437 14.6875 7.8125 14.6875C11.6094 14.6875 14.6875 11.6094 14.6875 7.8125C14.6875 4.01562 11.6094 0.9375 7.8125 0.9375Z" fill="#FFD46A"/>
<path d="M14.678 8.11895C14.6812 8.01582 14.6843 7.91582 14.6843 7.8127C14.6843 5.9752 13.9624 4.30957 12.7874 3.0752C13.453 4.1502 13.8343 5.41895 13.8343 6.7752C13.8343 10.6752 10.6718 13.8377 6.77178 13.8377C5.41553 13.8377 4.14678 13.4533 3.07178 12.7908C4.30615 13.9658 5.9749 14.6877 7.8124 14.6877C10.9405 14.6877 13.5749 12.6002 14.4093 9.74395H14.5718C15.0218 9.74395 15.3874 9.37832 15.3874 8.92832C15.3905 8.5127 15.078 8.17207 14.678 8.11895Z" fill="#FCB537"/>
<path d="M7.86879 11.8784C6.42817 11.8784 5.10317 11.2159 4.32817 10.1096C4.22817 9.96587 4.26254 9.76899 4.40629 9.66899C4.55004 9.56899 4.74692 9.60337 4.84692 9.74712C5.50317 10.6877 6.63442 11.2471 7.86879 11.2471C9.10317 11.2471 10.2344 10.6877 10.8907 9.74712C10.9907 9.60337 11.1875 9.56899 11.3313 9.66899C11.475 9.76899 11.5094 9.96587 11.4094 10.1096C10.6344 11.219 9.30942 11.8784 7.86879 11.8784Z" fill="#2C3C48"/>
<path d="M5.24995 4.8875C5.18433 4.8875 5.1187 4.85938 5.07183 4.80625C4.89058 4.6 4.62808 4.48438 4.35308 4.48438C4.07808 4.48438 3.81558 4.60313 3.63433 4.80625C3.54683 4.90625 3.39683 4.9125 3.29683 4.82812C3.19683 4.74063 3.18745 4.59062 3.27495 4.49062C3.54683 4.18437 3.94058 4.00625 4.35308 4.00625C4.76558 4.00625 5.15933 4.18125 5.4312 4.49062C5.5187 4.59062 5.50933 4.74063 5.40933 4.82812C5.36245 4.86563 5.3062 4.8875 5.24995 4.8875ZM12.175 4.88438C12.1093 4.88438 12.0437 4.85625 11.9968 4.80312C11.8156 4.59687 11.5531 4.48125 11.2781 4.48125C11.0031 4.48125 10.7406 4.6 10.5593 4.80312C10.4718 4.90312 10.3218 4.90938 10.2218 4.82188C10.1218 4.73438 10.1156 4.58438 10.2 4.48438C10.4718 4.17812 10.8656 4 11.2781 4C11.6906 4 12.0843 4.175 12.3562 4.48438C12.4437 4.58438 12.4343 4.73438 12.3343 4.82188C12.2875 4.86563 12.2312 4.88438 12.175 4.88438Z" fill="#F2A84E"/>
<path d="M5.36574 6.99687C5.17512 6.56875 4.78762 6.3 4.35012 6.3C3.91574 6.3 3.52512 6.56562 3.33449 6.99687C3.32199 7.025 3.31574 7.05312 3.31262 7.08437C3.25949 7.20937 3.28449 7.35625 3.39074 7.45C3.45324 7.50312 3.52824 7.53125 3.60324 7.53125C3.69074 7.53125 3.78137 7.49375 3.84387 7.42188C3.97199 7.27812 4.15637 7.19375 4.35324 7.19375C4.54699 7.19375 4.73449 7.27812 4.86262 7.42188C4.98137 7.55313 5.18137 7.56562 5.31574 7.45C5.42199 7.35625 5.44699 7.20625 5.39387 7.08437C5.38449 7.05312 5.37824 7.025 5.36574 6.99687ZM12.3126 7.08125C12.3095 7.05313 12.3032 7.02188 12.2907 6.99375C12.1001 6.56563 11.7126 6.29688 11.2751 6.29688C10.8407 6.29688 10.4501 6.5625 10.2595 6.99375C10.247 7.02188 10.2407 7.05 10.2376 7.08125C10.1845 7.20625 10.2064 7.35313 10.3157 7.44688C10.3782 7.5 10.4532 7.52812 10.5282 7.52812C10.6157 7.52812 10.7064 7.49062 10.7689 7.41875C10.897 7.275 11.0814 7.19063 11.2782 7.19063C11.472 7.19063 11.6595 7.275 11.7876 7.41875C11.9064 7.55 12.1064 7.5625 12.2407 7.44688C12.3407 7.35625 12.3657 7.20625 12.3126 7.08125Z" fill="#2C3C48"/>
<path d="M4.99381 9.94043C4.94381 9.9873 4.72194 10.1998 4.54381 10.3842C4.47819 10.4498 4.41881 10.5154 4.37819 10.5654C4.06881 10.9404 3.70944 11.3717 3.70944 11.3717C3.26256 12.0123 3.41569 12.8936 4.05944 13.3436C4.70006 13.7904 5.58131 13.6342 6.02819 12.9936C6.02819 12.9936 6.59069 12.3217 7.02506 11.7998C7.04069 11.7811 7.05944 11.7592 7.07506 11.7404C7.19381 11.5967 7.39069 11.3436 7.48131 11.2248C6.48444 11.1311 5.58756 10.6686 4.99381 9.94043Z" fill="#F04C44"/>
<path d="M4.41881 13.1779C4.39069 13.1779 4.36256 13.1686 4.33756 13.1529C4.27194 13.1092 4.25631 13.0186 4.30319 12.9529L5.09381 11.8217C5.13756 11.7561 5.22819 11.7404 5.29381 11.7873C5.35944 11.8311 5.37506 11.9217 5.32819 11.9842L4.53756 13.1154C4.50944 13.1561 4.46569 13.1779 4.41881 13.1779Z" fill="#D32B2A"/>
</svg>
