<svg width="16" height="16" viewBox="0 0 16 16" fill="none" xmlns="http://www.w3.org/2000/svg">
<path d="M8.0001 1.10303C4.19385 1.10303 1.10635 4.19053 1.10635 7.99678C1.10635 8.08428 1.10947 8.17178 1.1126 8.25928C0.709473 8.3124 0.396973 8.6499 0.396973 9.06865C0.396973 9.52178 0.762598 9.8874 1.21572 9.8874H1.36885C2.19072 12.778 4.84697 14.8937 8.0001 14.8937C11.8095 14.8937 14.8938 11.8062 14.8938 7.9999C14.8938 4.19053 11.8063 1.10303 8.0001 1.10303Z" fill="#FF473E"/>
<path d="M5.32817 6.25293V7.54355C5.32817 7.9623 4.99067 8.2998 4.57192 8.2998C4.15317 8.2998 3.81567 7.9623 3.81567 7.54355V5.84668L5.32817 6.25293ZM12.2094 5.84668V7.54355C12.2094 7.9623 11.8719 8.2998 11.4532 8.2998C11.0344 8.2998 10.6969 7.9623 10.6969 7.54355V6.25293L12.2094 5.84668Z" fill="#2B3B47"/>
<path d="M5.29064 6.50958C5.26564 6.50958 5.24377 6.50645 5.21877 6.5002L3.60939 6.02833C3.47502 5.9877 3.39689 5.84708 3.43752 5.7127C3.47814 5.57833 3.61877 5.5002 3.75314 5.54083L5.36252 6.0127C5.49689 6.05333 5.57502 6.19395 5.53439 6.32833C5.50314 6.4377 5.40002 6.50958 5.29064 6.50958ZM10.6938 6.50958C10.5875 6.50958 10.4875 6.44083 10.45 6.33458C10.4063 6.2002 10.4781 6.05645 10.6125 6.0127L12.3063 5.45958C12.4406 5.41583 12.5844 5.4877 12.6281 5.62208C12.6719 5.75645 12.6 5.9002 12.4656 5.94395L10.7719 6.49708C10.7469 6.50645 10.7219 6.50958 10.6938 6.50958Z" fill="#D32A2A"/>
<path d="M9.86553 11.028C9.79053 10.3749 9.2749 9.47803 8.08115 9.47803C6.84053 9.47803 6.33115 10.453 6.29053 11.1093C6.28115 11.2843 6.3624 11.4499 6.50303 11.553C6.64365 11.6562 6.83115 11.6812 6.99365 11.6187C6.99678 11.6187 7.3499 11.4874 8.01553 11.4874C8.70928 11.4874 9.1999 11.6312 9.20615 11.6343C9.25615 11.6499 9.30615 11.6562 9.35615 11.6562H9.35928C9.64365 11.6562 9.8749 11.4249 9.8749 11.1405C9.87803 11.0999 9.87178 11.0624 9.86553 11.028Z" fill="#2B3B47"/>
<path d="M14.8875 8.30645C14.8906 8.20332 14.8969 8.1002 14.8969 7.99707C14.8969 6.15645 14.175 4.48457 12.9969 3.24707C13.6625 4.3252 14.0469 5.59707 14.0469 6.95957C14.0469 10.8721 10.875 14.0408 6.9625 14.0408C5.6 14.0408 4.33125 13.6564 3.25 12.9908C4.4875 14.1689 6.15937 14.8939 8 14.8939C11.1344 14.8939 13.7812 12.8002 14.6156 9.93457H14.775C15.2281 9.93457 15.5938 9.56895 15.5938 9.11582C15.5938 8.7002 15.2844 8.3627 14.8875 8.30645Z" fill="#D32A2A"/>
</svg>
