<svg width="24" height="24" viewBox="0 0 24 24" fill="none" xmlns="http://www.w3.org/2000/svg">
<path d="M16 19C15.4444 19 14.9722 18.7958 14.5833 18.3875C14.1944 17.9792 14 17.4833 14 16.9C14 16.83 14.0167 16.6667 14.05 16.41L9.36667 13.54C9.18889 13.715 8.98333 13.8522 8.75 13.9516C8.51667 14.051 8.26667 14.1005 8 14.1C7.44444 14.1 6.97222 13.8958 6.58333 13.4875C6.19444 13.0792 6 12.5833 6 12C6 11.4167 6.19444 10.9208 6.58333 10.5125C6.97222 10.1042 7.44444 9.9 8 9.9C8.26667 9.9 8.51667 9.9497 8.75 10.0491C8.98333 10.1485 9.18889 10.2855 9.36667 10.46L14.05 7.59C14.0278 7.50833 14.014 7.4297 14.0087 7.3541C14.0033 7.2785 14.0004 7.1938 14 7.1C14 6.51667 14.1944 6.02083 14.5833 5.6125C14.9722 5.20417 15.4444 5 16 5C16.5556 5 17.0278 5.20417 17.4167 5.6125C17.8056 6.02083 18 6.51667 18 7.1C18 7.68333 17.8056 8.17917 17.4167 8.5875C17.0278 8.99583 16.5556 9.2 16 9.2C15.7333 9.2 15.4833 9.1503 15.25 9.0509C15.0167 8.9515 14.8111 8.81453 14.6333 8.64L9.95 11.51C9.97222 11.5917 9.98622 11.6705 9.992 11.7466C9.99778 11.8227 10.0004 11.9071 10 12C9.99956 12.0929 9.99689 12.1776 9.992 12.2541C9.98711 12.3306 9.97311 12.4093 9.95 12.49L14.6333 15.36C14.8111 15.185 15.0167 15.048 15.25 14.9491C15.4833 14.8502 15.7333 14.8005 16 14.8C16.5556 14.8 17.0278 15.0042 17.4167 15.4125C17.8056 15.8208 18 16.3167 18 16.9C18 17.4833 17.8056 17.9792 17.4167 18.3875C17.0278 18.7958 16.5556 19 16 19Z" fill="#1A1A1A"/>
</svg>
