<svg width="320" height="64" viewBox="0 0 320 64" fill="none" xmlns="http://www.w3.org/2000/svg">
<path d="M14.247 16.126C18.5862 9.78267 27.6578 8.00804 31.6512 7.91365C41.7154 7.1169 48.1191 12.5184 51.0156 16.6253C51.9505 17.951 52.8232 19.3317 53.7042 20.6939C58.1607 27.5844 57.2306 34.969 56.0833 38.0257C49.6655 54.7498 37.2715 57.0786 29.9899 55.9377C28.2778 55.6695 26.5636 55.3664 24.8644 55.0259C23.1003 54.6724 21.543 54.0736 20.1961 53.3533C15.442 50.8108 13.2517 45.2538 9.76617 41.1408C3.08746 32.3809 9.97056 20.8143 14.247 16.126Z" fill="#CD1539"/>
<path d="M24.2884 22.4619C15.0061 14.2684 10.736 22.5406 9.76123 27.7008C12.7798 26.7947 11.8365 29.1168 10.9875 30.3911C9.05803 32.3387 8.84759 34.7442 9.44806 37.0614C10.8511 42.4761 15.3561 48.8031 20.3561 51.3103C24.5916 53.4342 28.1148 54.0653 32.8529 54.0547C42.4821 54.0332 49.2071 46.6762 51.6919 42.1905C54.8149 36.1551 55.1108 30.9373 54.2509 26.912C53.0128 21.1165 49.5323 15.592 44.8713 11.932C42.4137 10.0022 40.1647 9.72705 38.957 10.0017H32.9198L22.4489 15.571C24.4613 17.0499 28.9956 19.6867 31.0331 18.4029C33.0707 17.1191 35.7812 16.7352 36.8817 16.7038C44.0132 17.5344 44.5698 14.4068 43.9566 12.7392C49.843 19.6111 39.5545 20.0391 33.6744 19.394C28.2786 24.4536 25.1688 23.5474 24.2884 22.4619Z" fill="#DC143C"/>
<path d="M37.5446 46.8673C32.4884 52.3422 27.4511 52.0433 25.5645 51.2095C28.1114 52.767 31.4602 53.3805 35.5165 51.4926C38.7615 49.9823 38.2207 51.1465 37.5446 51.9174C36.6768 52.7859 33.8185 53.5693 32.4979 53.8525C49.6286 50.3788 53.2824 39.7876 52.9679 34.9263C51.946 36.5782 48.7041 40.4956 43.9121 42.9499C39.12 45.4041 37.6704 46.5841 37.5446 46.8673Z" fill="#A00322"/>
<path d="M22.3512 48.764C22.149 48.6388 21.9154 48.5037 21.6645 48.365C20.6654 47.8127 18.8403 46.4977 17.8026 46.0218C14.9343 44.7066 25.0338 50.4255 22.3512 48.764Z" fill="#A00322"/>
<path d="M41.8712 34.9657C50.6261 31.3716 50.8441 23.8176 49.8087 20.3894C54.5611 29.7971 47.5482 34.3378 42.4026 35.7768C41.4819 36.0343 39.1816 35.7597 40.0802 35.4331C40.6688 35.2192 41.2918 35.2035 41.8712 34.9657Z" fill="#A00322"/>
<path d="M10.8961 31.9529C10.0943 33.4632 9.44338 36.8992 13.2544 38.5606C12.3582 37.239 10.6319 34.0673 10.8961 31.9529Z" fill="#A00322"/>
<path d="M39.8611 24.9102C39.8225 24.92 39.7843 24.9299 39.7465 24.9398C33.8877 26.8336 35.4386 29.1244 36.9463 30.033C42.1435 32.936 45.6328 23.4521 39.8611 24.9102Z" fill="#A00322"/>
<path d="M36.2685 27.891C35.0824 26.4346 35.632 25.2017 35.9026 24.9756L40.3068 27.3746L40.7515 29.6401C38.4359 29.1546 36.798 28.2718 36.2685 27.891Z" fill="#B97C2C"/>
<path d="M38.1121 22.8198C37.1915 23.4568 36.3355 24.2843 35.7443 24.9608C35.378 25.3799 35.5286 25.959 36.0495 26.1553C37.2167 26.5952 39.12 27.2214 40.0982 27.5633C43.6782 24.9332 42.5309 23.3176 40.8479 22.5422C39.9584 22.1323 38.9175 22.2625 38.1121 22.8198Z" fill="#F3C472"/>
<path d="M40.7631 29.6399L40.0908 27.5794C43.1196 25.1069 42.3436 23.5177 41.5769 23.0322C42.1784 23.2809 43.0512 24.2046 43.4522 24.5953C44.1245 25.1637 44.1127 25.9216 43.983 26.2295C43.3885 28.0484 41.5887 29.261 40.7631 29.6399Z" fill="#E1A351"/>
<path d="M17.7343 24.9085C17.3141 25.0011 16.9028 25.1627 16.5481 25.3475C12.6605 27.8349 13.6896 30.8436 14.69 32.0371C17.8834 35.5677 22.3833 23.884 17.7343 24.9085Z" fill="#A00322"/>
<path d="M19.1357 31.1033C18.3434 29.744 18.554 26.7926 18.7584 25.4868L15.504 22.2773H14.9851C8.38188 24.0709 11.6835 32.0945 17.3906 32.4248L19.1357 31.1033Z" fill="#E53461"/>
<path d="M17.5791 32.3304C12.7493 29.7251 13.8373 24.5428 14.985 22.2773C8.19306 24.1181 11.589 32.0945 17.3904 32.4248L17.5791 32.3304Z" fill="#860130"/>
<path d="M16.6383 24.1724C16.1097 26.3623 17.4564 28.074 18.1959 28.6561C18.5734 28.6939 18.479 28.4516 18.3846 28.3258C16.8366 27.2685 16.7957 25.1792 16.9687 24.2668C16.8932 23.9647 16.717 24.078 16.6383 24.1724Z" fill="#860130"/>
<path d="M15.6944 24.7859C15.9209 24.4084 16.009 24.6915 16.0248 24.8803C15.5339 27.7499 17.4879 29.5686 18.5262 30.1193C18.9416 30.3836 18.6678 30.5126 18.479 30.544C15.4962 28.9582 15.3797 26.0445 15.6944 24.7859Z" fill="#860130"/>
<path d="M20.6746 17.3347L21.0484 16.8775C21.3226 16.5422 21.5587 16.1774 21.7523 15.7899L21.9492 15.3957C22.158 14.9779 22.3964 14.5756 22.6625 14.1918L23.3695 13.1723C23.7 12.6956 24.0761 12.2521 24.4924 11.8482L24.5202 11.8211C25.1189 11.2402 25.7981 10.7485 26.537 10.3613L26.5685 10.3448C27.1237 10.0537 27.7098 9.82601 28.3158 9.66581L28.7782 9.5436C29.5214 9.34713 30.2958 9.29695 31.0582 9.39585C31.9739 9.51463 32.8492 9.84543 33.6146 10.362L33.7979 10.4857C34.2502 10.7909 34.664 11.1496 35.0305 11.5539L35.5264 12.101C36.0442 12.6723 36.7101 13.0891 37.4503 13.3051L38.9632 13.7537C39.6418 13.9549 40.2593 14.3225 40.7596 14.8232L40.9066 14.9702C41.3905 15.4545 41.7238 16.0685 41.8662 16.7382L41.9012 16.9026C42.0428 17.5687 41.9578 18.263 41.6597 18.8753C41.3763 19.4574 40.9152 19.9345 40.3431 20.2376L39.8583 20.4944C39.1752 20.8563 38.4139 21.0455 37.6409 21.0455H36.038C35.1908 21.0455 34.3472 21.1556 33.5283 21.373C32.8122 21.5631 32.12 21.834 31.465 22.1804L30.3571 22.7664C29.5595 23.1883 28.6867 23.449 27.7885 23.5338C27.0342 23.605 26.2733 23.5511 25.5366 23.3742L23.753 22.9458C23.3266 22.8434 22.9119 22.6977 22.5151 22.5109L21.4876 22.027C20.9788 21.7874 20.5546 21.3989 20.2714 20.913C19.9146 20.3009 19.8052 19.5756 19.9655 18.8855L20.0133 18.68C20.1279 18.1869 20.3541 17.7266 20.6746 17.3347Z" fill="#FDE5CE"/>
<path d="M23.6555 13.5789L23.5354 13.8725C23.2639 14.5368 23.2671 15.2817 23.5445 15.9436C23.6636 16.2278 23.8304 16.4896 24.0376 16.7177L24.3903 17.106C24.5723 17.3062 24.8026 17.4564 25.0593 17.542L26.2243 17.9306L26.3348 17.9631C27.3251 18.2546 28.3521 18.4025 29.3844 18.4025L28.2684 18.6889C27.788 18.8122 27.294 18.8745 26.7981 18.8745H26.7316C25.9615 18.8745 25.1996 18.7156 24.4937 18.4077L24.1843 18.2727C23.8795 18.1398 23.5962 17.9621 23.3437 17.7456L22.5999 17.1076C22.4734 16.9991 22.3122 16.9394 22.1455 16.9394C21.8967 16.9394 21.6667 17.0719 21.5418 17.2871L21.2405 17.8064C21.0182 18.1894 20.9503 18.6426 21.0506 19.0739L21.1078 19.3202C21.2712 20.0231 21.7446 20.6138 22.3951 20.9262L23.2281 21.3264C23.5577 21.4847 23.9061 21.6003 24.2649 21.6706L24.8207 21.7794C25.5325 21.9188 26.2609 21.9529 26.9826 21.8807C27.823 21.7966 28.6428 21.5694 29.4067 21.2091L31.5541 20.1961L34.1779 19.3709C34.6291 19.229 35.0904 19.1216 35.5579 19.0496L37.361 18.772C37.7287 18.7154 38.0762 18.567 38.3714 18.3405L38.5477 18.2053C39.0389 17.8285 39.3033 17.2266 39.2485 16.61C39.187 15.9171 38.7335 15.3208 38.0822 15.0764L37.6385 14.9099L36.5042 14.394C36.2237 14.2664 35.9587 14.107 35.7145 13.919L35.6854 13.8967C35.1419 13.4783 34.7185 12.9239 34.4581 12.2894C34.0223 11.2276 33.1404 10.4122 32.0478 10.0607L31.9028 10.0141C31.392 9.84979 30.8546 9.78436 30.3193 9.8213L29.6762 9.86568C28.8274 9.92426 27.9946 10.1254 27.2127 10.4608L27.1578 10.4843C26.4458 10.7897 25.7877 11.2078 25.2089 11.7227L24.5622 12.2978C24.1662 12.6501 23.8561 13.0883 23.6555 13.5789Z" fill="#FFFAF5"/>
<path d="M32.0738 17.7416C32.9706 17.025 33.5746 16.2164 34.1892 17.4204C34.2588 17.5069 34.3731 17.5995 34.273 17.2779C34.1973 17.0348 34.1003 16.9463 34.0332 16.9238L34.7356 16.9762C34.8883 16.9646 35.1098 16.9125 34.7743 16.7972C34.4388 16.6818 33.5981 16.7213 33.2196 16.7555C33.575 16.5825 34.5741 16.2022 35.7273 16.0659C36.0643 15.9781 36.5308 15.8059 35.701 15.8193C34.8713 15.8326 33.8502 16.2492 33.4433 16.4558C33.7691 16.1335 34.5342 15.4545 34.9879 15.3169C35.4417 15.1794 36.0192 14.9597 36.2512 14.867C36.4458 14.7842 36.7107 14.629 36.2139 14.6715C35.9911 14.7215 35.4091 14.8885 34.8636 15.1562C35.0307 14.9959 35.4183 14.6495 35.6315 14.5456C35.8448 14.4418 36.3806 14.1452 36.6218 14.0099C36.8153 13.8911 37.0759 13.6743 36.5702 13.7578L35.6163 14.2477C35.7795 14.0242 36.1078 13.5185 36.1159 13.2846C36.124 13.0507 35.9732 13.2091 35.8967 13.3175C35.7821 13.4802 35.4774 13.9338 35.1758 14.447L34.3724 15.3445C34.5415 14.9705 34.8818 14.1639 34.8899 13.93C34.9 13.6376 34.8098 13.5645 34.6257 13.9264C34.4415 14.2883 34.4788 14.7516 34.1731 15.4085C33.9285 15.9341 33.3843 16.3538 33.1427 16.4979C33.3031 16.0416 33.6369 15.0194 33.6892 14.5809C33.7603 14.2927 33.8243 13.8817 33.512 14.5425C33.4414 14.7058 33.2794 15.1778 33.1961 15.7596C33.1523 15.5538 33.0418 15.0996 32.9512 14.9301C32.838 14.7181 32.7201 14.773 32.8058 15.1129C32.8914 15.4527 33.0838 15.7889 33.0175 16.0959L32.8683 16.7867C32.5154 17.1121 32.3878 17.3118 31.8379 17.6C31.7839 17.6865 31.8421 17.7344 32.0738 17.7416Z" fill="#40D05F"/>
<path d="M15.6954 30.9391C14.9003 31.4789 13.6108 30.817 13.4598 32.0431C13.4271 32.1391 13.3579 32.2544 13.3433 31.9469C13.3323 31.7146 13.3878 31.6082 13.4384 31.5679L12.8518 31.8329C12.7171 31.8708 12.5107 31.8955 12.7626 31.6913C13.0145 31.4872 13.7486 31.2578 14.0842 31.1686C13.7249 31.1313 12.7483 31.1179 11.7158 31.3621C11.399 31.3923 10.9447 31.3906 11.6611 31.1421C12.3776 30.8937 13.3845 30.9314 13.7983 30.9814C13.4178 30.8067 12.5487 30.4635 12.1162 30.4875C11.6836 30.5116 11.1192 30.5039 10.891 30.497C10.6981 30.4868 10.4221 30.4366 10.8619 30.3175C11.0688 30.2907 11.6206 30.2517 12.1726 30.3106C11.979 30.2254 11.5379 30.0494 11.3224 30.027C11.1068 30.0047 10.5541 29.9179 10.3047 29.8773C10.1015 29.836 9.80992 29.7315 10.2701 29.6447L11.2423 29.7666C11.0323 29.6257 10.5923 29.2945 10.5122 29.0962C10.432 28.898 10.6111 28.9867 10.7106 29.0559C10.8599 29.1596 11.2633 29.4536 11.6828 29.7996L12.6532 30.3184C12.391 30.0503 11.8466 29.4645 11.7665 29.2662C11.6663 29.0184 11.7209 28.9275 11.9922 29.1804C12.2635 29.4333 12.3764 29.8428 12.8443 30.3109C13.2187 30.6855 13.8171 30.8753 14.0696 30.9234C13.7892 30.5819 13.1828 29.809 13.0007 29.4489C12.8496 29.2238 12.6661 28.891 13.1409 29.3605C13.2526 29.4785 13.5393 29.8329 13.7928 30.3063C13.766 30.1159 13.7188 29.6914 13.7435 29.5175C13.7744 29.3001 13.8928 29.3103 13.9256 29.6288C13.9584 29.9474 13.8984 30.2963 14.0513 30.5391L14.3955 31.0853C14.8002 31.2541 15.113 30.8384 15.6886 30.7938C15.7951 30.7807 15.8439 30.8208 15.6954 30.9391Z" fill="#40D05F"/>
<path d="M40.1191 44.3452C41.2531 42.6034 43.6291 39.7785 41.3626 38.8585C41.1955 38.7461 41.0098 38.5539 41.6043 38.6836C42.0536 38.7816 42.2291 38.9431 42.2808 39.0611L42.0672 37.7959C42.062 37.5172 42.1179 37.1072 42.3821 37.6969C42.6464 38.2866 42.7184 39.8175 42.7214 40.5092C42.9717 39.8368 43.4844 37.9638 43.5329 35.8509C43.6332 35.2257 43.8631 34.3519 43.9803 35.8587C44.0974 37.3654 43.5233 39.2841 43.2215 40.0551C43.7448 39.4123 44.8338 37.9155 45.0035 37.0706C45.1733 36.2257 45.4695 35.1431 45.5963 34.7074C45.7121 34.3412 45.9456 33.8357 45.9537 34.7434C45.9019 35.1555 45.7012 36.2378 45.3134 37.27C45.5726 36.9411 46.1287 36.1825 46.2789 35.779C46.4291 35.3756 46.8704 34.3563 47.0723 33.897C47.2527 33.5269 47.5976 33.0194 47.5338 33.9498L46.8163 35.7585C47.19 35.4266 48.0421 34.7497 48.4607 34.6973C48.8793 34.6448 48.6205 34.9438 48.4388 35.0999C48.1662 35.334 47.4036 35.9598 46.5334 36.5896L45.0588 38.1911C45.7016 37.8241 47.0919 37.0769 47.5105 37.0244C48.0337 36.9588 48.1802 37.1105 47.5619 37.5029C46.9435 37.8953 46.1052 37.9025 44.9777 38.5629C44.0757 39.0912 43.4148 40.1457 43.1971 40.607C43.989 40.2425 45.7676 39.4722 46.5461 39.3065C47.0514 39.1312 47.7785 38.9487 46.6451 39.6217C46.364 39.7761 45.5441 40.146 44.5135 40.3909C44.8906 40.4373 45.7248 40.5642 46.0447 40.7011C46.4445 40.8722 46.3661 41.0947 45.7413 40.9943C45.1165 40.894 44.4801 40.5993 43.9401 40.7691L42.7252 41.1511C42.2011 41.8436 41.0469 43.4896 40.6231 44.5331C40.4769 44.645 40.1715 44.764 40.1191 44.3452Z" fill="#40D05F"/>
<path d="M28.2851 35.8575C27.912 34.9963 26.549 34.0377 25.9141 33.666C24.9424 33.5122 23.0767 33.9735 23.3488 33.7428C23.6209 33.5121 22.8824 33.5122 21.4054 33.3199C20.2237 33.1661 20.913 32.9995 21.4054 32.9354C23.893 33.366 24.9813 33.3712 25.2145 33.3199C25.0201 33.2686 24.5071 33.12 24.0096 32.9354C23.512 32.7509 23.8023 32.7047 24.0096 32.7047C24.1651 32.6124 25.7846 33.3071 26.5749 33.666C26.3883 33.4815 26.1862 33.1021 26.1085 32.9354C25.5643 31.6282 24.3205 31.3206 23.6986 31.0899C23.0767 30.8591 23.1933 30.667 23.6986 30.7439C24.1028 30.8054 24.8776 31.3078 25.2145 31.5513C24.9294 31.1796 24.2505 30.3517 23.8152 30.0133C23.271 29.5904 23.1544 29.3213 23.8929 29.6289C24.4837 29.8749 25.2793 31.013 25.6032 31.5513C25.6032 31.2129 25.1367 30.1287 24.9035 29.6289C24.7792 28.9522 25.0072 29.1931 25.1367 29.3982L25.4866 30.244C25.4244 29.8134 25.4606 29.3213 25.4866 29.1291C25.6032 28.5908 25.7586 28.5139 25.8753 29.1291C25.9919 29.7442 25.9141 30.7439 25.8753 31.3591C25.8442 31.8512 26.4324 32.9995 26.7304 33.5122C26.3883 31.2668 26.6915 30.2697 26.8858 30.0518C27.1035 29.6212 27.1579 29.8724 27.1579 30.0518C27.0024 30.3902 26.9118 31.2437 26.8858 31.6282C27.1346 31.2591 27.3523 31.1668 27.43 31.1669C27.741 31.1053 27.6373 31.2437 27.5466 31.3206C26.4194 31.782 26.847 33.5506 27.0413 33.8198C27.1968 34.0351 28.0908 34.986 28.5183 35.4346C28.7049 36.1113 28.4406 35.9985 28.2851 35.8575Z" fill="#40D05F"/>
<path d="M11.2263 13.2894L9.86332 14.6571C9.59652 14.9249 9.48885 15.3125 9.57933 15.6795C9.71064 16.2121 10.2199 16.562 10.7642 16.4937L11.223 16.4361C11.6582 16.3815 12.052 16.1508 12.3123 15.7978L13.0771 14.7611C13.2227 14.5637 13.3012 14.325 13.3012 14.0798C13.3012 13.446 12.7874 12.9321 12.1536 12.9321H12.0866C11.7638 12.9321 11.4542 13.0607 11.2263 13.2894Z" fill="#DC143C"/>
<path d="M7.7723 45.1208H8.02861C8.14015 45.1208 8.25098 45.1387 8.35691 45.1736L8.52018 45.2275C8.9519 45.37 9.30358 45.6879 9.48889 46.103L9.59177 46.3335C9.67276 46.515 9.69041 46.7184 9.64187 46.9111C9.53273 47.3444 9.11806 47.6286 8.67457 47.5742L8.45017 47.5466C8.14268 47.5088 7.86373 47.3478 7.67727 47.1004L7.14051 46.3881C7.0371 46.2509 6.98117 46.0838 6.98117 45.912C6.98117 45.4751 7.33537 45.1208 7.7723 45.1208Z" fill="#DC143C"/>
<path d="M50.0764 51.0055L49.9648 51.0368C49.8914 51.0574 49.8205 51.0862 49.7536 51.1227L49.3684 51.333C49.0105 51.5283 48.7267 51.8358 48.5605 52.2081L48.4229 52.5164C48.3419 52.6979 48.3242 52.9013 48.3728 53.094C48.4819 53.5273 48.8966 53.8115 49.3401 53.757L49.6077 53.7242C49.8903 53.6894 50.1511 53.5547 50.3429 53.3444L51.044 52.5756C51.0996 52.5146 51.1472 52.4466 51.1854 52.3734C51.5746 51.6285 50.8856 50.7788 50.0764 51.0055Z" fill="#DC143C"/>
<path d="M17.5522 8.64185L17.2946 8.95822C17.0955 9.2027 17.0195 9.52821 17.0868 9.83622C17.2086 10.3931 17.7634 10.7507 18.3188 10.6224C18.4619 10.5894 18.5962 10.5259 18.7127 10.4363L19.222 10.0444C19.4735 9.85093 19.6208 9.55166 19.6208 9.23441C19.6208 8.66997 19.1632 8.2124 18.5988 8.2124H18.4557C18.1052 8.2124 17.7734 8.37012 17.5522 8.64185Z" fill="#DC143C"/>
<path d="M56.4039 18.0813L56.6615 18.3977C56.8606 18.6422 56.9365 18.9677 56.8692 19.2757C56.7475 19.8325 56.1927 20.1902 55.6373 20.0619C55.4942 20.0288 55.3598 19.9654 55.2434 19.8758L54.734 19.4838C54.4826 19.2904 54.3353 18.9911 54.3353 18.6739C54.3353 18.1094 54.7928 17.6519 55.3573 17.6519H55.5004C55.8508 17.6519 56.1826 17.8096 56.4039 18.0813Z" fill="#DC143C"/>
<path d="M57.835 25.3852L58.0006 25.5886C58.1286 25.7458 58.1774 25.955 58.1341 26.153C58.0559 26.511 57.6992 26.7409 57.3422 26.6584C57.2502 26.6372 57.1638 26.5964 57.0889 26.5388L56.7615 26.2868C56.5999 26.1625 56.5051 25.9701 56.5051 25.7661C56.5051 25.4033 56.7993 25.1091 57.1622 25.1091H57.2542C57.4794 25.1091 57.6927 25.2105 57.835 25.3852Z" fill="#DC143C"/>
<path d="M31.9572 0C14.2888 0 0 14.2983 0 31.9786C0 49.6589 14.3316 64 32 64C49.6684 64 64 49.6589 64 31.9786C63.9572 14.2983 49.6257 0 31.9572 0ZM31.9572 0.770569C36.1925 0.770569 40.2567 1.58395 44.1069 3.2107C47.8289 4.79465 51.1658 7.02074 54.0321 9.88896C56.8984 12.7572 59.1658 16.0963 60.7059 19.8207C62.3315 23.6736 63.1444 27.7405 63.1444 31.9786C63.1444 36.2167 62.3315 40.2836 60.7059 44.1365C59.123 47.8609 56.8984 51.2 54.0321 54.0682C51.1658 56.9365 47.8289 59.2053 44.1069 60.7465C40.2567 62.3732 36.1925 63.1866 31.9572 63.1866C27.7219 63.1866 23.6578 62.3732 19.8075 60.7465C16.0856 59.1625 12.7487 56.9365 9.88235 54.0682C7.01604 51.2 4.74866 47.8609 3.20856 44.1365C1.58289 40.2836 0.770054 36.2167 0.770054 31.9786C0.770054 27.7405 1.58289 23.6736 3.20856 19.8207C4.79144 16.0963 7.01604 12.7572 9.88235 9.88896C12.7487 7.02074 16.0856 4.75184 19.8075 3.2107C23.6578 1.58395 27.7647 0.770569 31.9572 0.770569Z" fill="#1A1A1A"/>
<path d="M31.9532 1.51025C15.15 1.51025 1.51074 15.1495 1.51074 31.9527C1.51074 48.756 15.15 62.3952 31.9532 62.3952C48.7564 62.3952 62.3957 48.756 62.3957 31.9527C62.3957 15.1495 48.7564 1.51025 31.9532 1.51025ZM31.9532 1.80955C36.0151 1.80955 39.9486 2.62192 43.6684 4.16114C47.26 5.65761 50.4667 7.83818 53.2458 10.6173C56.025 13.3965 58.1628 16.6032 59.702 20.1947C61.284 23.9145 62.0536 27.8481 62.0536 31.91C62.0536 35.9718 61.2413 39.9054 59.702 43.6252C58.2056 47.2167 56.025 50.4234 53.2458 53.2026C50.4667 55.9818 47.26 58.1623 43.6684 59.6588C39.9486 61.2408 36.0151 62.0104 31.9532 62.0104C27.8914 62.0104 23.9578 61.198 20.238 59.6588C16.6465 58.1623 13.4397 55.9818 10.6606 53.2026C7.88143 50.4234 5.70086 47.2167 4.20439 43.6252C2.62241 39.9054 1.85279 35.9718 1.85279 31.91C1.85279 27.8481 2.66516 23.9145 4.20439 20.1947C5.74361 16.646 7.92419 13.3965 10.6606 10.6601C13.4397 7.88094 16.6465 5.70037 20.238 4.2039C23.9578 2.62192 27.8914 1.80955 31.9532 1.80955Z" fill="#1A1A1A"/>
<path d="M32.7895 43.016C34.1592 37.9978 29.8646 38.3397 27.4316 39.1912C21.8593 41.5868 23.3343 44.4844 24.7684 45.6338C27.8338 47.911 30.6629 46.0337 32.0728 44.3973C32.4145 44.0008 32.6517 43.5209 32.7895 43.016Z" fill="#A00322"/>
<path d="M28.7877 40.2681L23.1991 40.7999C22.2962 40.6808 23.7542 42.4282 23.9529 43.317C23.9904 43.4847 24.0155 43.6645 24.0219 43.8538C24.0516 44.7228 24.5261 44.8879 24.7597 44.8618C25.556 44.8597 27.4735 44.8183 28.7734 44.6689C30.0733 44.5195 29.3246 41.6728 28.7877 40.2681Z" fill="#922A14"/>
<path d="M30.4483 38.152C30.1114 38.923 29.1177 39.9441 28.6629 40.3583C29.0994 41.4422 29.1411 43.5758 29.1074 44.5072C29.6353 44.5307 31.0366 43.1943 31.6712 42.5232C32.0884 42.0753 31.9969 41.3586 31.7222 40.9391C31.5023 40.6034 31.294 39.8242 31.2173 39.4766C31.1435 38.6603 30.7711 38.4849 30.4483 38.152Z" fill="#741D0F"/>
<path d="M23.5589 41.2314C23.8222 41.2714 26.7773 40.7674 28.2219 40.5103C28.5608 40.4682 28.7395 40.3784 28.7865 40.3388C29.3988 39.8843 30.1011 38.8017 30.3757 38.3172C30.495 38.1358 30.4413 38.1309 30.3268 38.1003C30.2236 38.0424 29.87 38.0319 29.7061 38.0339C28.8805 38.202 27.0763 38.1701 26.6078 38.1681C26.233 38.1666 25.7395 38.4133 25.5396 38.5369C25.2238 38.8017 24.3776 39.5225 23.5186 40.2866C22.4449 41.2418 23.2297 41.1813 23.5589 41.2314Z" fill="#BF532C"/>
<path d="M31.1424 42.0202C31.0439 42.4983 30.787 43.1629 30.6358 43.512C30.6382 43.519 30.6854 43.4902 30.8552 43.3194C31.0249 43.1485 31.2839 42.127 31.3922 41.6375C31.3388 41.3771 31.196 41.7598 31.1424 42.0202Z" fill="#500906"/>
<path d="M27.76 39.5477L26.8064 40.625C26.4995 41.2173 26.9546 43.6291 27.2205 44.761C26.8618 44.8661 26.5131 44.7948 26.3836 44.7459C26.1904 42.6802 26.2012 41.5822 26.2308 41.2914C26.2186 41.015 26.3687 40.7372 26.4453 40.6328C26.7311 40.3315 27.362 39.6897 27.599 39.5331C27.8361 39.3764 27.8051 39.4775 27.76 39.5477Z" fill="#741C0F"/>
<path d="M27.2299 38.8419C26.4862 39.3979 25.5829 40.4703 25.2242 40.9371C25.1115 41.0321 25.0588 41.2358 25.0465 41.3258C25.0939 41.8394 25.1734 42.9281 25.1126 43.1735C25.0518 43.419 24.9847 43.28 24.9588 43.1799L24.743 41.5007C24.659 41.1369 24.8008 40.865 24.8822 40.7746C24.8951 40.7514 25.2025 40.4224 25.3546 40.2608C25.8308 39.808 26.842 38.8776 27.0777 38.7775C27.3134 38.6774 27.2774 38.7787 27.2299 38.8419Z" fill="#751C0F"/>
<path d="M27.8738 44.3951C27.8674 44.4518 27.8668 44.5705 27.9155 44.5911C27.9656 44.6123 28.0172 44.6817 28.0702 44.6691C28.1165 44.6581 28.1628 44.646 28.191 44.6363C28.2467 44.6171 28.2462 44.5705 28.239 44.5496C28.2044 44.4493 28.2277 43.9144 28.2437 43.6595C28.3357 43.3237 28.1779 43.1678 28.1394 42.8303C28.1086 42.5604 28.0335 41.8459 27.9998 41.5224C27.9757 41.4527 27.9257 41.2627 27.918 41.0596C27.9103 40.8565 27.8587 40.9631 27.8339 41.0418C27.7174 41.3065 27.7438 41.6341 27.7716 41.7648C27.9589 42.729 27.9178 43.92 27.8738 44.3951Z" fill="#71180A"/>
<path d="M24.7426 43.9091C24.7279 44.2883 24.7788 44.6916 24.806 44.8458C24.8698 44.855 25.0067 44.8701 25.0439 44.8573C24.9849 44.7467 24.9055 44.1802 24.8731 43.9108C24.7206 43.5893 24.7225 43.7757 24.7426 43.9091Z" fill="#76190C"/>
<path d="M30.5079 41.3349C30.1136 43.0236 29.4871 43.9241 29.2232 44.1633C29.0011 44.5183 29.3806 44.4441 29.6813 44.2858C30.0482 43.5668 30.7685 42.0446 30.7146 41.7078C30.6607 41.371 30.834 40.7235 30.9274 40.4419C31.1774 39.8633 31.1721 39.3752 31.099 39.0478C31.0472 38.816 30.7767 38.7468 30.8374 38.9765C30.9053 39.2336 30.646 40.6559 30.5079 41.3349Z" fill="#530B06"/>
<path d="M80.608 38.5H77.2V21.772H80.608C85.312 21.772 88.576 24.82 89.608 29.284V21.772H93.016V38.5H89.608V32.284C89.128 22.972 82.696 22.18 80.608 22.18V38.5ZM100.715 38.884C97.4989 38.884 95.0509 38.068 95.0509 34.132C95.0509 31.924 96.5869 30.556 98.5789 30.124L96.0829 28.924C96.8269 27.7 98.7469 26.116 103.091 26.116C105.995 26.116 109.595 26.836 109.595 30.988V38.5H106.187V32.476L106.139 32.764C105.611 35.908 104.483 38.884 100.715 38.884ZM101.483 30.268C99.5389 30.268 98.5549 31.372 98.5549 34.372C98.5549 37.516 99.2749 38.5 100.691 38.5C105.107 38.5 105.779 33.724 106.067 30.268H101.483ZM99.5389 29.956C99.8989 29.908 100.283 29.884 100.691 29.884H106.115C106.115 27.436 105.971 26.404 102.947 26.404C100.355 26.404 99.5389 29.38 99.5389 29.956ZM111.525 26.5H115.101L119.541 37.924L123.429 26.5H123.837L119.757 38.5H116.181L111.525 26.5ZM124.442 32.524C124.442 28.372 127.922 26.14 131.714 26.14C136.754 26.14 137.282 29.644 137.282 33.628H128.042C128.186 35.98 128.93 38.476 131.714 38.476C133.898 38.476 135.842 37.828 137.402 36.484L137.594 36.724C137.186 37.06 135.434 38.884 131.714 38.884C127.178 38.884 124.442 36.172 124.442 32.524ZM131.714 26.524C128.282 26.524 127.922 30.7 128.018 33.244H136.826C136.826 29.644 136.13 26.524 131.714 26.524ZM139.403 38.5V26.524H142.811V33.508C143.315 30.508 144.611 26.116 148.283 26.116C149.963 26.116 150.755 27.22 150.755 28.228C150.755 29.716 149.411 30.604 148.139 30.988L147.995 30.604C149.099 30.292 150.371 29.524 150.371 28.228C150.371 27.412 149.699 26.524 148.283 26.524C143.483 26.524 142.811 34.996 142.811 38.5H139.403ZM152.434 38.5V26.5H155.842V33.508C156.346 30.508 157.642 26.116 161.314 26.116C165.154 26.116 166.786 28.396 166.786 32.98V38.5H163.354V30.004C163.354 27.388 162.754 26.524 161.314 26.524C156.514 26.524 155.842 34.996 155.842 38.5H152.434ZM175.119 38.5L167.751 26.5H171.519L178.143 37.42C179.751 32.932 181.695 27.484 182.031 26.5H182.463C182.271 27.028 178.383 38.164 176.871 42.268C176.535 43.18 175.599 43.78 174.495 43.78C173.031 43.78 171.831 42.604 171.831 41.14C171.831 39.676 173.007 38.5 174.471 38.5H175.119ZM172.239 41.14C172.239 42.388 173.271 43.372 174.519 43.372C175.431 43.372 176.199 42.868 176.487 42.124C176.799 41.284 177.183 40.156 177.639 38.884H174.471C173.247 38.884 172.239 39.892 172.239 41.14ZM193.989 21.772H197.397V26.5C197.517 25.78 198.381 21.412 202.461 21.412C204.957 21.412 208.173 22.156 208.173 25.276C208.173 27.484 206.253 29.02 203.853 29.188C206.853 29.452 209.709 30.436 209.709 33.844C209.709 38.404 205.749 38.5 202.053 38.5C201.909 38.5 201.765 38.5 201.621 38.5H193.989V21.772ZM200.973 29.404H197.397V38.092H200.637C204.309 38.092 206.157 37.876 206.157 33.844C206.157 30.364 204.309 29.404 200.973 29.404ZM202.245 21.796C198.453 21.796 197.493 26.908 197.397 29.044H201.909C203.349 29.02 204.693 28.132 204.693 25.06C204.693 22.396 203.685 21.796 202.245 21.796ZM211.16 32.524C211.16 28.3 214.808 26.116 218.744 26.116C222.656 26.116 226.328 28.3 226.328 32.524C226.328 36.724 222.656 38.884 218.744 38.884C214.808 38.884 211.16 36.724 211.16 32.524ZM218.744 26.476C215.768 26.476 214.664 28.372 214.664 32.524C214.664 36.604 215.48 38.524 218.744 38.524C221.912 38.524 222.824 36.604 222.824 32.524C222.824 28.372 221.744 26.476 218.744 26.476ZM228.372 38.5V26.524H231.78V33.508C232.284 30.508 233.58 26.116 237.252 26.116C238.932 26.116 239.724 27.22 239.724 28.228C239.724 29.716 238.38 30.604 237.108 30.988L236.964 30.604C238.068 30.292 239.34 29.524 239.34 28.228C239.34 27.412 238.668 26.524 237.252 26.524C232.452 26.524 231.78 34.996 231.78 38.5H228.372ZM241.165 34.708L244.213 34.204C244.213 37.156 244.789 38.5 247.429 38.5C250.861 38.5 251.773 37.732 251.773 35.86C251.773 34.54 250.525 34.18 246.493 33.46C242.845 32.812 241.669 31.66 241.669 29.5C241.669 27.22 243.757 26.116 246.685 26.116C251.269 26.116 252.517 28.252 252.517 31.3L250.213 31.492C252.085 31.996 253.189 33.076 253.189 34.996C253.189 37.9 251.149 38.86 247.429 38.86C243.421 38.86 241.165 37.948 241.165 34.708ZM246.685 26.452C244.573 26.452 242.869 27.1 242.869 28.612C242.869 29.812 243.661 30.244 246.685 30.772C247.789 30.964 249.613 31.3 249.613 31.324C249.613 28.3 249.613 26.452 246.685 26.452ZM255.442 38.5V20.668H258.85V33.508C259.354 30.508 260.65 26.116 264.322 26.116C268.282 26.116 269.794 28.372 269.794 32.98V38.5H266.362V30.004C266.362 27.388 265.762 26.524 264.322 26.524C259.522 26.524 258.85 34.996 258.85 38.5H255.442ZM279.112 38.884C274.576 38.884 271.84 36.172 271.84 32.524C271.84 28.828 274.792 26.14 279.112 26.14C282.4 26.14 284.008 27.652 284.272 29.404L283.864 29.5C283.6 27.94 282.352 26.524 279.112 26.524C276.784 26.524 275.392 28.516 275.392 32.524C275.392 35.884 276.256 38.476 279.112 38.476C281.296 38.476 283.24 37.828 284.8 36.484L284.992 36.724C284.584 37.06 282.832 38.884 279.112 38.884ZM286.802 38.5V20.668H290.21V33.508C290.714 30.508 292.01 26.116 295.682 26.116C299.642 26.116 301.154 28.372 301.154 32.98V38.5H297.722V30.004C297.722 27.388 297.122 26.524 295.682 26.524C290.882 26.524 290.21 34.996 290.21 38.5H286.802ZM303.559 26.5H306.991V35.044C306.991 37.66 307.591 38.5 309.031 38.5C313.903 38.5 314.503 30.028 314.503 26.5H317.911V38.5H314.503V31.54C313.999 34.516 312.727 38.908 309.055 38.908C306.031 38.908 303.559 37.9 303.559 32.044V26.5Z" fill="#262923"/>
</svg>
