<svg width="14" height="14" viewBox="0 0 14 14" fill="none" xmlns="http://www.w3.org/2000/svg">
<path fill-rule="evenodd" clip-rule="evenodd" d="M4.48037 1.83148C4.57484 1.76424 4.69214 1.73725 4.80649 1.75645C4.92085 1.77565 5.02291 1.83946 5.09024 1.93386L5.09199 1.93648L5.09637 1.94173L5.10774 1.95923C5.16159 2.03957 5.21096 2.12282 5.25562 2.20861C5.32737 2.34773 5.43762 2.59098 5.43762 2.84386C5.43762 3.09673 5.32737 3.33998 5.25562 3.47911C5.21067 3.56491 5.16102 3.64817 5.10687 3.72848L5.09637 3.74598L5.09287 3.74948L5.08849 3.75736C5.05478 3.80906 5.02382 3.86251 4.99574 3.91748C4.95435 3.98979 4.9262 4.06891 4.91262 4.15111C4.91262 4.18348 4.93537 4.27098 4.99574 4.39173C5.02393 4.44851 5.05519 4.50372 5.08937 4.55711L5.09462 4.56498M5.09462 4.56498C5.16029 4.66071 5.18525 4.7786 5.164 4.89273C5.14275 5.00686 5.07703 5.10787 4.98131 5.17354C4.88558 5.23922 4.76769 5.26418 4.65356 5.24293C4.53943 5.22168 4.43842 5.15596 4.37274 5.06023V5.05761L4.37099 5.05586L4.36749 5.05061L4.35612 5.03311C4.30335 4.95155 4.25515 4.86713 4.21174 4.78023C4.14174 4.64023 4.03587 4.39523 4.03762 4.14323C4.04024 3.89648 4.14612 3.65761 4.21524 3.52111C4.25803 3.43665 4.30535 3.35457 4.35699 3.27523L4.36837 3.25773L4.37187 3.25248L4.37362 3.25073L4.37712 3.24636L4.38324 3.23761C4.41788 3.18568 4.44972 3.13194 4.47862 3.07661C4.52022 3.00463 4.54866 2.92581 4.56262 2.84386C4.54866 2.7619 4.52022 2.68309 4.47862 2.61111C4.44946 2.55546 4.41733 2.50142 4.38237 2.44923L4.37799 2.44136C4.31075 2.34689 4.28289 2.22959 4.30209 2.11523C4.32128 2.00088 4.38597 1.89882 4.48037 1.83148M7.08349 0.956482C7.03669 0.923052 6.98375 0.899179 6.92771 0.88623C6.87166 0.873282 6.81362 0.871511 6.75689 0.88102C6.70016 0.890528 6.64587 0.91113 6.59711 0.941646C6.54835 0.972161 6.50609 1.01199 6.47274 1.05886L6.47099 1.06148L6.46662 1.06673L6.45524 1.08423C6.4014 1.16457 6.35203 1.24782 6.30737 1.33361C6.23562 1.47273 6.12537 1.71598 6.12537 1.96886C6.12537 2.22173 6.23562 2.46498 6.30737 2.60411C6.35231 2.68991 6.40197 2.77317 6.45612 2.85348L6.46662 2.87098L6.47012 2.87448L6.47449 2.88236C6.50821 2.93406 6.53917 2.98751 6.56724 3.04248C6.60864 3.11479 6.63679 3.19391 6.65037 3.27611C6.63787 3.36066 6.61 3.44222 6.56812 3.51673C6.53964 3.57353 6.5081 3.62874 6.47362 3.68211L6.46837 3.68998M6.46837 3.68998C6.4027 3.78571 6.37774 3.9036 6.39899 4.01773C6.42024 4.13186 6.48596 4.23287 6.58168 4.29854C6.67741 4.36422 6.7953 4.38918 6.90943 4.36793C7.02356 4.34668 7.12457 4.28096 7.19024 4.18523V4.18261L7.19199 4.18086L7.19549 4.17561L7.20687 4.15811C7.25964 4.07655 7.30784 3.99213 7.35124 3.90523C7.42124 3.76523 7.52712 3.52023 7.52537 3.26823C7.52274 3.02148 7.41687 2.78261 7.34774 2.64611C7.30496 2.56165 7.25764 2.47957 7.20599 2.40023L7.19462 2.38273L7.19112 2.37836L7.18937 2.37573L6.82799 2.62511L7.18762 2.37573L7.18499 2.37136L7.17887 2.36261C7.14423 2.31068 7.11239 2.25694 7.08349 2.20161C7.0422 2.12957 7.01405 2.05076 7.00037 1.96886C7.00037 1.93911 7.02312 1.85511 7.08437 1.73611C7.11352 1.68046 7.14565 1.62642 7.18062 1.57423L7.18499 1.56636C7.25224 1.47189 7.2801 1.35459 7.2609 1.24023C7.24171 1.12588 7.1779 1.02382 7.08349 0.956482M9.70849 1.83148C9.66169 1.79805 9.60875 1.77418 9.55271 1.76123C9.49666 1.74828 9.43862 1.74651 9.38189 1.75602C9.32516 1.76553 9.27087 1.78613 9.22211 1.81665C9.17335 1.84716 9.13109 1.88699 9.09774 1.93386L9.09599 1.93648L9.09162 1.94173L9.08024 1.95923L9.04262 2.01611C9.01287 2.06336 8.97262 2.12986 8.93237 2.20861C8.86062 2.34773 8.75037 2.59098 8.75037 2.84386C8.75037 3.09673 8.86062 3.33998 8.93237 3.47911C8.97731 3.56491 9.02697 3.64817 9.08112 3.72848L9.09162 3.74598L9.09424 3.74948L9.09949 3.75736C9.13321 3.80906 9.16417 3.86251 9.19224 3.91748C9.23363 3.98979 9.26179 4.06891 9.27537 4.15111C9.2626 4.23572 9.23443 4.31728 9.19224 4.39173C9.16405 4.44851 9.1328 4.50372 9.09862 4.55711L9.09337 4.56498M9.09337 4.56498C9.0277 4.66071 9.00274 4.7786 9.02399 4.89273C9.04524 5.00686 9.11095 5.10787 9.20668 5.17354C9.30241 5.23922 9.4203 5.26418 9.53443 5.24293C9.64856 5.22168 9.74957 5.15596 9.81524 5.06023V5.05761L9.81699 5.05586L9.82049 5.05061L9.83187 5.03311C9.88464 4.95155 9.93284 4.86713 9.97624 4.78023C10.0462 4.64023 10.1521 4.39523 10.1504 4.14323C10.1486 3.89648 10.0427 3.65761 9.97274 3.52111C9.92996 3.43665 9.88264 3.35457 9.83099 3.27523L9.81962 3.25773L9.81612 3.25336L9.81437 3.25073L9.45387 3.49923L9.81349 3.24986L9.80999 3.24548L9.80562 3.23673L9.78199 3.20173C9.75605 3.16076 9.73182 3.11872 9.70937 3.07573C9.66787 3.00402 9.63943 2.92551 9.62537 2.84386C9.62537 2.81411 9.64812 2.73011 9.70937 2.61111C9.73852 2.55546 9.77065 2.50142 9.80562 2.44923L9.80999 2.44136C9.87724 2.34689 9.9051 2.22959 9.8859 2.11523C9.86671 2.00088 9.8029 1.89882 9.70849 1.83148" fill="#DC143C"/>
<path fill-rule="evenodd" clip-rule="evenodd" d="M0.875 5.6875C0.875 5.57147 0.921094 5.46019 1.00314 5.37814C1.08519 5.29609 1.19647 5.25 1.3125 5.25H12.6875C12.8035 5.25 12.9148 5.29609 12.9969 5.37814C13.0789 5.46019 13.125 5.57147 13.125 5.6875C13.125 6.84688 12.6753 8.01762 12.0076 8.99937C11.3977 9.89625 10.5849 10.6671 9.70813 11.1449V11.8125C9.70813 11.9285 9.66203 12.0398 9.57998 12.1219C9.49794 12.2039 9.38666 12.25 9.27063 12.25H4.75825C4.64222 12.25 4.53094 12.2039 4.44889 12.1219C4.36684 12.0398 4.32075 11.9285 4.32075 11.8125V11.1449C3.444 10.6671 2.625 9.898 2.00813 9.00112C1.3335 8.02025 0.875 6.84863 0.875 5.6875Z" fill="#DC143C"/>
</svg>
