<svg width="24" height="24" viewBox="0 0 24 24" fill="none" xmlns="http://www.w3.org/2000/svg">
<path d="M18.864 10.3636C18.864 14.7167 14.6101 18.5971 12.5687 20.2086C11.935 20.7089 11.0657 20.7089 10.432 20.2086C8.39058 18.5971 4.13672 14.7167 4.13672 10.3636C4.13672 8.41068 4.91253 6.53771 6.29348 5.15676C7.67443 3.77581 9.5474 3 11.5004 3C13.4533 3 15.3263 3.77581 16.7072 5.15676C18.0882 6.53771 18.864 8.41068 18.864 10.3636Z" stroke="#1A1A1A" stroke-width="1.5" stroke-linecap="round" stroke-linejoin="round"/>
<path d="M11.5 13C12.8807 13 14 11.8807 14 10.5C14 9.11929 12.8807 8 11.5 8C10.1193 8 9 9.11929 9 10.5C9 11.8807 10.1193 13 11.5 13Z" stroke="#1A1A1A" stroke-width="1.5" stroke-linecap="round" stroke-linejoin="round"/>
</svg>
