<svg width="20" height="20" viewBox="0 0 20 20" fill="none" xmlns="http://www.w3.org/2000/svg">
<g clip-path="url(#clip0_2568_3131)">
<path d="M10.3851 0.515269C10.4832 0.602963 10.5773 0.692527 10.6701 0.785807C10.7582 0.874416 10.8473 0.96198 10.9364 1.04963C11.2332 1.34311 11.5261 1.63586 11.7978 1.95295C11.8377 1.99814 11.8776 2.04325 11.9177 2.0883C12.2341 2.44687 12.5289 2.81863 12.8134 3.20295C12.8309 3.22666 12.8485 3.25037 12.8666 3.2748C14.5732 5.59134 15.5571 8.19846 15.5478 11.0838C15.4742 12.9336 15.4742 12.9336 16.2368 14.5323C16.3222 14.6172 16.4086 14.7012 16.495 14.785C16.5395 14.8287 16.584 14.8724 16.6284 14.9162C16.7365 15.0226 16.8451 15.1285 16.954 15.2342C16.9828 15.2154 17.0115 15.1965 17.0411 15.1771C17.0983 15.1401 17.0983 15.1401 17.1566 15.1024C17.1943 15.0779 17.2319 15.0534 17.2706 15.0282C17.4865 14.8995 17.643 14.855 17.8915 14.8826C18.0098 14.9832 18.0423 15.0448 18.0673 15.1976C18.0429 15.3411 18.0003 15.3744 17.8915 15.4686C17.8243 15.5065 17.7558 15.5423 17.6864 15.576C17.5286 15.6582 17.4144 15.741 17.2934 15.8714C17.199 15.9719 17.1567 16.0127 17.0248 16.0618C16.7798 16.0455 16.6241 15.8523 16.4613 15.6866C16.4253 15.6505 16.4253 15.6505 16.3886 15.6136C16.3124 15.5369 16.2365 15.46 16.1605 15.3831C16.1088 15.331 16.057 15.2788 16.0051 15.2266C15.8785 15.0992 15.7521 14.9714 15.6259 14.8436C15.4148 15.0218 15.4148 15.0218 15.2147 15.2119C15.1816 15.2452 15.1816 15.2452 15.1479 15.2791C15.126 15.3013 15.104 15.3236 15.0814 15.3465C15.0585 15.3697 15.0355 15.3928 15.0118 15.4167C14.956 15.473 14.9003 15.5294 14.8446 15.5858C14.9882 15.7625 15.1423 15.9241 15.3056 16.0827C15.3261 16.1027 15.3466 16.1228 15.3677 16.1434C15.4535 16.227 15.5393 16.3106 15.6259 16.3935C15.6897 16.4547 15.7528 16.5164 15.8159 16.5783C15.8354 16.5968 15.855 16.6152 15.8752 16.6342C16.0016 16.7597 16.0499 16.8524 16.0556 17.0311C15.9916 17.1563 15.9196 17.244 15.8233 17.346C15.5371 17.6502 15.4438 17.9007 15.456 18.3204C15.4911 18.6222 15.6226 18.9073 15.8603 19.1014C16.2146 19.322 16.5182 19.4257 16.9311 19.3298C17.2496 19.2254 17.4942 19.0439 17.6571 18.7498C17.7555 18.5357 17.7876 18.3345 17.7899 18.0998C17.8258 17.959 17.8958 17.9011 18.0087 17.8123C18.1364 17.7817 18.1364 17.7817 18.2748 17.7708C18.5053 17.7448 18.675 17.7062 18.8681 17.578C18.9083 17.5522 18.9486 17.5264 18.9901 17.4998C19.2004 17.3092 19.3159 17.0457 19.3597 16.7695C19.3748 16.4201 19.3097 16.1437 19.1024 15.8592C19.013 15.7733 18.9202 15.6954 18.8238 15.6174C18.7509 15.5467 18.7509 15.5467 18.7045 15.4002C18.7153 15.213 18.7153 15.213 18.7899 15.117C18.8847 15.0433 18.9479 15.0388 19.0683 15.0316C19.3347 15.0813 19.5339 15.3312 19.6919 15.5346C20.0211 16.024 20.0785 16.5534 19.9766 17.129C19.8553 17.542 19.5761 17.9216 19.2196 18.1639C19.0505 18.2557 18.8794 18.3412 18.6898 18.3793C18.5892 18.3999 18.5226 18.4168 18.4384 18.4764C18.384 18.5982 18.3534 18.7186 18.3213 18.8479C18.2052 19.2517 17.9132 19.5727 17.5575 19.7862C17.0807 20.0351 16.5141 20.096 15.9945 19.9388C15.5101 19.7456 15.1508 19.3974 14.9231 18.9316C14.748 18.4707 14.7348 17.9487 14.9115 17.4866C14.9783 17.3486 15.0583 17.2254 15.1504 17.1029C15.2067 17.0288 15.2067 17.0288 15.1962 16.9139C15.0653 16.7494 14.9145 16.6015 14.7665 16.4525C14.7451 16.4309 14.7238 16.4093 14.7017 16.3871C14.3746 16.0604 14.098 15.8305 13.6337 15.742C13.5615 15.7239 13.5615 15.7239 13.4878 15.7054C13.0388 15.5975 12.5899 15.5778 12.1298 15.5638C12.1035 15.563 12.0771 15.5621 12.05 15.5612C11.6842 15.5497 11.319 15.5449 10.953 15.5467C7.4859 15.558 4.38565 13.9933 1.85789 11.6914C1.79533 11.6346 1.73255 11.5781 1.66947 11.5219C0.0584677 10.0859 0.0584678 10.0859 -0.00603579 8.98319C-0.0488806 6.74536 0.980991 4.86656 2.46182 3.24201C2.52123 3.17529 2.58064 3.10856 2.64004 3.04182C2.89052 2.76394 3.15399 2.50824 3.43838 2.26545C3.47443 2.23373 3.51049 2.20201 3.54763 2.16932C4.09138 1.69458 4.6895 1.29864 5.31338 0.937327C5.34055 0.921566 5.36772 0.905805 5.39572 0.889567C6.78687 0.0933114 8.97797 -0.573995 10.3851 0.515269ZM5.85613 1.36602C5.78095 1.40671 5.70527 1.44636 5.62954 1.48603C4.93364 1.85745 4.31023 2.35089 3.72936 2.8816C3.66746 2.93788 3.60493 2.99347 3.54168 3.04823C3.06181 3.46625 2.647 3.94436 2.2665 4.45295C2.24621 4.47968 2.22592 4.50642 2.20501 4.53396C1.90476 4.93058 1.64153 5.33477 1.41165 5.77604C1.37059 5.85439 1.32823 5.93189 1.28552 6.00935C1.04374 6.45757 0.887437 6.93455 0.743066 7.4217C0.734839 7.44903 0.726613 7.47635 0.718137 7.5045C0.621238 7.84056 0.614748 8.17527 0.61123 8.52278C0.610676 8.56502 0.610122 8.60726 0.609551 8.65078C0.613333 9.27102 0.806959 9.77415 1.2347 10.2255C1.78561 10.7327 2.47959 10.7747 3.18955 10.7505C4.88522 10.6409 6.47155 9.5568 7.68444 8.44175C7.74736 8.38396 7.81101 8.32695 7.87518 8.27055C8.05176 8.11514 8.21581 7.9583 8.36727 7.7783C8.44837 7.68346 8.53366 7.59327 8.61904 7.50227C9.8279 6.17235 10.8215 4.4037 10.7595 2.56437C10.7238 1.95944 10.4814 1.46781 10.0399 1.05451C8.82898 0.140916 7.05275 0.718166 5.85613 1.36602ZM11.3681 2.46076C11.3675 2.49723 11.3675 2.49723 11.367 2.53443C11.3271 4.66414 10.3326 6.55903 8.89187 8.0937C8.79874 8.19352 8.70879 8.29541 8.61904 8.39826C7.75916 9.3525 6.65287 10.1169 5.49921 10.6699C5.44069 10.6981 5.38256 10.7271 5.32452 10.7562C4.41455 11.1975 3.46333 11.352 2.46182 11.367C4.09264 13.0305 6.50077 14.2906 8.77773 14.7362C8.80781 14.7421 8.83788 14.748 8.86886 14.7541C9.50889 14.871 10.1433 14.8945 10.7926 14.9007C13.215 14.9254 13.215 14.9254 14.2587 15.2733C14.5938 14.9381 14.929 14.603 15.2743 14.2576C15.2099 14.0514 15.1454 13.8451 15.079 13.6326C14.9783 13.134 14.9567 12.6344 14.9522 12.1267C14.9509 12.0259 14.9496 11.925 14.9483 11.8241C14.9465 11.6682 14.9447 11.5124 14.9432 11.3565C14.9312 10.1049 14.9312 10.1049 14.7592 8.86701C14.7466 8.80437 14.7466 8.80437 14.7337 8.74045C14.3911 7.09778 13.6641 5.50928 12.6962 4.14045C12.6815 4.11947 12.6669 4.09849 12.6517 4.07688C12.0587 3.22796 12.0587 3.22796 11.3681 2.46076Z" fill="#DC133B"/>
<path d="M9.56113 1.63096C9.94413 1.98332 10.134 2.48244 10.1655 2.99205C10.2034 4.66395 9.23123 6.13715 8.16464 7.34385C8.14613 7.36484 8.12761 7.38582 8.10853 7.40744C7.66312 7.90879 7.17654 8.34687 6.64121 8.7501C6.62005 8.7663 6.59888 8.78249 6.57708 8.79918C5.51683 9.60734 4.2134 10.2435 2.85214 10.1564C2.38733 10.0931 1.96045 9.92337 1.64121 9.57041C1.24279 9.03089 1.14587 8.40601 1.22325 7.75262C1.32404 7.08711 1.54706 6.28201 1.97431 5.74549C2.08231 5.66614 2.17778 5.68564 2.30527 5.70323C2.42246 5.78135 2.42246 5.78135 2.50058 5.89854C2.49136 6.14007 2.42459 6.31351 2.31504 6.52598C1.98835 7.19032 1.72567 7.96639 1.92441 8.71028C2.02057 8.96922 2.18434 9.19283 2.42246 9.33604C3.1131 9.63738 3.84533 9.46722 4.52212 9.2068C5.14636 8.95202 5.71528 8.61079 6.25058 8.20323C6.28825 8.17463 6.32591 8.14602 6.36472 8.11656C6.56192 7.96223 6.74889 7.79745 6.93372 7.62858C6.9998 7.56836 7.06644 7.50876 7.13361 7.44975C7.33833 7.26949 7.52115 7.08415 7.69589 6.8751C7.74333 6.8211 7.74333 6.8211 7.79172 6.766C8.24429 6.24841 8.63049 5.68931 8.94589 5.07823C8.95853 5.05377 8.97116 5.02931 8.98417 5.00411C9.34299 4.29823 9.64495 3.45525 9.43173 2.66368C9.321 2.34383 9.16245 2.15209 8.86289 1.99473C8.29392 1.72661 7.6117 1.89369 7.04206 2.07881C6.05479 2.45105 5.20188 3.03844 4.42731 3.74613C4.34802 3.81783 4.2671 3.88658 4.18515 3.95518C3.84684 4.25044 3.55471 4.60123 3.27558 4.95158C3.11702 5.14481 3.11702 5.14481 2.99619 5.19053C2.85497 5.1971 2.77587 5.15127 2.65683 5.07823C2.59595 4.95646 2.58503 4.8569 2.61777 4.72666C2.70768 4.5839 2.81761 4.46124 2.93027 4.33604C2.95978 4.30276 2.98928 4.26947 3.01969 4.23518C3.07871 4.16916 3.13806 4.10344 3.19776 4.03804C3.27279 3.95537 3.34589 3.87147 3.41855 3.78672C3.66566 3.50448 3.93135 3.25421 4.22437 3.02012C4.33873 2.92801 4.44974 2.83261 4.56113 2.73692C5.76668 1.73332 8.09191 0.472912 9.56113 1.63096Z" fill="#DC133B"/>
<path d="M8.42838 2.84371C8.61171 3.02195 8.67673 3.24355 8.68473 3.49312C8.6747 4.11499 8.31322 4.65434 7.89112 5.08553C7.47738 5.48538 6.98971 5.75886 6.40857 5.75249C6.17973 5.73164 6.0169 5.64116 5.8649 5.47066C5.68097 5.20559 5.67508 4.96345 5.70377 4.64791C5.85633 3.97252 6.31699 3.35567 6.89274 2.97799C7.39318 2.67397 7.90347 2.49775 8.42838 2.84371ZM6.85932 3.84011C6.57734 4.13389 6.34295 4.49096 6.32145 4.9067C6.31423 5.04136 6.31423 5.04136 6.4069 5.11666C6.72797 5.14365 7.00972 4.98814 7.25696 4.80034C7.59844 4.50744 7.97895 4.09513 8.04752 3.63228C8.04903 3.48241 8.04903 3.48241 8.00846 3.35885C7.61786 3.09845 7.1278 3.58247 6.85932 3.84011Z" fill="#DC133B"/>
</g>
<defs>
<clipPath id="clip0_2568_3131">
<rect width="20" height="20" fill="white"/>
</clipPath>
</defs>
</svg>
