<svg width="64" height="64" viewBox="0 0 24 24" xmlns="http://www.w3.org/2000/svg">
  <path d="M22.02 10.07l-1.01-.98c.34-.2.64-.5.87-.87.4-.62.64-1.46.64-2.38s-.24-1.76-.64-2.38c-.41-.63-1.02-1.03-1.71-1.03s-1.3.4-1.71 1.03c-.4.62-.65 1.47-.65 2.38 0 .07 0 .15.01.22l-3.5-3.67c-.3-.31-.69-.46-1.09-.46-.4 0-.79.16-1.09.46l-3.83 3.87c.22-1.01.36-2.2.36-3.46 0-.18-.15-.33-.33-.33s-.33.15-.33.33c0 .75-.05 1.49-.13 2.17H5V3.13c0-.18-.15-.33-.33-.33s-.33.15-.33.33v2.17H3.12c-.08-.68-.13-1.42-.13-2.17 0-.18-.15-.33-.33-.33s-.33.15-.33.33c0 1.69.22 3.22.6 4.35.18.56.42 1.02.68 1.36.07.09.14.17.21.24l-1.01 1.15c-.58.58-.58 1.52 0 2.1l.82.7-.33 5.84c-.03.47.36.87.83.87h.86c.47 0 .85-.4.83-.87l-.21-3.71 4.59 4.55c.58.57 1.52.58 2.1 0l4.56-4.53-.2 3.69c-.03.47.36.87.83.87h.86c.47 0 .85-.4.83-.87l-.32-5.74.84-.8c.58-.58.58-1.52 0-2.1zm-8.45-7.47c.23 0 .46.09.63.27l3.96 4.16c.11.39.26.74.46 1.05.24.38.55.67.91.85l-.28 5.02-5.04 5c-.35.35-.9.35-1.25 0l-5.07-5.02-.29-5.14c.11-.09.21-.2.31-.32.22-.29.41-.66.57-1.1l4.47-4.51c.17-.17.4-.26.62-.26zm6.68.46c.32 0 .63.2.88.58.25.38.42.93.42 1.53s-.17 1.15-.42 1.53c-.25.38-.56.58-.88.58-.32 0-.63-.2-.88-.58-.25-.38-.42-.93-.42-1.53s.17-1.15.42-1.53c.25-.38.56-.58.88-.58zm-17.26 1.73h3.08c-.1.57-.21 1.09-.36 1.53-.17.54-.39.97-.61 1.25-.21.27-.41.38-.59.38s-.39-.11-.6-.38c-.22-.28-.44-.71-.61-1.25-.14-.44-.26-.96-.36-1.53zm8.44 1.27c-2.43 0-4.41 1.98-4.41 4.41s1.98 4.41 4.41 4.41c1.6 0 3-.85 3.78-2.12.09-.15.04-.34-.1-.43-.15-.09-.34-.04-.43.1-.63 1.09-1.87 1.82-3.25 1.82-2.1 0-3.81-1.71-3.81-3.81s1.71-3.81 3.81-3.81c1.41 0 2.64.77 3.3 1.91.09.15.29.2.44.11.15-.09.2-.29.11-.44-.76-1.33-2.2-2.22-3.85-2.22zm-7.11 2.53h.33l.55 9.82c.01.16-.11.28-.26.28h-.86c-.15 0-.27-.12-.26-.27zm13.84 0c.12.02.23.01.34 0l.54 9.78c.01.16-.11.28-.26.28h-.86c-.15 0-.27-.12-.26-.27zm-14.48.56l-.13 2.38-.46-.4c-.35-.35-.35-.91 0-1.26zm15.43.09l.61.59c.35.35.35.91 0 1.26l-.48.46z" fill="#A71E5B"/>
</svg>

