<svg width="20" height="20" viewBox="0 0 20 20" fill="none" xmlns="http://www.w3.org/2000/svg">
<g clip-path="url(#clip0_2568_3203)">
<path d="M13.5937 2.89144C13.6392 2.92371 13.6392 2.92371 13.6857 2.95664C14.0413 3.20942 14.3919 3.46764 14.7357 3.73623C14.8132 3.79656 14.891 3.85648 14.9688 3.91638C15.3258 4.19172 15.6775 4.47262 16.0246 4.76034C16.0615 4.79083 16.0615 4.79083 16.0992 4.82193C16.1483 4.86367 16.1964 4.90664 16.2435 4.95067C16.3869 5.08321 16.4713 5.14518 16.6747 5.14242C16.9728 5.15433 17.1898 5.23443 17.4145 5.43295C17.7413 5.80567 17.7187 6.26268 17.7135 6.7305C17.7123 6.84167 17.7127 6.95278 17.7132 7.06396C17.7129 7.13562 17.7126 7.20729 17.7122 7.27895C17.7123 7.31168 17.7124 7.3444 17.7125 7.37812C17.7079 7.67153 17.652 7.95884 17.4462 8.17953C17.4225 8.20531 17.3988 8.23109 17.3744 8.25765C17.3046 8.32113 17.3046 8.32113 17.1899 8.37484C17.1633 8.39579 17.1367 8.41674 17.1093 8.43832C17.0779 8.70657 17.1182 8.99004 17.1407 9.25817C17.1475 9.34212 17.1542 9.42607 17.1609 9.51002C17.1662 9.57565 17.1662 9.57565 17.1716 9.64261C17.2993 11.2348 17.3585 12.8177 17.3437 14.4149C17.3793 14.4263 17.415 14.4376 17.4518 14.4493C18.5763 14.8381 19.2943 15.8333 19.7969 16.8546C19.9573 17.1951 20.0939 17.5194 19.9728 17.8983C19.8869 18.0668 19.7692 18.1501 19.6093 18.243C19.4734 18.2825 19.4734 18.2825 19.3285 18.3089C19.2813 18.3179 19.234 18.327 19.1853 18.3362C18.2748 18.4813 17.2782 18.4712 16.4079 18.1434C16.1718 18.0625 15.9804 18.1074 15.7421 18.1649C15.6729 18.1812 15.6729 18.1812 15.6023 18.1978C15.4986 18.2226 15.3951 18.2476 15.2917 18.273C14.6129 18.4393 13.9345 18.5739 13.2421 18.6727C13.2003 18.6787 13.1585 18.6847 13.1154 18.6908C10.4263 19.063 7.52601 18.9841 4.88763 18.3133C4.8448 18.3025 4.8448 18.3025 4.8011 18.2914C4.6635 18.2561 4.5262 18.22 4.38919 18.1825C4.34012 18.1695 4.29106 18.1565 4.2405 18.1431C4.19752 18.1313 4.15454 18.1194 4.11026 18.1073C3.9156 18.0756 3.73767 18.1121 3.55096 18.1696C3.50926 18.1821 3.50926 18.1821 3.46673 18.1948C3.43773 18.2034 3.40872 18.2121 3.37884 18.221C2.57341 18.4494 1.74114 18.4522 0.913019 18.3504C0.876738 18.3462 0.840458 18.3419 0.803079 18.3375C0.528861 18.2992 0.29221 18.2302 0.10003 18.0233C-0.0383684 17.8129 -0.0439795 17.5904 -6.74352e-05 17.3446C0.0767067 17.0991 0.196236 16.8701 0.312433 16.6414C0.346044 16.5729 0.346044 16.5729 0.380334 16.5029C0.858459 15.5672 1.60244 14.8237 2.57806 14.4149C2.60384 14.4149 2.62962 14.4149 2.65618 14.4149C2.65577 14.3697 2.65536 14.3244 2.65494 14.2778C2.64186 12.6771 2.70712 11.0914 2.83894 9.49611C2.84234 9.45451 2.84574 9.41291 2.84924 9.37004C2.85559 9.29269 2.86208 9.21535 2.86873 9.13802C2.88311 8.96304 2.89424 8.7882 2.89893 8.61268C2.89984 8.58121 2.90074 8.54974 2.90168 8.51732C2.89767 8.4248 2.89767 8.4248 2.78802 8.35287C2.74451 8.3295 2.70101 8.30614 2.65618 8.28207C2.4395 8.08669 2.32861 7.85465 2.2935 7.56549C2.28866 7.46978 2.28735 7.37478 2.28768 7.27895C2.28748 7.24406 2.28727 7.20916 2.28706 7.1732C2.28681 7.09987 2.28686 7.02653 2.2872 6.9532C2.28753 6.84218 2.2864 6.73124 2.28517 6.62023C2.28345 6.18439 2.28289 5.77787 2.58538 5.43295C2.80876 5.2356 3.02094 5.15393 3.3178 5.14974C3.56574 5.13567 3.6699 5.0425 3.84072 4.87005C3.95609 4.75569 4.0779 4.65775 4.20648 4.55892C4.25374 4.52227 4.301 4.4856 4.34823 4.44891C4.38397 4.42118 4.38397 4.42118 4.42042 4.39289C4.5143 4.31939 4.60693 4.24442 4.69959 4.16941C7.90127 1.58144 10.0048 0.34881 13.5937 2.89144ZM7.10931 3.28207C7.0688 3.30983 7.0688 3.30983 7.02748 3.33814C6.57977 3.6462 6.14746 3.97361 5.71691 4.30507C5.63645 4.36696 5.55583 4.42861 5.47509 4.49011C5.07388 4.79494 5.07388 4.79494 4.68743 5.11801C4.68743 5.1309 4.68743 5.14379 4.68743 5.15707C8.20657 5.15707 11.7257 5.15707 15.3515 5.15707C15.2268 5.0324 15.1018 4.92277 14.9633 4.81527C14.9399 4.79704 14.9166 4.7788 14.8925 4.76002C14.8113 4.69685 14.7298 4.63396 14.6484 4.57113C14.6172 4.5471 14.5861 4.52307 14.554 4.49831C11.8158 2.39004 10.1751 1.1753 7.10931 3.28207ZM3.07328 5.97413C2.99998 6.10655 2.99998 6.10655 2.98371 6.25075C2.98335 6.27904 2.98299 6.30733 2.98261 6.33647C2.98357 6.38116 2.98357 6.38116 2.98455 6.42675C2.98455 6.45804 2.98455 6.48932 2.98455 6.52156C2.98476 6.58738 2.98544 6.65321 2.98657 6.71902C2.98821 6.81951 2.98818 6.9199 2.98791 7.02039C2.98832 7.08456 2.98882 7.14872 2.98943 7.21288C2.98944 7.24276 2.98945 7.27263 2.98946 7.3034C2.99335 7.47968 3.01488 7.5957 3.12493 7.73519C3.26344 7.82753 3.32129 7.82293 3.4854 7.82267C3.56069 7.82289 3.56069 7.82289 3.63751 7.82311C3.67773 7.82298 3.67773 7.82298 3.71876 7.82284C3.80285 7.82262 3.88691 7.82298 3.97099 7.82351C4.21002 7.82496 4.44905 7.82569 4.68808 7.82525C4.83437 7.82502 4.98063 7.82574 5.12691 7.82704C5.18257 7.82735 5.23823 7.8273 5.29389 7.82688C5.37186 7.82632 5.44983 7.82706 5.52779 7.82786C5.57211 7.82789 5.61643 7.82791 5.66209 7.82794C5.81934 7.86021 5.87833 7.92314 5.9765 8.04769C5.99194 8.19701 5.9848 8.29622 5.93743 8.43832C5.81743 8.47832 5.73196 8.48342 5.60614 8.4854C5.54046 8.48657 5.54046 8.48657 5.47345 8.48776C5.40258 8.48874 5.40258 8.48874 5.33029 8.48974C5.2819 8.49055 5.23351 8.49136 5.18365 8.4922C5.05516 8.49432 4.92666 8.49628 4.79816 8.49817C4.66697 8.50013 4.53579 8.50231 4.40461 8.50446C4.14733 8.50865 3.89004 8.51263 3.63275 8.51644C3.53909 9.5704 3.44982 10.6236 3.39837 11.6805C3.39632 11.7211 3.39427 11.7617 3.39215 11.8035C3.37164 12.2201 3.35945 12.6363 3.35519 13.0534C3.35333 13.2312 3.35096 13.409 3.34861 13.5868C3.34761 13.6762 3.3469 13.7656 3.34648 13.855C3.34589 13.9816 3.34437 14.1082 3.34268 14.2348C3.34275 14.2731 3.34283 14.3114 3.34291 14.3509C3.33879 14.5795 3.31363 14.708 3.164 14.8836C3.10098 14.9383 3.10098 14.9383 3.0346 14.9764C3.00766 14.9922 2.98072 15.0079 2.95297 15.0242C2.84933 15.0801 2.74475 15.1341 2.64008 15.188C2.35868 15.3342 2.11136 15.4898 1.87493 15.7039C1.84296 15.7323 1.81098 15.7606 1.77804 15.7899C1.28123 16.2558 0.952022 16.8723 0.703058 17.5008C0.703058 17.5266 0.703058 17.5524 0.703058 17.5789C0.760793 17.5914 0.818586 17.6035 0.876397 17.6156C0.924662 17.6258 0.924662 17.6258 0.973901 17.6362C2.06131 17.8259 3.33525 17.7109 4.27051 17.08C4.57135 16.8595 4.85259 16.5862 5.07806 16.2899C5.07806 16.2641 5.07806 16.2383 5.07806 16.2118C5.13978 16.202 5.20167 16.1932 5.2636 16.1849C5.29805 16.1799 5.33249 16.1749 5.36797 16.1698C5.49281 16.1734 5.53719 16.2027 5.62493 16.2899C5.67485 16.4521 5.67562 16.5353 5.61028 16.6927C5.39645 17.0204 5.10126 17.2888 4.80462 17.5399C5.74856 18.0617 7.38018 18.0623 8.43743 18.1258C8.47208 18.128 8.50673 18.1302 8.54243 18.1325C10.7742 18.2694 13.019 18.0942 15.1952 17.5789C15.0961 17.4792 14.9965 17.3804 14.8951 17.2829C14.3551 16.759 14.3551 16.759 14.3252 16.5153C14.3338 16.3912 14.3606 16.3069 14.4409 16.2118C14.5819 16.1508 14.7037 16.1658 14.8534 16.1825C14.9218 16.2118 14.9218 16.2118 14.9555 16.2803C15.2715 16.9045 16.0153 17.2986 16.6528 17.513C17.4605 17.736 18.487 17.8489 19.2968 17.5789C19.2209 17.3264 19.1227 17.0962 18.999 16.8636C18.9817 16.8312 18.9645 16.7989 18.9468 16.7655C18.5074 15.9572 17.8847 15.4296 17.0692 15.0331C16.8854 14.9405 16.7717 14.8335 16.6796 14.6493C16.6744 14.528 16.6714 14.4074 16.67 14.2861C16.6688 14.2085 16.6675 14.1309 16.6663 14.0533C16.6657 14.012 16.6651 13.9708 16.6645 13.9283C16.6401 12.3172 16.556 10.7151 16.4237 9.10936C16.4213 9.07956 16.4188 9.04977 16.4163 9.01906C16.4068 8.91422 16.3965 8.8095 16.386 8.70476C16.3825 8.66951 16.379 8.63427 16.3753 8.59795C16.3726 8.57106 16.3699 8.54416 16.3671 8.51644C16.3184 8.51642 16.2696 8.5164 16.2194 8.51638C15.0627 8.51583 13.906 8.51428 12.7493 8.51149C12.607 8.51114 12.4647 8.51081 12.3223 8.51048C12.294 8.51042 12.2657 8.51035 12.2365 8.51028C11.7775 8.50924 11.3186 8.50889 10.8596 8.50878C10.3887 8.50867 9.91787 8.50781 9.44702 8.50627C9.18251 8.50542 8.91801 8.50492 8.6535 8.50527C8.40466 8.50556 8.15584 8.50494 7.90701 8.50363C7.81556 8.5033 7.72412 8.50332 7.63268 8.50368C7.50802 8.50414 7.38343 8.5034 7.25878 8.50235C7.20423 8.50298 7.20423 8.50298 7.14858 8.50361C6.97304 8.50086 6.89821 8.49519 6.75481 8.38549C6.67962 8.28207 6.67962 8.28207 6.65521 8.16488C6.68915 8.00195 6.74239 7.953 6.87493 7.85238C7.00735 7.8238 7.13727 7.82659 7.2723 7.82846C7.31268 7.82825 7.35307 7.82803 7.39468 7.82781C7.53021 7.82731 7.66569 7.82821 7.80122 7.8291C7.8983 7.82903 7.99537 7.82886 8.09245 7.82862C8.3016 7.82828 8.51073 7.82852 8.71987 7.82927C9.02246 7.83035 9.32505 7.8302 9.62765 7.82972C10.1189 7.82896 10.6101 7.82896 11.1013 7.82954C11.1307 7.82957 11.1601 7.82961 11.1904 7.82964C11.3095 7.82979 11.4286 7.82993 11.5477 7.83008C11.8756 7.83049 12.2035 7.83081 12.5313 7.83107C12.5607 7.83109 12.5901 7.83111 12.6203 7.83114C13.1097 7.8315 13.5991 7.83124 14.0885 7.83058C14.3904 7.83021 14.6922 7.83041 14.9941 7.83136C15.2253 7.83204 15.4565 7.83195 15.6877 7.83157C15.7826 7.83155 15.8775 7.8318 15.9724 7.83234C16.1017 7.83303 16.231 7.83277 16.3604 7.83228C16.3981 7.83271 16.4359 7.83315 16.4748 7.8336C16.6404 7.83204 16.7333 7.82798 16.8778 7.74133C17.0628 7.53415 17.0039 7.19062 17.0058 6.92641C17.0064 6.85871 17.0075 6.79101 17.009 6.72332C17.0111 6.62536 17.012 6.52747 17.0126 6.4295C17.0139 6.38444 17.0139 6.38444 17.0152 6.33848C17.0151 6.30994 17.015 6.2814 17.0149 6.25199C17.0154 6.21479 17.0154 6.21479 17.0159 6.17683C16.9752 6.03611 16.9169 5.94171 16.7968 5.86019C16.6184 5.8238 16.4398 5.82854 16.2586 5.83043C16.2025 5.83016 16.1464 5.82979 16.0903 5.82932C15.9361 5.82834 15.7819 5.82883 15.6277 5.82955C15.4615 5.83008 15.2952 5.82927 15.129 5.82862C14.8032 5.82758 14.4775 5.8278 14.1518 5.82848C13.8871 5.82901 13.6225 5.82908 13.3578 5.82883C13.3201 5.82879 13.2825 5.82876 13.2437 5.82872C13.1672 5.82865 13.0908 5.82857 13.0143 5.82849C12.2969 5.82782 11.5796 5.82859 10.8622 5.82985C10.2465 5.8309 9.6307 5.83072 9.01494 5.82964C8.30018 5.82838 7.58542 5.82789 6.87066 5.82861C6.79447 5.82868 6.71827 5.82876 6.64208 5.82883C6.60459 5.82887 6.5671 5.8289 6.52848 5.82894C6.26407 5.82914 5.99966 5.8288 5.73525 5.82825C5.41309 5.82759 5.09095 5.82777 4.76879 5.82902C4.60437 5.82963 4.43996 5.82987 4.27553 5.8291C4.12507 5.8284 3.97465 5.82878 3.8242 5.83003C3.76971 5.83029 3.71521 5.83016 3.66073 5.82959C3.33462 5.81239 3.33462 5.81239 3.07328 5.97413Z" fill="#DC133B"/>
<path d="M6.16263 10.0266C6.44209 10.2271 6.60904 10.4837 6.6802 10.8201C6.70391 10.9828 6.69832 11.0998 6.61673 11.2473C6.50186 11.3471 6.44142 11.367 6.28958 11.367C6.16507 11.3328 6.16507 11.3328 6.0552 11.2498C6.01509 11.1629 5.98874 11.0769 5.96274 10.9849C5.91601 10.821 5.86031 10.7292 5.71829 10.6345C5.46186 10.5396 5.2441 10.5141 4.98983 10.6271C4.89128 10.6808 4.83058 10.7273 4.76614 10.8201C4.7252 10.9702 4.71168 11.0559 4.77102 11.2009C4.95012 11.4159 5.1558 11.4299 5.418 11.4597C5.86037 11.5194 6.16659 11.6183 6.45773 11.9743C6.64444 12.2444 6.72969 12.5238 6.6802 12.8513C6.5875 13.2123 6.36587 13.5042 6.0552 13.7095C5.67649 13.9048 5.26703 13.9145 4.86136 13.8108C4.48811 13.6848 4.23455 13.4347 4.05676 13.0874C3.98367 12.9096 3.95829 12.7303 3.98489 12.5388C4.04593 12.4241 4.04593 12.4241 4.14114 12.3435C4.29541 12.2986 4.37667 12.2876 4.52444 12.3533C4.65334 12.4564 4.68586 12.5277 4.71731 12.6902C4.75204 12.8344 4.8046 12.9194 4.92895 13.0087C5.14348 13.1226 5.35942 13.1506 5.59195 13.0795C5.73698 13.0139 5.86579 12.9177 5.93802 12.7732C5.95378 12.6313 5.94941 12.5584 5.87698 12.4339C5.67352 12.2408 5.45349 12.2125 5.18606 12.1946C4.82481 12.1605 4.53264 12.0549 4.2803 11.782C4.05792 11.4921 3.9437 11.1862 3.98489 10.8201C4.08875 10.4498 4.26407 10.1745 4.59265 9.972C5.09327 9.70767 5.68169 9.73246 6.16263 10.0266Z" fill="#DC133B"/>
<path d="M8.7873 9.81395C8.92561 9.86353 8.99503 9.97986 9.05974 10.1084C9.09626 10.192 9.13049 10.2761 9.16408 10.3609C9.17706 10.3929 9.19003 10.4248 9.2034 10.4578C9.24602 10.5631 9.28814 10.6685 9.33021 10.774C9.35975 10.8475 9.3893 10.9211 9.41887 10.9946C9.48069 11.1485 9.54225 11.3025 9.60365 11.4566C9.68226 11.6538 9.7616 11.8507 9.84115 12.0475C9.90233 12.1992 9.96308 12.351 10.0237 12.5029C10.0528 12.5756 10.082 12.6482 10.1114 12.7207C10.1524 12.8222 10.1928 12.924 10.2331 13.0258C10.2453 13.0556 10.2575 13.0853 10.27 13.116C10.3395 13.2938 10.3704 13.4379 10.3525 13.632C10.2915 13.7443 10.2915 13.7443 10.1963 13.8273C10.0498 13.8699 9.96239 13.8802 9.81788 13.8298C9.5776 13.6154 9.47857 13.2257 9.37599 12.9289C9.37599 12.9031 9.37599 12.8773 9.37599 12.8508C8.91192 12.8508 8.44786 12.8508 7.96974 12.8508C7.93107 12.9668 7.89239 13.0828 7.85255 13.2023C7.81743 13.2989 7.78091 13.395 7.74269 13.4904C7.72471 13.5366 7.70673 13.5829 7.68821 13.6305C7.60409 13.7731 7.5378 13.8108 7.3838 13.8664C7.24503 13.8636 7.17235 13.8424 7.05665 13.7663C6.968 13.6333 6.97636 13.5123 6.99317 13.3586C7.02344 13.242 7.06687 13.1327 7.11261 13.0214C7.12532 12.9893 7.13802 12.9572 7.15111 12.9241C7.19295 12.8187 7.23556 12.7136 7.27821 12.6086C7.30765 12.5351 7.33705 12.4616 7.36642 12.388C7.42795 12.2342 7.48985 12.0806 7.55203 11.9271C7.63161 11.7306 7.71042 11.5338 7.78897 11.3368C7.84957 11.1851 7.9105 11.0335 7.97155 10.8819C8.00072 10.8094 8.02982 10.7369 8.05882 10.6643C8.09943 10.5628 8.14047 10.4615 8.18164 10.3603C8.1935 10.3304 8.20536 10.3006 8.21757 10.2698C8.34172 9.96729 8.43814 9.79138 8.7873 9.81395ZM8.6338 11.1711C8.57487 11.3117 8.5164 11.4526 8.45802 11.5934C8.43287 11.6534 8.43287 11.6534 8.40721 11.7147C8.38341 11.7723 8.38341 11.7723 8.35914 11.831C8.34441 11.8664 8.32968 11.9018 8.31451 11.9383C8.27578 12.0326 8.27578 12.0326 8.28224 12.1476C8.54005 12.1476 8.79786 12.1476 9.06349 12.1476C8.97036 11.8113 8.84464 11.4932 8.71192 11.1711C8.68614 11.1711 8.66036 11.1711 8.6338 11.1711Z" fill="#DC143B"/>
<path d="M6.59232 16.5808C6.65293 16.5834 6.65293 16.5834 6.71476 16.5861C6.78237 16.5888 6.78237 16.5888 6.85134 16.5915C7.08079 16.6083 7.30892 16.6308 7.53736 16.658C7.62885 16.6686 7.72035 16.6792 7.81187 16.6896C7.85159 16.6943 7.89132 16.699 7.93225 16.7039C8.36784 16.7467 8.80081 16.7648 9.23841 16.766C9.26642 16.7662 9.29443 16.7663 9.32328 16.7664C9.47222 16.767 9.62116 16.7673 9.7701 16.7675C9.88991 16.7677 10.0097 16.7682 10.1295 16.7691C11.0966 16.7762 12.0488 16.7254 13.0086 16.6019C13.0963 16.595 13.1842 16.5899 13.2722 16.5872C13.3147 16.5853 13.3572 16.5834 13.401 16.5814C13.5164 16.6019 13.5164 16.6019 13.6085 16.6905C13.7043 16.8499 13.696 16.9258 13.6726 17.1097C13.6213 17.2024 13.6213 17.2024 13.5164 17.2659C13.2005 17.3441 12.8725 17.3716 12.5496 17.4051C12.5042 17.41 12.4589 17.4149 12.4122 17.42C11.8688 17.4774 11.3289 17.5068 10.7826 17.5082C10.7538 17.5083 10.725 17.5085 10.6954 17.5086C10.5423 17.5091 10.3893 17.5095 10.2363 17.5097C10.1132 17.5098 9.99014 17.5104 9.86707 17.5113C9.00812 17.5174 8.16049 17.4845 7.30619 17.3916C7.25162 17.3857 7.19703 17.3801 7.14242 17.3746C7.0574 17.366 6.97247 17.3568 6.88753 17.3474C6.81246 17.3395 6.81246 17.3395 6.73589 17.3313C6.5613 17.2969 6.45374 17.2345 6.32886 17.1097C6.30224 16.839 6.30224 16.839 6.39376 16.6952C6.48511 16.6019 6.48511 16.6019 6.59232 16.5808Z" fill="#DB133B"/>
<path d="M13.1764 9.78105C13.2039 9.78083 13.2314 9.78062 13.2598 9.78039C13.3502 9.77993 13.4405 9.78088 13.5309 9.78189C13.594 9.78196 13.6571 9.78195 13.7203 9.78188C13.8523 9.78195 13.9843 9.78268 14.1164 9.78391C14.2854 9.78546 14.4543 9.78563 14.6234 9.78534C14.7536 9.78522 14.8839 9.78569 15.0141 9.78636C15.0764 9.78663 15.1387 9.78676 15.2011 9.78672C15.2882 9.78679 15.3753 9.78763 15.4624 9.78868C15.5119 9.78901 15.5615 9.78934 15.6125 9.78968C15.7532 9.80634 15.826 9.83683 15.938 9.92227C16.0356 10.0688 16.037 10.1394 16.0161 10.3129C15.9152 10.4424 15.8583 10.5016 15.6946 10.5304C15.6482 10.5294 15.6017 10.5283 15.5539 10.5273C15.5034 10.5267 15.4529 10.526 15.4009 10.5254C15.348 10.5237 15.2951 10.5221 15.2422 10.5204C15.1885 10.5194 15.1348 10.5185 15.0811 10.5177C14.95 10.5154 14.819 10.5122 14.688 10.5082C14.6886 10.5663 14.6886 10.5663 14.6893 10.6255C14.6932 10.9905 14.6962 11.3555 14.6981 11.7204C14.6991 11.9081 14.7005 12.0957 14.7027 12.2833C14.7048 12.4644 14.706 12.6455 14.7065 12.8266C14.7068 12.8957 14.7076 12.9648 14.7086 13.0338C14.71 13.1306 14.7102 13.2274 14.7101 13.3242C14.7108 13.3527 14.7115 13.3812 14.7123 13.4106C14.7107 13.5637 14.6927 13.6274 14.595 13.7479C14.4869 13.833 14.434 13.8642 14.2973 13.8676C14.186 13.8384 14.1206 13.8077 14.0385 13.7272C13.9637 13.5962 13.9694 13.4752 13.9715 13.3286C13.9715 13.2828 13.9715 13.2828 13.9715 13.2362C13.9716 13.1356 13.9725 13.035 13.9734 12.9344C13.9736 12.8645 13.9738 12.7947 13.9739 12.7248C13.9743 12.5412 13.9755 12.3575 13.9768 12.1738C13.978 11.9864 13.9785 11.7989 13.9791 11.6114C13.9804 11.2437 13.9824 10.8759 13.9848 10.5082C13.9515 10.5092 13.9182 10.5103 13.8839 10.5113C13.7598 10.5146 13.6357 10.5171 13.5116 10.5189C13.458 10.5199 13.4043 10.5212 13.3507 10.5229C13.2735 10.5253 13.1962 10.5263 13.1189 10.5273C13.0492 10.5288 13.0492 10.5288 12.9782 10.5304C12.8157 10.5018 12.7593 10.4388 12.6567 10.3129C12.6294 10.2323 12.6294 10.2323 12.6299 10.1566C12.6289 10.1317 12.6279 10.1067 12.627 10.081C12.7187 9.83245 12.938 9.78066 13.1764 9.78105Z" fill="#DC133B"/>
<path d="M11.5218 9.84397C11.64 9.95497 11.6754 10.0194 11.6968 10.1814C11.6973 10.237 11.6969 10.2927 11.6958 10.3483C11.6958 10.3788 11.6958 10.4093 11.6958 10.4408C11.6957 10.5412 11.6945 10.6415 11.6933 10.7419C11.693 10.8117 11.6928 10.8815 11.6926 10.9513C11.692 11.1346 11.6905 11.318 11.6888 11.5013C11.6872 11.6885 11.6864 11.8758 11.6857 12.063C11.684 12.4301 11.6813 12.7972 11.678 13.1643C11.7222 13.1635 11.7663 13.1626 11.8118 13.1618C11.9757 13.159 12.1397 13.1572 12.3036 13.1557C12.3746 13.1549 12.4455 13.1538 12.5164 13.1525C12.6184 13.1506 12.7204 13.1497 12.8224 13.149C12.8541 13.1482 12.8858 13.1474 12.9184 13.1466C13.0591 13.1465 13.144 13.1509 13.2595 13.235C13.3432 13.356 13.3551 13.4477 13.3577 13.594C13.3102 13.7127 13.2747 13.77 13.163 13.8329C12.9919 13.883 12.8273 13.8793 12.6499 13.8792C12.6117 13.8793 12.5735 13.8795 12.5341 13.8797C12.4535 13.8799 12.3729 13.8799 12.2923 13.8797C12.1693 13.8796 12.0463 13.8805 11.9233 13.8815C11.8449 13.8816 11.7664 13.8816 11.6879 13.8816C11.6513 13.882 11.6147 13.8823 11.5769 13.8827C11.3747 13.8813 11.2247 13.8696 11.053 13.7502C10.945 13.6018 10.9634 13.4287 10.9635 13.253C10.9633 13.2186 10.963 13.1843 10.9628 13.1488C10.962 13.0352 10.9619 12.9216 10.9618 12.808C10.9615 12.729 10.9613 12.65 10.961 12.571C10.9605 12.4054 10.9604 12.2398 10.9604 12.0742C10.9604 11.862 10.9594 11.6498 10.958 11.4376C10.9571 11.2745 10.957 11.1113 10.957 10.9482C10.9569 10.8699 10.9566 10.7917 10.956 10.7135C10.9552 10.6041 10.9554 10.4947 10.9559 10.3853C10.9555 10.353 10.955 10.3207 10.9546 10.2874C10.9563 10.1335 10.9643 10.0565 11.0469 9.92244C11.2005 9.77942 11.3259 9.79586 11.5218 9.84397Z" fill="#DC133B"/>
<path d="M12.8132 3.82848C12.9301 3.90644 12.9944 3.96061 13.0257 4.10085C13.0334 4.23238 13.0186 4.32058 12.9475 4.43151C12.8189 4.51394 12.7317 4.5316 12.5788 4.5316C12.447 4.47545 12.447 4.47545 12.3444 4.37535C12.2966 4.23766 12.2903 4.11076 12.3347 3.97008C12.4605 3.80655 12.6222 3.79318 12.8132 3.82848Z" fill="#DC133B"/>
<path d="M10.0816 2.48148C10.2186 2.51545 10.275 2.58152 10.3526 2.69556C10.377 2.83228 10.377 2.83228 10.3526 2.969C10.2645 3.08486 10.1968 3.14811 10.0621 3.20338C9.92442 3.20338 9.8435 3.15828 9.72763 3.08619C9.62996 2.93969 9.62856 2.86906 9.6495 2.69556C9.76869 2.52051 9.87599 2.46707 10.0816 2.48148Z" fill="#DB133B"/>
<path d="M11.1723 3.82862C11.2933 3.90729 11.3207 3.96079 11.3651 4.09718C11.3682 4.24947 11.3338 4.32708 11.2504 4.45362C11.1471 4.53847 11.093 4.5317 10.9574 4.52686C10.8036 4.4884 10.7484 4.47079 10.6645 4.33643C10.6346 4.16907 10.6367 4.0343 10.7206 3.88477C10.87 3.80098 11.0051 3.7985 11.1723 3.82862Z" fill="#DC133B"/>
<path d="M7.50141 3.82831C7.63197 3.912 7.65343 3.96905 7.69428 4.11884C7.69702 4.27534 7.67846 4.33392 7.57953 4.45331C7.47508 4.53538 7.42161 4.53138 7.28656 4.52655C7.13399 4.48841 7.07828 4.46824 6.99359 4.33612C6.96606 4.14342 6.9635 4.06876 7.07172 3.90644C7.23405 3.79822 7.3087 3.80078 7.50141 3.82831Z" fill="#DC133B"/>
<path d="M9.14006 3.82796C9.25725 3.88411 9.25725 3.88411 9.33538 3.98421C9.37023 4.15229 9.36603 4.28674 9.27434 4.43343C9.1473 4.51161 9.05462 4.52847 8.90569 4.53109C8.77882 4.48034 8.72642 4.44087 8.65667 4.32357C8.62638 4.19335 8.63314 4.11236 8.67131 3.98421C8.78924 3.80497 8.93912 3.79016 9.14006 3.82796Z" fill="#DC133B"/>
</g>
<defs>
<clipPath id="clip0_2568_3203">
<rect width="20" height="20" fill="white"/>
</clipPath>
</defs>
</svg>
