<svg width="72" height="58" viewBox="0 0 72 58" fill="none" xmlns="http://www.w3.org/2000/svg">
<g filter="url(#filter0_d_2313_3799)">
<rect x="24" y="6" width="24" height="24" rx="6" fill="#F8F8F8" shape-rendering="crispEdges"/>
<path d="M40 25C39.4444 25 38.9722 24.7958 38.5833 24.3875C38.1944 23.9792 38 23.4833 38 22.9C38 22.83 38.0167 22.6667 38.05 22.41L33.3667 19.54C33.1889 19.715 32.9833 19.8522 32.75 19.9516C32.5167 20.051 32.2667 20.1005 32 20.1C31.4444 20.1 30.9722 19.8958 30.5833 19.4875C30.1944 19.0792 30 18.5833 30 18C30 17.4167 30.1944 16.9208 30.5833 16.5125C30.9722 16.1042 31.4444 15.9 32 15.9C32.2667 15.9 32.5167 15.9497 32.75 16.0491C32.9833 16.1485 33.1889 16.2855 33.3667 16.46L38.05 13.59C38.0278 13.5083 38.014 13.4297 38.0087 13.3541C38.0033 13.2785 38.0004 13.1938 38 13.1C38 12.5167 38.1944 12.0208 38.5833 11.6125C38.9722 11.2042 39.4444 11 40 11C40.5556 11 41.0278 11.2042 41.4167 11.6125C41.8056 12.0208 42 12.5167 42 13.1C42 13.6833 41.8056 14.1792 41.4167 14.5875C41.0278 14.9958 40.5556 15.2 40 15.2C39.7333 15.2 39.4833 15.1503 39.25 15.0509C39.0167 14.9515 38.8111 14.8145 38.6333 14.64L33.95 17.51C33.9722 17.5917 33.9862 17.6705 33.992 17.7466C33.9978 17.8227 34.0004 17.9071 34 18C33.9996 18.0929 33.9969 18.1776 33.992 18.2541C33.9871 18.3306 33.9731 18.4093 33.95 18.49L38.6333 21.36C38.8111 21.185 39.0167 21.048 39.25 20.9491C39.4833 20.8502 39.7333 20.8005 40 20.8C40.5556 20.8 41.0278 21.0042 41.4167 21.4125C41.8056 21.8208 42 22.3167 42 22.9C42 23.4833 41.8056 23.9792 41.4167 24.3875C41.0278 24.7958 40.5556 25 40 25Z" fill="#1A1A1A"/>
</g>
<defs>
<filter id="filter0_d_2313_3799" x="0" y="-14" width="72" height="72" filterUnits="userSpaceOnUse" color-interpolation-filters="sRGB">
<feFlood flood-opacity="0" result="BackgroundImageFix"/>
<feColorMatrix in="SourceAlpha" type="matrix" values="0 0 0 0 0 0 0 0 0 0 0 0 0 0 0 0 0 0 127 0" result="hardAlpha"/>
<feOffset dy="4"/>
<feGaussianBlur stdDeviation="12"/>
<feComposite in2="hardAlpha" operator="out"/>
<feColorMatrix type="matrix" values="0 0 0 0 0.65098 0 0 0 0 0.65098 0 0 0 0 0.65098 0 0 0 0.25 0"/>
<feBlend mode="normal" in2="BackgroundImageFix" result="effect1_dropShadow_2313_3799"/>
<feBlend mode="normal" in="SourceGraphic" in2="effect1_dropShadow_2313_3799" result="shape"/>
</filter>
</defs>
</svg>
